<svg xmlns="http://www.w3.org/2000/svg" width="583" height="88" viewBox="0 0 583 88">
    <path fill="#FFF" fill-rule="nonzero" d="M0 85.8V24.24h15.72v8.28h.36c3.36-5.64 9.36-9.96 17.88-9.96 7.8 0 14.04 4.32 17.04 10.8h.24c4.2-6.72 10.68-10.8 18.48-10.8C82.68 22.56 90 30.96 90 44.4v41.4H73.68V47.16c0-6.96-3.48-10.56-9.48-10.56-6.84 0-11.04 5.28-11.04 13.44V85.8H36.84V47.16c0-6.96-3.48-10.56-9.48-10.56-6.6 0-11.04 5.28-11.04 13.44V85.8H0zm129.24 1.8c-19.08 0-32.16-14.16-32.16-32.52 0-18.36 13.08-32.52 32.16-32.52s32.16 14.16 32.16 32.52c0 18.36-13.08 32.52-32.16 32.52zm0-12.48c9.96 0 15.6-8.04 15.6-20.04s-5.64-20.16-15.6-20.16c-10.08 0-15.6 8.16-15.6 20.16s5.52 20.04 15.6 20.04zM192 87.6c-15.48 0-26.04-12.6-26.04-32.52 0-19.2 10.92-32.52 26.28-32.52 8.64 0 14.04 3.96 17.4 9.12h.36V0h16.32v85.8H210.6v-8.04h-.24c-3.6 5.88-9.72 9.84-18.36 9.84zm3.6-13.68c9.72 0 14.76-7.2 14.76-18.48 0-11.76-3.84-19.68-14.28-19.68-9 0-13.56 7.92-13.56 19.32 0 11.88 4.68 18.84 13.08 18.84zm66.24 13.68c-17.88 0-27.84-8.64-28.8-21.72h15.12c1.08 7.08 6.12 10.2 13.44 10.2 7.2 0 11.28-2.76 11.28-7.08 0-5.88-7.8-6.48-16.2-8.16-11.04-2.16-21.84-5.16-21.84-18.6 0-13.32 11.04-19.68 25.08-19.68 16.2 0 25.2 8.04 26.4 20.4h-14.76c-.72-6.6-4.92-9-11.88-9-6.36 0-10.56 2.4-10.56 6.84 0 5.28 8.16 5.76 16.92 7.56 10.32 2.16 21.72 5.04 21.72 19.44 0 12.36-10.56 19.8-25.92 19.8zm29.64-52.56v-10.8H300V5.04h15.96v19.2h10.56v10.8h-10.56v32.64c0 4.56 2.52 6.12 6.12 6.12 2.04 0 4.8-.12 4.8-.12v12s-3.72.24-10.2.24c-7.92 0-16.68-3.12-16.68-14.76V35.04h-8.52zm98.04 50.76H373.8v-7.2h-.36c-4.2 5.64-9 8.88-17.64 8.88-13.68 0-21.36-8.76-21.36-22.2V24.24h16.2v38.28c0 7.2 3.24 11.16 10.2 11.16 7.68 0 12.36-5.76 12.36-13.92V24.24h16.32V85.8zm33.6 1.8c-15.48 0-26.04-12.6-26.04-32.52 0-19.2 10.92-32.52 26.28-32.52 8.64 0 14.04 3.96 17.4 9.12h.36V0h16.32v85.8h-15.72v-8.04h-.24c-3.6 5.88-9.72 9.84-18.36 9.84zm3.6-13.68c9.72 0 14.76-7.2 14.76-18.48 0-11.76-3.84-19.68-14.28-19.68-9 0-13.56 7.92-13.56 19.32 0 11.88 4.68 18.84 13.08 18.84zm40.32 11.88V68.4h17.52v17.4h-17.52zm27.12 0V24.24h16.32V85.8h-16.32zm0-71.16V0h16.32v14.64h-16.32zM550.2 87.6c-19.08 0-32.16-14.16-32.16-32.52 0-18.36 13.08-32.52 32.16-32.52s32.16 14.16 32.16 32.52c0 18.36-13.08 32.52-32.16 32.52zm0-12.48c9.96 0 15.6-8.04 15.6-20.04s-5.64-20.16-15.6-20.16c-10.08 0-15.6 8.16-15.6 20.16s5.52 20.04 15.6 20.04z"/>
</svg>
