<?xml version="1.0" standalone="no"?>
<!DOCTYPE svg PUBLIC "-//W3C//DTD SVG 20010904//EN"
 "http://www.w3.org/TR/2001/REC-SVG-20010904/DTD/svg10.dtd">
<svg version="1.0" xmlns="http://www.w3.org/2000/svg"
 width="500.000000pt" height="500.000000pt" viewBox="0 0 500.000000 500.000000"
 preserveAspectRatio="xMidYMid meet">
<metadata>
Created by potrace 1.11, written by Peter Selinger 2001-2013
</metadata>
<g transform="translate(0.000000,500.000000) scale(0.100000,-0.100000)"
fill="#000000" stroke="none">
<path d="M0 2500 l0 -2500 2500 0 2500 0 0 2500 0 2500 -2500 0 -2500 0 0
-2500z m2289 1015 c147 -35 298 -147 371 -274 19 -33 37 -61 40 -61 3 0 21 23
40 51 57 85 169 182 262 228 120 59 197 74 343 68 263 -11 444 -121 544 -331
78 -163 75 -121 79 -968 l3 -758 -265 0 -265 0 -3 683 c-3 674 -3 683 -25 735
-31 75 -63 113 -124 147 -46 25 -68 30 -144 33 -75 3 -100 0 -149 -18 -105
-40 -187 -146 -215 -278 -7 -36 -11 -257 -11 -677 l0 -625 -270 0 -269 0 -3
693 -3 692 -23 50 c-28 60 -73 109 -127 138 -34 19 -57 22 -146 22 -97 0 -110
-2 -164 -30 -103 -53 -171 -159 -195 -307 -6 -38 -10 -302 -10 -660 l0 -598
-265 0 -265 0 0 1005 0 1005 255 0 255 0 0 -135 c0 -74 4 -135 9 -135 4 0 20
18 34 39 57 85 170 181 265 224 122 54 311 72 441 42z"/>
</g>
</svg>
