<svg xmlns="http://www.w3.org/2000/svg" width="160" height="32"><g fill="#FFF" fill-rule="evenodd"><path fill-rule="nonzero" d="M45.036 11.258v13.02c.02.634-.287 1.23-.8 1.553a1.544 1.544 0 01-1.662 0c-.512-.323-.819-.919-.8-1.553v-.452c-1.117 1.354-2.84 2.192-4.894 2.192-4.163 0-7.25-3.481-7.25-8.25 0-4.767 3.082-8.283 7.25-8.283 2.145 0 3.928.902 5.016 2.354v-.581c0-.998.666-1.777 1.57-1.777.876 0 1.57.775 1.57 1.777m-3.14 6.518c0-3.095-1.814-5.19-4.471-5.19-2.63 0-4.563 2.191-4.563 5.19 0 2.963 1.903 5.151 4.563 5.151 2.659 0 4.47-2.094 4.47-5.151"/><path d="M48.6 24.332V2.925a1.62 1.62 0 01.498-1.239c.339-.33.806-.51 1.29-.5 1.016 0 1.76.74 1.76 1.74v21.406c0 1-.746 1.742-1.76 1.742a1.82 1.82 0 01-1.288-.506 1.645 1.645 0 01-.507-1.236"/><path fill-rule="nonzero" d="M69.926 16.848v.162c0 1.164-.736 1.875-1.922 1.875H57.946c.448 2.557 2.336 4.174 5.117 4.174a6.007 6.007 0 003.681-1.23c.25-.192.551-.304.865-.323.377-.009.741.139 1.008.408.267.27.412.637.404 1.018 0 .583-.224.97-.833 1.426a8.497 8.497 0 01-5.218 1.715c-4.866 0-8.451-3.526-8.451-8.279 0-4.69 3.52-8.313 8.1-8.313 4.192 0 7.298 3.106 7.298 7.374m-11.91-.613h8.548c-.063-2.297-1.664-3.881-4.034-3.881-2.273 0-4.002 1.552-4.514 3.88m29.697 1.581c0 4.791-3.08 8.32-7.279 8.32-2.085 0-3.83-.874-4.956-2.298v6.407c0 1.005-.666 1.749-1.57 1.749a1.53 1.53 0 01-1.15-.508 1.763 1.763 0 01-.452-1.24V11.22c-.019-.615.277-1.191.77-1.505a1.482 1.482 0 011.602 0c.494.314.79.89.77 1.505v.646c1.088-1.456 2.871-2.33 4.986-2.33 4.198 0 7.279 3.529 7.279 8.285m-3.262.034c0-3.012-1.904-5.212-4.532-5.212-2.664 0-4.47 2.104-4.47 5.175 0 3.108 1.781 5.211 4.47 5.211 2.628 0 4.532-2.201 4.532-5.174"/><path d="M104.296 15.822v8.51c0 1.03-.698 1.742-1.58 1.742a1.527 1.527 0 01-1.162-.5 1.726 1.726 0 01-.449-1.242v-8.027c0-2.225-1.306-3.675-3.25-3.675-1.975 0-3.404 1.514-3.404 3.675v8.027c0 1.03-.67 1.742-1.58 1.742a1.546 1.546 0 01-1.156-.506 1.746 1.746 0 01-.455-1.236V2.925c-.013-.46.151-.906.456-1.235a1.55 1.55 0 011.155-.505c.912 0 1.58.711 1.58 1.74v8.544c1.033-1.226 2.522-1.935 4.315-1.935 3.35 0 5.527 2.488 5.527 6.288"/><path fill-rule="nonzero" d="M123.26 17.823c0 4.768-3.083 8.25-7.25 8.25-2.115 0-3.897-.87-5.015-2.32v.58c0 1.032-.666 1.74-1.54 1.74a1.514 1.514 0 01-1.155-.499 1.732 1.732 0 01-.447-1.242V2.925c-.013-.46.15-.907.453-1.236.302-.328.718-.51 1.15-.504.905 0 1.57.711 1.57 1.74v8.927c1.117-1.45 2.869-2.32 4.953-2.32 4.198 0 7.28 3.514 7.28 8.284m-3.262-.034c0-2.965-1.903-5.152-4.53-5.152-2.69 0-4.472 2.095-4.472 5.19 0 3.06 1.812 5.152 4.471 5.152 2.628 0 4.531-2.193 4.531-5.19m21.04-.934v.162c0 1.164-.736 1.875-1.92 1.875h-10.06c.448 2.557 2.336 4.174 5.117 4.174a6.007 6.007 0 003.681-1.23c.25-.191.552-.303.865-.323.377-.009.741.139 1.008.408a1.4 1.4 0 01.404 1.018c0 .583-.224.97-.833 1.426a8.497 8.497 0 01-5.218 1.715c-4.866 0-8.451-3.526-8.451-8.279 0-4.69 3.529-8.313 8.1-8.313 4.192 0 7.298 3.106 7.298 7.374m-11.908-.613h8.547c-.064-2.297-1.665-3.881-4.035-3.881-2.272 0-4 1.552-4.512 3.88"/><path d="M142.224 24.327V11.229c-.021-.463.16-.914.5-1.246.339-.33.807-.512 1.292-.501 1.017 0 1.76.745 1.76 1.747v13.098a1.65 1.65 0 01-.506 1.24c-.338.33-.804.513-1.287.507-1.015 0-1.76-.745-1.76-1.747m6.397-.712a1.421 1.421 0 01-.471-1.1c.013-.829.672-1.492 1.478-1.487.39.007.764.17 1.04.453.974.938 2.138 1.649 3.616 1.649 1.352 0 2.484-.583 2.484-1.783 0-1.034-.912-1.454-2.17-1.973l-1.574-.681c-2.484-1.061-4.025-2.225-4.025-4.62 0-2.943 2.39-4.592 5.441-4.592 1.98 0 3.71.746 4.906 1.942.32.283.504.697.502 1.132.007.795-.613 1.446-1.386 1.455-.347 0-.63-.163-1.04-.485a4.964 4.964 0 00-3.05-1.1c-1.225 0-2.105.485-2.105 1.52 0 .874.629 1.293 2.043 1.876l1.479.615c2.798 1.196 4.212 2.456 4.212 4.785 0 3.209-2.64 4.852-5.72 4.852a7.526 7.526 0 01-5.662-2.458m-1.655-20.059c-.05 1.324-1.097 2.37-2.37 2.37-1.274 0-2.32-1.046-2.37-2.37.05-1.325 1.096-2.37 2.37-2.37 1.273 0 2.32 1.045 2.37 2.37M5.926 14.222c-.655 0-1.185-.632-1.185-1.412V1.412C4.74.632 5.27 0 5.926 0 6.58 0 7.11.632 7.11 1.412V12.81c0 .78-.53 1.412-1.185 1.412m4.742 0c-.655 0-1.186-.63-1.186-1.406v-6.67c0-.776.531-1.405 1.186-1.405.654 0 1.185.63 1.185 1.406v6.67c0 .776-.53 1.405-1.185 1.405m4.74 0c-.654 0-1.185-.647-1.185-1.445v-4.22c0-.799.53-1.446 1.185-1.446s1.186.647 1.186 1.445v4.221c0 .798-.531 1.445-1.186 1.445"/><path d="M10.668 27.26C4.779 27.253.007 22.447 0 16.516V12.1c0-.79.637-1.432 1.422-1.432.786 0 1.423.641 1.423 1.432v4.418c.063 4.305 3.547 7.762 7.822 7.762s7.758-3.457 7.821-7.762V12.1c0-.79.637-1.432 1.423-1.432.785 0 1.422.641 1.422 1.432v4.418c-.006 5.93-4.778 10.736-10.665 10.742"/></g></svg>