<svg xmlns="http://www.w3.org/2000/svg" xmlns:xlink="http://www.w3.org/1999/xlink" width="152" height="32"><defs><path id="a" d="M0 .011h31.513V31.93H0z"/></defs><g fill="none" fill-rule="evenodd"><g transform="translate(0 .06)"><mask id="b" fill="#fff"><use xlink:href="#a"/></mask><path fill="#FFF" d="M12.23 17.351c-.558 0-1.116-.005-1.674.001-2.054.023-3.73 1.763-3.72 3.859a3.811 3.811 0 003.823 3.828c2.1.008 3.843-1.663 3.862-3.715.011-1.187-.008-2.374.004-3.561.002-.305-.092-.426-.408-.418-.628.018-1.258.006-1.887.006zm2.362-14.34A3.333 3.333 0 0118.144.019c1.839.123 3.22 1.591 3.235 3.477.016 2.173.012 4.346-.003 6.519-.003.379.12.484.49.484 2.231.002 4.47-.075 6.691.076 1.817.124 3.071 1.798 2.947 3.58-.124 1.79-1.613 3.182-3.445 3.192-2.078.013-4.156.01-6.234-.003-.344-.002-.444.114-.449.452-.033 2.306.199 4.628-.584 6.88-1.574 4.53-6.368 7.623-10.83 7.217C4.516 31.398.44 27.095.037 22.132a10.72 10.72 0 0110.683-11.64c1.116-.003 2.233-.013 3.349.007.367.006.467-.125.462-.476l.06-7.012z" mask="url(#b)"/></g><path fill="#FFF" d="M96.06 18.507c0-2.221.007-4.442-.006-6.663-.002-.366.111-.508.488-.502 1.092.018 2.185.005 3.278.009.17 0 .423-.04.421.208-.006.787.321.344.574.17 1.998-1.38 5.231-.984 7.116.888.241.24.373.238.633.021 2.157-1.804 4.61-2.25 7.196-1.217 2.597 1.037 3.694 3.243 3.804 5.903.11 2.632.025 5.272.035 7.908.001.308-.137.383-.413.38-1.08-.008-2.161-.021-3.241.007-.434.011-.574-.115-.57-.558.014-2.482.037-4.965-.014-7.446-.047-2.257-2.157-3.572-4.14-2.585-.818.407-1.424.916-1.364 2.099.136 2.7.046 5.413.053 8.12 0 .258-.094.364-.354.362-1.152-.006-2.304-.01-3.456.002-.36.004-.36-.207-.36-.464.002-2.363.008-4.727-.001-7.09-.009-2.036-.912-3.098-2.796-3.32-1.285-.15-2.677 1.076-2.677 2.36 0 2.636-.013 5.273.01 7.91.005.493-.146.628-.626.611a44.463 44.463 0 00-2.992 0c-.462.014-.614-.113-.609-.593.025-2.173.011-4.347.011-6.52m51.528.005c0-.653-.004-1.306.002-1.959a.822.822 0 00-.187-.557c-1.05-1.288-3.167-1.739-4.682-.993-1.558.768-2.369 2.659-1.925 4.49.426 1.762 1.87 2.908 3.628 2.88 2.097-.032 3.164-1.093 3.164-3.148v-.713m4.215-3.427c0 3.314-.01 6.628.01 9.94.003.48-.144.608-.607.595-1.068-.032-2.138-.01-3.207-.011-.193 0-.425.012-.401-.268.043-.507-.142-.415-.484-.256-2.777 1.293-5.482 1.2-7.89-.774-2.485-2.039-3.225-4.783-2.426-7.835.775-2.96 2.762-4.795 5.82-5.32 1.601-.275 3.148.013 4.587.783.34.182.388.087.387-.245-.008-2.185.01-4.37-.015-6.556-.005-.479.145-.606.608-.591 1.044.032 2.09.024 3.135.002.376-.007.49.118.489.49-.011 3.348-.006 6.697-.006 10.046M50.72 18.503c0-.652.01-1.305-.006-1.957-.003-.155-.044-.339-.136-.457-1.024-1.312-3.034-1.826-4.54-1.175-1.606.695-2.47 2.385-2.192 4.287a3.72 3.72 0 003.25 3.16c2.15.264 3.625-1 3.625-3.11v-.748m4.167-3.396c0 3.338-.005 6.676.007 10.014 0 .364-.096.504-.48.496-1.092-.022-2.185-.006-3.278-.01-.168 0-.42.045-.4-.22.048-.638-.211-.447-.561-.264-4.54 2.375-10.086-.704-10.503-5.824-.372-4.573 2.838-8.276 7.15-8.231 1.24.012 2.434.261 3.518.891.357.207.387.092.386-.248-.011-2.209.005-4.418-.015-6.628-.004-.43.133-.545.548-.535 1.057.026 2.114.022 3.171.002.364-.007.464.12.463.473-.01 3.361-.006 6.723-.006 10.084m28.118 3.36c0-.641.008-1.283-.007-1.924-.003-.155-.044-.342-.137-.457-.993-1.216-2.302-1.664-3.815-1.4-2.035.356-3.31 2.427-2.903 4.604.388 2.082 2.264 3.37 4.347 2.983 1.831-.34 2.515-1.152 2.515-2.986v-.82m4.167.01c0 2.208-.008 4.417.007 6.625.003.38-.096.524-.497.516-1.092-.024-2.185-.008-3.277-.01-.193 0-.42.013-.393-.273.055-.579-.189-.407-.502-.237-4.462 2.424-10.159-.68-10.55-5.741-.323-4.196 2.11-7.552 5.985-8.195 1.666-.276 3.264.007 4.75.83.242.135.348.119.309-.178-.048-.362.11-.477.464-.471 1.092.016 2.185.013 3.277.001.32-.003.434.107.433.435-.011 2.233-.006 4.465-.006 6.697M63.69 17.05c.9 0 1.802-.013 2.703.005.42.009.484-.147.367-.516-.44-1.401-1.486-2.056-3.214-1.987-1.33.052-2.598 1.045-2.87 2.232-.063.277.097.265.273.265h2.74m2.104 2.985c-1.567 0-3.134.009-4.701-.005-.38-.004-.418.11-.28.434.9 2.11 3.999 2.722 5.595 1.091.132-.135.276-.166.447-.166 1.199.001 2.398.008 3.597-.004.382-.003.413.143.288.456-.992 2.484-2.962 3.623-5.485 4.019-3.29.516-6.464-.908-7.952-3.715-2.227-4.2-.349-10.546 5.924-11.022 5.118-.388 8.544 3.448 7.766 8.603-.047.308-.24.309-.461.309h-4.738m62.564-2.984c.902 0 1.804-.01 2.706.005.338.006.406-.105.325-.42-.35-1.364-1.396-2.098-3.003-2.088-1.503.01-2.796.94-3.1 2.214-.073.3.11.286.294.287.926.002 1.852.001 2.778.002m2.077 2.985c-1.579 0-3.158.006-4.737-.004-.376-.003-.421.128-.284.448.896 2.09 3.995 2.7 5.576 1.086.142-.144.297-.177.48-.177 1.2.001 2.399.008 3.598-.004.35-.004.407.11.285.422-.978 2.49-2.94 3.645-5.462 4.049-3.204.513-6.316-.854-7.86-3.454-1.834-3.087-1.138-7.448 1.54-9.646 2.846-2.338 7.31-2.267 9.984.231 1.537 1.435 2.108 3.305 2.086 5.383-.018 1.666-.003 1.666-1.644 1.666h-3.562m-36.709-4.931c0 3.325-.007 6.65.009 9.975.002.43-.135.549-.55.539a95.265 95.265 0 00-3.242-.004c-.295.003-.433-.08-.433-.4.006-6.757.005-13.515.001-20.272 0-.292.114-.392.404-.39 1.116.012 2.233.017 3.349-.002.361-.006.469.116.468.471-.01 3.36-.006 6.722-.006 10.083"/></g></svg>