<svg xmlns="http://www.w3.org/2000/svg" xmlns:xlink="http://www.w3.org/1999/xlink" width="103" height="42"><defs><path id="a" d="M.14.15h72.655v23.552H.14z"/></defs><g fill="none" fill-rule="evenodd"><g transform="translate(17.022 .059)"><mask id="b" fill="#fff"><use xlink:href="#a"/></mask><path fill="#FFF" fill-rule="nonzero" d="M6.263 19.44c-3.2 0-4.397-1.2-4.397-3.825v-7.65c0-2.625 1.196-3.826 4.397-3.826 2.866 0 3.979.922 5.287 2.234v-7.427h2.532v20.382H11.55v-2.122c-1.308 1.313-2.421 2.234-5.287 2.234zm.278-2.318c2.393 0 3.534-.502 5.009-1.507v-7.65c-1.475-1.006-2.616-1.508-5.01-1.508-1.697 0-2.142.418-2.142 1.591v7.483c0 1.173.445 1.591 2.143 1.591zM18.173 2.157V-.691h2.81v2.848h-2.81zm.139 17.171V4.251h2.532v15.077h-2.532zm6.762 0V4.251h2.532v2.234C28.831 5.284 30 4.25 32.226 4.25h1.113v2.43h-1.336c-1.781 0-3.033.642-4.397 1.48v11.168h-2.532zm21.761-6.924h-9.294v3.267c0 1.06.445 1.507 1.502 1.507H42.8c1.058 0 1.503-.446 1.503-1.507v-1.117h2.532v1.033c0 2.54-1.197 3.741-3.729 3.741h-4.369c-2.532 0-3.729-1.2-3.729-3.741V7.992c0-2.54 1.197-3.741 3.73-3.741h4.368c2.532 0 3.73 1.2 3.73 3.741v4.412zM39.043 6.4c-1.057 0-1.502.446-1.502 1.507v2.597h6.762V7.908c0-1.06-.418-1.507-1.503-1.507h-3.757zm14.86 12.927c-2.532 0-3.729-1.2-3.729-3.741V7.992c0-2.54 1.197-3.741 3.73-3.741h4.118c2.532 0 3.729 1.2 3.729 3.741v1.313h-2.533V8.02c0-1.06-.417-1.508-1.502-1.508h-3.507c-1.057 0-1.502.447-1.502 1.508v7.539c0 1.06.445 1.508 1.502 1.508h3.507c1.085 0 1.502-.447 1.502-1.508v-1.284h2.533v1.312c0 2.54-1.197 3.741-3.73 3.741h-4.118zm15.472 0c-2.532 0-3.729-1.2-3.729-3.741V6.4H63.42V4.25h2.254V.62h2.505v3.63h3.59V6.4h-3.562v9.214c0 1.06.417 1.507 1.502 1.507h2.06v2.206h-2.394z" mask="url(#b)"/></g><path fill="#FFF" d="M5.573 14.429L0 25.064 9.944 14.43 0 3.793z"/><path fill="#FFF" d="M16.228 14.429L6.283 3.793l5.574 10.636-5.574 10.635z"/><path fill="#FFF" fill-rule="nonzero" d="M23.34 41.295c-3.2 0-4.396-1.2-4.396-3.826v-7.65c0-2.625 1.196-3.825 4.396-3.825 2.867 0 3.98.921 5.288 2.234V20.8h2.532v20.382h-2.532V39.06c-1.308 1.312-2.421 2.234-5.288 2.234zm.279-2.318c2.393 0 3.534-.502 5.009-1.508v-7.65c-1.475-1.005-2.616-1.508-5.01-1.508-1.697 0-2.142.42-2.142 1.592v7.483c0 1.172.445 1.591 2.143 1.591zm15.054 2.206c-2.532 0-3.728-1.2-3.728-3.741v-7.595c0-2.54 1.196-3.741 3.728-3.741h4.564c2.532 0 3.729 1.2 3.729 3.741v7.595c0 2.54-1.197 3.741-3.729 3.741h-4.564zm.307-2.262h3.923c1.085 0 1.503-.446 1.503-1.507v-7.54c0-1.06-.418-1.507-1.503-1.507H38.98c-1.058 0-1.503.447-1.503 1.508v7.539c0 1.06.445 1.507 1.503 1.507zm11.77 2.262V26.106h2.533V28.2c1.308-1.313 2.42-2.234 5.092-2.234 3.033 0 4.23 1.2 4.23 3.77v11.447h-2.56V29.819c0-1.117-.39-1.536-1.92-1.536-2.226 0-3.367.503-4.842 1.508v11.392H50.75zm19.452.112c-3.061 0-4.258-1.285-4.258-4.412 0-3.155 1.308-4.104 3.813-4.383a82.89 82.89 0 015.593-.42v-2.289c0-1.089-.417-1.508-1.503-1.508H70.48c-1.085 0-1.502.42-1.502 1.508v.559h-2.533v-.503c0-2.54 1.197-3.741 3.73-3.741h3.978c2.533 0 3.73 1.2 3.73 3.741v11.336H75.35v-2.15c-1.169 1.452-2.42 2.262-5.148 2.262zm.278-2.206c2.254 0 3.395-.614 4.87-1.62v-3.713l-5.26.698c-1.168.168-1.613.503-1.613 2.29 0 1.814.417 2.345 2.003 2.345zm15.528 2.094c-2.532 0-3.729-1.2-3.729-3.741v-9.187h-2.226v-2.15h2.254v-3.63h2.504v3.63h3.59v2.15H84.84v9.214c0 1.061.418 1.508 1.503 1.508h2.06v2.206h-2.394zm16.223-6.924h-9.294v3.266c0 1.061.445 1.508 1.503 1.508h3.756c1.058 0 1.503-.447 1.503-1.508v-1.117h2.532v1.034c0 2.54-1.196 3.741-3.728 3.741h-4.37c-2.532 0-3.728-1.2-3.728-3.741v-7.595c0-2.54 1.196-3.741 3.729-3.741h4.369c2.532 0 3.728 1.2 3.728 3.741v4.412zm-7.791-6.004c-1.058 0-1.503.447-1.503 1.508v2.597H99.7v-2.597c0-1.06-.417-1.508-1.503-1.508H94.44z"/></g></svg>