<svg xmlns="http://www.w3.org/2000/svg" xmlns:xlink="http://www.w3.org/1999/xlink" width="120" height="35"><defs><path id="a" d="M.243.266h27.873v25.531H.243z"/><path id="c" d="M0 35h119.84V.266H0z"/></defs><g fill="none" fill-rule="evenodd"><path fill="#FEFEFE" d="M0 25.32h17.872v-5.181H6.286v-4.287h11.33v-5.217H6.287V6.67h11.586V1.49H0zm33.014.998c5.952 0 9.072-3.364 10.614-6.474l-5.307-2.532c-.79 1.917-2.833 3.509-5.307 3.509-3.729 0-6.49-3.039-6.49-6.981 0-3.943 2.761-6.981 6.49-6.981 2.474 0 4.518 1.591 5.307 3.508l5.307-2.531C42.05 4.653 38.966 1.36 33.014 1.36c-7.171 0-12.765 5.028-12.765 12.479 0 7.414 5.594 12.478 12.765 12.478m29.51-.433h6.706L60.194 1.76h-7.745l-9 24.125h6.705l1.219-3.653h9.932l1.22 3.653zm-6.203-18.7l3.37 9.803h-6.705l3.335-9.803zm14.665 18.7h6.168V17.71h5.809c5.378 0 8.318-3.581 8.318-7.921 0-4.377-2.94-8.03-8.318-8.03H70.986v24.125zm14.02-16.131c0 1.627-1.219 2.676-2.868 2.676h-4.984V7.004h4.984c1.65 0 2.869 1.085 2.869 2.749z"/><g transform="translate(91.724)"><mask id="b" fill="#fff"><use xlink:href="#a"/></mask><path fill="#FEFEFE" d="M7.04 2.914l-.044-.415.335-.108c.47-.41 2.63-2.073 6.901-2.124 4.099-.048 6.855 2.127 6.863 2.134l.055.043.19.262-.021.193c0 .01-.345 2.932 1.636 6.138 2.121 3.43 4.783 4.384 4.79 4.387l.296.107.037.312c.001.01.44 3.512-1.703 7.036-2.552 4.197-5.474 4.814-5.482 4.816l-.229.05-.187-.145c-.007-.006-2.49-1.967-6.233-1.922-4.456.053-6.298 1.918-6.303 1.924l-.198.195-.269-.062c-.009-.002-2.94-.649-5.49-4.842C-.159 17.368.28 13.867.28 13.857l.038-.312.295-.107c.008-.003 2.67-.958 4.79-4.387C7.385 5.846 7.041 2.922 7.04 2.914m3.247 1.423C10.122 6.6 9.264 8.986 8.154 10.78c-1.076 1.74-2.752 3.612-4.629 4.818.155 1.271.636 2.62 1.222 3.584.523.86 1.512 2.142 2.549 2.88 2.069-1.16 4.768-1.63 6.91-1.655 2.191-.026 4.748.553 6.81 1.666 1.053-.722 2.069-2.038 2.596-2.905.586-.964 1.068-2.313 1.222-3.584-1.878-1.207-3.553-3.078-4.629-4.817-1.102-1.782-1.955-4.145-2.13-6.393-1.184-.556-2.642-.852-3.804-.838-1.083.013-2.779.232-3.984.8" mask="url(#b)"/></g><path fill="#FEFEFE" d="M26.665 34.72h.37v-4.3h-.37v1.921H23.96V30.42h-.364v4.301h.364v-2.044h2.705zm3.538 0h2.705v-.335h-2.34v-1.703h2.295v-.335h-2.295v-1.593h2.34v-.335h-2.705zm8.82 0h.41l-1.746-4.301h-.454l-1.746 4.301h.41l.428-1.058h2.27l.428 1.058zm-1.567-3.94l1.023 2.547h-2.04l1.017-2.547zm4.716 3.94h2.43v-.335h-2.066v-3.966h-.364zm5.783 0h.37v-3.966h1.394v-.335h-3.158v.335h1.394zm7.7 0h.371v-4.3h-.37v1.921H52.95V30.42h-.365v4.301h.365v-2.044h2.704zm5.527.078c.69 0 1.19-.297 1.567-.768l-.307-.193a1.552 1.552 0 01-1.26.625c-.99 0-1.764-.78-1.764-1.89 0-1.122.774-1.89 1.764-1.89.525 0 .991.253 1.26.627l.307-.2c-.365-.458-.876-.762-1.567-.762-1.195 0-2.148.903-2.148 2.225 0 1.323.953 2.226 2.148 2.226m7.509-.078h.41l-1.746-4.301h-.454l-1.745 4.301h.409l.428-1.058h2.27l.428 1.058zm-1.566-3.94l1.023 2.547h-2.04l1.017-2.547zm7.215 3.94h.441l-1.234-1.806c.633-.025 1.183-.457 1.183-1.238 0-.787-.563-1.257-1.298-1.257H71.84v4.301h.365v-1.78h.94l1.195 1.78zm.006-3.044c0 .542-.383.929-.946.929h-1.195v-1.851H73.4c.563 0 .946.38.946.922zm3.404 3.044h2.705v-.335h-2.34v-1.703h2.296v-.335h-2.296v-1.593h2.34v-.335h-2.704z"/><mask id="d" fill="#fff"><use xlink:href="#c"/></mask><path fill="#FEFEFE" d="M0 35h17.881v-4.758H0z" mask="url(#d)"/></g></svg>