<svg xmlns="http://www.w3.org/2000/svg" xmlns:xlink="http://www.w3.org/1999/xlink" width="160" height="38"><defs><path id="a" d="M0 .367h11.288v20.575H0z"/><path id="c" d="M.198.526h10.009v10.009H.198z"/><path id="e" d="M.446.532h16.24v29.586H.446z"/><path id="g" d="M.473.532h16.24v29.586H.473z"/></defs><g fill="none" fill-rule="evenodd"><path fill="#FFF" d="M126.518 18.977h-2.074v-1.023h5.23v1.023H127.6v6.298h-1.082zm4.034-.979h.982v2.716a1.781 1.781 0 011.428-.677c1.168 0 1.881.76 1.881 2.02v2.708h-1.01V22.15c0-.769-.371-1.251-1.122-1.251-.658 0-1.168.5-1.168 1.317v2.549h-.991v-6.767zm6.069 3.948h2.781c-.148-.667-.658-1.037-1.371-1.037-.686 0-1.224.426-1.41 1.037m-1.001.52c0-1.363 1.048-2.43 2.41-2.43 1.372 0 2.383.993 2.383 2.365v.39h-3.838c.13.713.686 1.186 1.492 1.186.631 0 1.113-.334 1.354-.835l.816.455c-.408.76-1.14 1.26-2.17 1.26-1.464 0-2.447-1.047-2.447-2.392m5.588-2.335h.992v.732c.25-.473.705-.732 1.354-.732h.444v.946h-.602c-.844 0-1.186.426-1.186 1.39v2.299h-1.002V20.13zm7.119 2.308c0-.825-.621-1.502-1.465-1.502-.825 0-1.465.659-1.465 1.502 0 .844.64 1.511 1.465 1.511.844 0 1.465-.677 1.465-1.511m-3.912.01c0-1.484 1.102-2.411 2.317-2.411.612 0 1.196.268 1.539.695v-.602h.992v4.635h-.992v-.64c-.352.454-.936.733-1.548.733-1.178 0-2.308-.936-2.308-2.41m9.703-.01c0-.843-.639-1.502-1.464-1.502-.844 0-1.465.677-1.465 1.502 0 .834.621 1.511 1.465 1.511.825 0 1.464-.667 1.464-1.511m-2.874 1.752v2.707h-.982V20.13h.982v.649c.344-.455.928-.742 1.549-.742 1.214 0 2.308.927 2.308 2.41 0 1.475-1.13 2.41-2.299 2.41-.64 0-1.224-.24-1.558-.667m5.895.334l-1.92-4.394h1.067l1.353 3.216 1.28-3.216h1.047l-2.8 6.776h-1.02z"/><g transform="translate(0 8.864)"><mask id="b" fill="#fff"><use xlink:href="#a"/></mask><path fill="#FFF" d="M0 17.16l2.892-1.25c.416 1.279 1.418 2.224 2.808 2.224 1.668 0 2.585-1.224 2.585-3.059V.367h3.003v14.514c0 3.809-2.085 6.06-5.533 6.06-2.835 0-4.977-1.528-5.755-3.78" mask="url(#b)"/></g><path fill="#FFF" d="M25.466 22.55c0-2.475-1.862-4.505-4.393-4.505-2.474 0-4.392 1.974-4.392 4.504 0 2.53 1.918 4.532 4.392 4.532 2.53 0 4.393-2.03 4.393-4.532m-11.733.028c0-4.449 3.31-7.229 6.951-7.229 1.835 0 3.587.807 4.616 2.085v-1.807h2.974v13.902H25.3v-1.919c-1.057 1.363-2.809 2.197-4.644 2.197-3.53 0-6.923-2.808-6.923-7.229m22.297 6.228l-5.756-13.179h3.197l4.06 9.648 3.837-9.648h3.142L36.113 35.95h-3.058zm10.091-9.425c0-5.922 4.616-10.426 10.426-10.426 3.837 0 7.173 2.057 8.98 5.115l-2.64 1.641c-1.251-2.336-3.476-3.837-6.34-3.837-4.226 0-7.396 3.336-7.396 7.507 0 4.114 3.17 7.45 7.369 7.45 3.141 0 5.393-1.723 6.561-4.17l2.725 1.446c-1.752 3.393-5.116 5.7-9.259 5.7-6.005 0-10.426-4.67-10.426-10.426m33.139 3.17c0-2.475-1.863-4.505-4.393-4.505-2.474 0-4.393 1.974-4.393 4.504 0 2.53 1.92 4.532 4.393 4.532 2.53 0 4.393-2.03 4.393-4.532m-11.733.028c0-4.449 3.309-7.229 6.95-7.229 1.836 0 3.588.807 4.616 2.085v-1.807h2.976v13.902h-2.976v-1.919c-1.056 1.363-2.808 2.197-4.643 2.197-3.53 0-6.923-2.808-6.923-7.229m17.543-6.951h2.975v2.197c.75-1.418 2.113-2.197 4.06-2.197h1.333v2.836h-1.807c-2.53 0-3.558 1.279-3.558 4.17v6.896H85.07V15.626zm12.62 5.45h8.342c-.445-2.002-1.974-3.114-4.115-3.114-2.058 0-3.67 1.279-4.226 3.114m-3.003 1.557c0-4.087 3.142-7.285 7.23-7.285 4.114 0 7.144 2.975 7.144 7.09v1.168h-11.51c.39 2.14 2.058 3.559 4.476 3.559 1.89 0 3.336-1.001 4.06-2.503l2.446 1.363c-1.224 2.28-3.42 3.781-6.506 3.781-4.393 0-7.34-3.142-7.34-7.173"/><g transform="translate(111.783 .176)"><mask id="d" fill="#fff"><use xlink:href="#c"/></mask><path fill="#FFF" d="M10.207 5.53a5.004 5.004 0 11-10.008 0 5.004 5.004 0 0110.008 0" mask="url(#d)"/></g><g transform="translate(99.62 7.127)"><mask id="f" fill="#fff"><use xlink:href="#e"/></mask><path fill="#FFF" d="M1.894 30.118H.446v-2.896h1.448c6.56 0 11.896-5.337 11.896-11.897 0-6.56-5.336-11.897-11.896-11.897H.446V.532h1.448c8.156 0 14.792 6.636 14.792 14.793S10.05 30.118 1.894 30.118" mask="url(#f)"/></g><g transform="translate(117.575 7.127)"><mask id="h" fill="#fff"><use xlink:href="#g"/></mask><path fill="#FFF" d="M16.713 30.118h-1.448C7.11 30.118.473 23.482.473 15.325S7.109.532 15.265.532h1.448v2.896h-1.448c-6.56 0-11.896 5.338-11.896 11.897 0 6.56 5.337 11.897 11.896 11.897h1.448v2.896z" mask="url(#h)"/></g></g></svg>