<svg xmlns="http://www.w3.org/2000/svg" width="80" height="60"><path d="M21.672 9.119v7.934c0 .546 0 .554-.57.554h-4.077c-.476 0-.51-.033-.51-.503 0-2.057 0-4.115-.008-6.172 0-.134-.043-.26-.06-.394-.076.109-.17.21-.229.327a1469.1 1469.1 0 00-3.067 6.356c-.127.277-.289.395-.611.386a53.313 53.313 0 00-2.591 0c-.315.009-.476-.1-.612-.386-1.02-2.132-2.056-4.265-3.084-6.39a2.776 2.776 0 00-.11-.226c-.026-.042-.068-.076-.11-.118-.035.06-.077.11-.086.168-.017.11-.008.227-.008.336v6.045c0 .571 0 .571-.595.571-1.359 0-2.718-.008-4.077.009-.366.008-.493-.118-.493-.479.008-5.357.008-10.713 0-16.07 0-.344.119-.47.467-.47 1.614.008 3.228.017 4.842 0 .357-.008.527.151.68.437a2117.8 2117.8 0 004.018 7.522c.12.227.28.437.425.655.144-.21.314-.42.433-.646a1557.81 1557.81 0 004.018-7.481c.187-.353.408-.504.824-.495 1.512.025 3.033.008 4.545.008.62 0 .62 0 .62.638.026 2.628.026 5.256.026 7.884zm57.275 0v7.935c0 .545 0 .545-.565.545-1.114 0-2.22.009-3.333-.008a.888.888 0 01-.582-.244c-1.257-1.351-2.498-2.728-3.738-4.097-1.08-1.192-2.16-2.393-3.249-3.577-.067-.075-.177-.1-.27-.151-.025.118-.067.235-.067.361 0 2.326 0 4.643-.009 6.969 0 .831.068.756-.742.756-1.334 0-2.675-.009-4.008.008-.346 0-.464-.1-.464-.453.008-5.357.008-10.722 0-16.08 0-.369.118-.495.489-.486 1.114.016 2.22.016 3.333 0 .346-.009.582.117.802.37a566.065 566.065 0 002.953 3.383c1.325 1.52 2.658 3.04 3.983 4.55.05.06.126.085.194.127.025-.093.067-.177.067-.27.009-1.233 0-2.46 0-3.693 0-1.327.009-2.662-.008-3.989-.009-.37.126-.487.49-.487 1.408.017 2.809 0 4.218.009.473 0 .498.033.498.503.008 2.67.008 5.349.008 8.019zM42.57 9.09V1.193c0-.588 0-.596.573-.596 1.097 0 2.194.008 3.291-.008.312-.009.515.117.717.352A419.42 419.42 0 0050.3 4.553c1.198 1.37 2.388 2.747 3.586 4.125.118.134.27.235.405.353.034-.177.101-.361.101-.538.009-2.453 0-4.897.009-7.35 0-.53.017-.538.548-.546h4.135c.464 0 .506.042.506.504 0 5.343 0 10.693.009 16.036 0 .361-.135.487-.498.479-1.156-.017-2.304.008-3.46-.017-.194 0-.43-.118-.565-.26-1.257-1.353-2.498-2.722-3.747-4.091-1.038-1.143-2.067-2.285-3.105-3.428-.067-.075-.126-.16-.21-.201-.051-.017-.186.042-.195.084-.034.117-.017.252-.017.378v6.972c0 .554 0 .554-.557.554h-4.092c-.565 0-.565 0-.565-.554-.017-2.646-.017-5.3-.017-7.963zm-3.55 8.516c-.764 0-1.526-.016-2.29.009-.372.017-.533-.135-.635-.454-.16-.504-.356-1-.517-1.503-.085-.277-.229-.403-.542-.403-1.95.008-3.899.008-5.848 0-.288 0-.432.1-.526.37-.178.562-.39 1.108-.576 1.662-.076.235-.203.328-.458.328-1.61-.009-3.22 0-4.83-.009-.399 0-.416-.033-.263-.411.864-2.184 1.737-4.368 2.61-6.544 1.271-3.183 2.551-6.358 3.806-9.55.152-.395.364-.52.78-.512 1.635.025 3.28.016 4.915 0 .339 0 .5.126.619.428 2.127 5.342 4.254 10.676 6.39 16.018.034.076.06.16.093.235.119.27.009.353-.254.345-.84-.009-1.653-.009-2.475-.009zm-6.925-6.61c.483 0 .958-.009 1.44 0 .246.008.348-.084.263-.328-.508-1.42-1.008-2.839-1.525-4.258-.026-.076-.093-.126-.144-.194-.043.06-.11.118-.136.194-.517 1.42-1.017 2.839-1.534 4.258-.093.252-.008.328.237.328h1.399zm-6.949 25.241c-.994 0-1.98.017-2.973-.008-.289-.008-.408.11-.484.354-.17.506-.374 1.003-.518 1.509-.094.337-.272.43-.612.421-1.528-.016-3.057-.008-4.586-.008-.56 0-.578-.025-.374-.531.934-2.335 1.86-4.662 2.794-6.996 1.198-3.001 2.396-5.994 3.576-8.995.145-.362.34-.497.748-.497 1.656.025 3.312.017 4.968 0 .357 0 .527.127.646.447a8638.94 8638.94 0 006.336 15.914l.102.279c.119.261.076.387-.246.387a496.95 496.95 0 00-4.884 0c-.263 0-.382-.11-.459-.337-.187-.548-.382-1.087-.56-1.627-.077-.236-.204-.32-.467-.32-.994.017-2.005.008-3.007.008zm0-4.35h1.401c.255 0 .374-.075.272-.353l-1.503-4.232c-.026-.076-.094-.135-.136-.194-.043.06-.11.118-.136.186-.51 1.424-1.02 2.849-1.537 4.265-.094.253-.009.337.246.337.459-.008.926-.008 1.393-.008zm47.256-11.175c1.502.059 3.337.328 4.942 1.437 1.118.774 1.8 1.833 2.16 3.127.076.286-.027.395-.274.446-1.502.303-3.004.588-4.498.9-.341.067-.35-.169-.41-.345-.324-.917-.964-1.488-1.954-1.58-.435-.043-.905.041-1.323.176a1.06 1.06 0 00-.7 1.093c.051.454.35.748.896.89 1.238.312 2.475.606 3.704.934 1.187.32 2.313.756 3.278 1.555a3.875 3.875 0 011.4 2.42c.29 1.665-.043 3.178-1.212 4.447-.888.967-1.998 1.589-3.286 1.908-2.458.614-4.874.547-7.204-.462-1.69-.731-2.996-1.866-3.55-3.673 0-.017-.009-.025-.017-.042-.197-.681-.197-.69.512-.832 1.408-.27 2.808-.522 4.216-.782.316-.059.503-.017.623.344.546 1.631 2.339 2.001 3.593 1.53.23-.084.47-.243.615-.428.46-.597.162-1.312-.649-1.555-.58-.177-1.186-.286-1.775-.446-1.118-.294-2.262-.538-3.354-.916-1.588-.555-2.826-1.538-3.227-3.245-.58-2.488.325-4.942 3.158-6.153 1.144-.479 2.501-.748 4.336-.748zM15.473 32.731c.129 2.485-1.658 4.4-3.83 5.138-2.719.923-5.454.881-8.105-.294-1.71-.755-2.975-1.948-3.462-3.794-.137-.53-.137-.538.419-.638l4.309-.806c.342-.067.547-.034.684.36.547 1.579 2.316 1.999 3.616 1.495.522-.201.804-.596.787-1.04-.018-.446-.308-.79-.89-.941-1.265-.327-2.547-.588-3.796-.94a12.17 12.17 0 01-2.222-.831c-1.317-.672-2.19-1.738-2.386-3.224-.23-1.746.094-3.34 1.47-4.6.873-.806 1.916-1.301 3.07-1.57 2.3-.537 4.574-.453 6.771.445 1.676.689 2.83 1.889 3.343 3.635.137.479.12.52-.368.613-1.419.285-2.838.554-4.257.856-.317.067-.428-.017-.513-.285-.308-.94-.966-1.528-1.967-1.612-.444-.042-.931.05-1.359.201-.513.185-.684.605-.624 1.159.06.487.419.68.83.78 1.239.32 2.487.597 3.71.95.76.217 1.513.494 2.223.839 1.71.847 2.624 2.216 2.547 4.104zm34.063-2.735v-7.894c0-.616 0-.616.653-.616h12.467c.62 0 .628 0 .628.6 0 1.072-.017 2.135.009 3.207.008.372-.131.482-.506.482-2.415-.017-4.821-.009-7.236-.009-.61 0-.619 0-.619.583v1.182c.009.532.018.548.558.548h6.539c.549 0 .549 0 .549.54v2.702c0 .608 0 .608-.654.608h-6.408c-.575 0-.584.008-.584.566 0 .422.018.844-.009 1.266-.017.371.131.481.515.481 2.458-.008 4.908-.008 7.366-.008.654 0 .654 0 .654.65 0 1.055-.008 2.11.01 3.166.008.346-.114.464-.472.464a3124.82 3124.82 0 00-12.99 0c-.41 0-.47-.169-.47-.507.008-2.667 0-5.335 0-8.011zM9.333 41.61c2.37.084 4.518.737 6.361 2.235a7.056 7.056 0 011.98 2.528c.101.218.11.335-.188.402-1.57.343-3.134.703-4.705 1.055-.238.05-.382-.017-.535-.218-.654-.829-1.529-1.214-2.59-1.306-2.293-.2-3.958 1.482-4.298 3.29-.45 2.42.918 4.688 3.287 5.073 1.427.235 2.7-.134 3.593-1.356.212-.293.407-.368.772-.276 1.478.351 2.965.686 4.46.996.373.075.39.21.254.51-.73 1.708-1.945 2.99-3.626 3.768-3.015 1.39-6.107 1.523-9.113.058-2.76-1.34-4.46-3.574-4.892-6.605-.705-4.972 2.7-8.982 7.1-9.886.705-.134 1.427-.176 2.14-.268zm27.045-11.614v-7.92c0-.581.008-.59.59-.59h4.128c.514 0 .539.025.539.557v11.25c0 .768 0 .768.758.768h5.055c.514 0 .53.017.53.514 0 1.156-.008 2.303.01 3.458.008.371-.119.48-.49.48-3.538-.008-7.068-.008-10.606-.008-.489 0-.506-.025-.506-.54-.008-2.656-.008-5.313-.008-7.97zm-3.871 17.448c.016 3.16-2.602 5.735-5.71 5.775-3.19.04-5.8-2.446-5.896-5.59-.105-3.402 2.522-5.928 5.638-6.017 3.454-.096 6.024 2.72 5.968 5.832zm-3.35-.04c-.048-1.324-1.052-2.407-2.473-2.439-1.31-.024-2.458 1.171-2.45 2.47.016 1.316 1.165 2.447 2.474 2.44 1.317-.017 2.458-1.164 2.45-2.471zM27.071 58.63h-6.339c-.582 0-.608-.044-.608-.534 0-1.603 1.613-2.583 3.138-2.554 2.593.045 5.193.015 7.794.015 1.622 0 3.06 1.121 2.998 2.754-.018.334-.273.327-.547.327-2.151-.008-4.293-.008-6.436-.008z" fill="#FFF"/></svg>