<svg xmlns="http://www.w3.org/2000/svg" xmlns:xlink="http://www.w3.org/1999/xlink" width="107" height="58"><defs><path id="a" d="M.007.156h18.011v32.02H.007z"/><path id="c" d="M0 .057h22.178v26.675H0z"/></defs><g fill="none" fill-rule="evenodd"><path fill="#FFF" fill-rule="nonzero" d="M7.488 46.789h1.756c1.146 0 1.928-.67 1.928-1.721 0-1.09-.782-1.74-1.928-1.74H7.488v3.46zm2.062 2.6H7.47v4.876H4.453V40.708H9.55c2.748 0 4.638 1.817 4.638 4.34 0 2.563-1.89 4.341-4.638 4.341zm8.723 4.876H15.37V40.422h2.902v13.843zm1.412-2.62c0-1.682 1.24-2.638 2.806-2.868l2.233-.344c.515-.076.687-.325.687-.65 0-.554-.477-1.032-1.393-1.032-1.012 0-1.565.688-1.623 1.395l-2.52-.516c.115-1.357 1.375-3.155 4.162-3.155 3.073 0 4.199 1.721 4.199 3.671v4.647c0 .745.095 1.376.114 1.472h-2.615c-.019-.076-.095-.42-.095-1.07-.496.802-1.412 1.338-2.672 1.338-2.08 0-3.283-1.377-3.283-2.888zm3.99.784c.858 0 1.736-.42 1.736-1.893v-.42l-1.794.287c-.61.095-1.069.382-1.069 1.051 0 .497.324.975 1.126.975zm5.744-.86l2.462-.44c.039.65.497 1.281 1.49 1.281.744 0 1.106-.401 1.106-.822 0-.344-.229-.63-.935-.784l-1.088-.248c-2.023-.44-2.825-1.587-2.825-2.926 0-1.74 1.527-3.155 3.646-3.155 2.748 0 3.703 1.721 3.798 2.83l-2.405.44c-.076-.631-.477-1.167-1.355-1.167-.554 0-1.03.326-1.03.823 0 .401.324.63.744.707l1.26.249c1.965.401 2.92 1.587 2.92 2.983 0 1.625-1.24 3.212-3.78 3.212-2.977 0-3.931-1.931-4.008-2.983zm12.674-9.58v2.773h1.851v2.543h-1.851v3.557c0 .783.42.994 1.05.994.305 0 .591-.058.763-.096v2.41c-.114.057-.591.267-1.508.267-1.966 0-3.168-1.166-3.168-3.06v-4.072h-1.68v-2.543h.477c.993 0 1.47-.67 1.47-1.549V41.99h2.596zm6.337 12.276h-2.901v-9.503h2.9v9.503zm-3.15-12.41c0-.936.764-1.701 1.68-1.701.954 0 1.718.765 1.718 1.702 0 .937-.764 1.701-1.718 1.701-.916 0-1.68-.764-1.68-1.701zm9.582 5.297c-1.202 0-2.176.841-2.176 2.371 0 1.51 1.012 2.352 2.214 2.352 1.126 0 1.756-.708 1.966-1.415l2.558.784c-.42 1.663-1.985 3.308-4.524 3.308-2.825 0-5.096-2.084-5.096-5.029 0-2.964 2.214-5.048 5-5.048 2.616 0 4.143 1.606 4.563 3.308l-2.596.784c-.21-.727-.783-1.415-1.909-1.415zm7.883 10.746H60.97v-12.83h1.737v1.434c.496-.918 1.584-1.644 3.073-1.644 2.748 0 4.218 2.122 4.218 4.799 0 2.734-1.584 4.857-4.275 4.857-1.413 0-2.482-.67-2.978-1.492v4.876zm5.42-8.241c0-1.836-1.03-3.212-2.71-3.212-1.641 0-2.73 1.376-2.73 3.212 0 1.893 1.089 3.25 2.73 3.25 1.66 0 2.71-1.357 2.71-3.25zm5.44 4.608h-1.794V40.422h1.794v13.843zm2.005-2.467c0-1.644 1.202-2.562 2.786-2.791l2.482-.363c.553-.077.706-.364.706-.689 0-.899-.592-1.644-1.985-1.644-1.26 0-1.966.784-2.08 1.854l-1.719-.401c.191-1.76 1.775-2.983 3.76-2.983 2.749 0 3.818 1.568 3.818 3.365v4.609c0 .803.076 1.28.114 1.51h-1.756c-.038-.23-.095-.574-.095-1.243-.4.65-1.317 1.53-2.958 1.53-1.871 0-3.073-1.3-3.073-2.754zm3.32 1.243c1.47 0 2.654-.707 2.654-2.715v-.42l-2.806.42c-.764.115-1.336.555-1.336 1.377 0 .688.572 1.338 1.489 1.338zm10.613-6.596c-1.45 0-2.787 1.07-2.787 3.212 0 2.103 1.317 3.231 2.806 3.231 1.718 0 2.348-1.166 2.558-1.893l1.584.689c-.44 1.32-1.756 2.868-4.142 2.868-2.672 0-4.638-2.103-4.638-4.895 0-2.868 2.004-4.876 4.619-4.876 2.443 0 3.703 1.53 4.085 2.926l-1.623.688c-.229-.899-.897-1.95-2.462-1.95zm6.852 2.275h5.02c-.038-1.32-.897-2.352-2.52-2.352-1.507 0-2.423 1.167-2.5 2.352zm5.287 2.39l1.546.535c-.515 1.626-1.985 2.907-4.122 2.907-2.463 0-4.62-1.797-4.62-4.914 0-2.887 2.081-4.857 4.39-4.857 2.825 0 4.41 1.95 4.41 4.819 0 .229-.02.458-.039.573h-6.91c.04 1.645 1.222 2.792 2.769 2.792 1.488 0 2.233-.822 2.576-1.855z"/><g transform="translate(23.149 .003)"><mask id="b" fill="#fff"><use xlink:href="#a"/></mask><path fill="#FFF" d="M9.34 32.175l-1.294-.012c-1.683-.012-3.372.068-5.044-.066-.757-.06-1.305-.232-2.042-.529-.125-.037-.215-.387-.221-.429-.078-.513-.079-1.053-.242-1.537-.824-2.434-.357-4.933-.369-7.397-.022-4.696.103-9.392.165-14.089.006-.423-.1-.883.034-1.259.13-.366.468-.685.776-.953.436-.379.916-.712 1.401-1.028.443-.288.897-.583 1.385-.771a9.22 9.22 0 011.827-.493c.734-.12 1.486-.129 2.226-.218.149-.017.483-.116.421-.275-.071-.184-.277-.233-.415-.35-.229-.197-.502-.363-.666-.604-.077-.113.098-.373.089-.564-.014-.275-.115-.545-.13-.82-.008-.158.076-.456.128-.458.27-.011.541.056.813.09.197.026.341.512.585.185.516-.756 1.66-.447 2.36.215.41.387.395.608.133 1.018-.052.08.183.159.203.405.031.391-.236.746-.342 1.126-.071.11-.085.132-.05.186.055.083.122.07.185.074 1.099.07 2.215.042 3.29.243.501.094.946.6 1.371.97.447.392.895.807 1.235 1.288.202.287.196.721.28 1.09a.557.557 0 01.007.184c-.03.27-.096.542-.092.812.004.295.095.588.106.883.038 1.012.083 2.026.072 3.039-.005.429-.22.859-.207 1.284.033 1.106.223 2.211.195 3.313a86.521 86.521 0 01-.232 4.557c.038.002-.028.096.01.099 0 1.373-.062 2.75.029 4.118.039.592.449 1.15.585 1.747.116.51.087 1.054.111 1.584.007.15 0 .307-.04.45-.127.463-.132 1.118-.44 1.335-.57.403-.878 1.16-1.826 1.146-1.274-.018-2.552.245-3.829.394l-2.54.017z" mask="url(#b)"/></g><g transform="translate(0 5.89)"><mask id="d" fill="#fff"><use xlink:href="#c"/></mask><path fill="#FFF" d="M1.578 26.171c-.289-.506-.144-1.398-.225-1.976-.126-.902-.574-2.684-.702-3.586-.071-.498.05-1.015-.025-1.506-.084-.548-.288-1.077-.437-1.615a.913.913 0 01-.034-.235c-.003-.665.018-1.33-.008-1.994-.017-.423-.158-.844-.146-1.264.024-.888.094-1.776.182-2.66.035-.352.167-.695.251-1.043.074-.306.137-.615.217-.919.06-.23.113-.47.22-.68a26.95 26.95 0 01.838-1.539c.174-.296.349-.618.602-.835.333-.284.75-.468 1.12-.713l1.524-1.128c.316-.154.373-.227.704-.346.364-.131 1.098-.387 1.478-.461.134-.027.537-.136.67-.173-.154-.194-.276-.497-.47-.554-.239-.07-.537.07-.81.11-.02.003-.074-.07-.075-.11-.007-.242.457-.61.457-.61l.059-.348c.187-.643.266-.85.96-.86.074 0 .369.008.443-.011l.295-.183c.187-.08.195-.28.384-.389.13-.074.506.003.585-.125.025-.04-.1-.084-.064-.177.123-.314.495-.117.874-.179.05-.008.406.04.432.105.114.293 0 .56.11.853.02.052.217.153.263.194-.005-.05.083-.21.119-.243.079-.076.369.233.369.233l.077.987c.004.167.004.167-.08.271-.037.047-.185.101-.243.164-.085.094-.164.243-.137.368.023.1.179.13.274.14.818.082 1.638.15 2.458.225a.664.664 0 01.185.077s1.19.369 1.64.616c.05.027.107.08.16.123.029.024.058.077.082.075.978-.094 1.472.672 2.106 1.187.356.289.74.551 1.046.886.178.195.228.51.332.772.102.257.195.518.3.775.11.265.241.522.342.791.11.296.221.595.289.902.092.422.143.852.212 1.278l.434 3.072c.093.785.287 1.559.43 2.339.094.506.217 1.01.256 1.521.092 1.192.44 2.444.186 3.582-.044.195-.4.248-.45.51-.25.576-.445 1.176-.66 1.768l-.105.28s-.076.691-.208 1.177c-.179.173-.357.286-.174.42.186.137-.44.434-.649.532-.215.1-.384.195-.613.198-1.396.017-2.792.008-4.188.01-1.558 0-3.115-.029-4.672.007-2.594.06-5.26.859-7.78.244-.297-.073-.859-.065-1.01-.33" mask="url(#d)"/></g><path fill="#FFF" d="M89.97 30.571c-.483-.172-.953-.382-1.429-.578-.202-.084-.41-.154-.603-.256-.548-.288-1.1-.573-1.626-.896a1.08 1.08 0 01-.42-.5c-.185-.49-.397-.992-.448-1.504-.125-1.246-.163-2.5-.238-3.752-.072-1.195-.122-2.393-.228-3.585l-.235-2.835c0-.853-.045-1.71.02-2.558.032-.428.268-.839.405-1.259a.76.76 0 00.042-.282c-.054-.74.453-1.017.997-1.318.301-.168.499-.514.783-.725.228-.168.505-.312.78-.363.96-.177 1.93-.303 2.892-.475.051-.01.053-.269.087-.41.055-.23.078-.48.191-.677.064-.111.282-.185.431-.186.465-.002.528-.152.364-.583-.046-.119.292-.409.485-.586a.653.653 0 01.414-.165c.18.004.364.143.537.128.114-.01.313-.195.304-.288-.044-.508-.088-1.028-.234-1.514-.166-.556-.456-1.074-.643-1.625-.026-.075.096-.488.197-.488.704 0 1.496.406 2.155.59.465.13.977.238 1.35.515.417.31 1.172.177 1.253.979.039.377 1.185.607 1.518.352.384-.293 1.49-.085 1.8.283.475.568.309.997-.142 1.49-.375.41-.592.965-.975 1.363-.168.175-.574.115-.87.17-.068.014-.128.064-.192.097.058.029.114.065.174.087.847.3 1.694.601 2.543.894.488.168.978.327 1.47.479.342.105.721.133 1.025.302.408.228.791.525 1.125.853.291.289.506.658.743 1 .28.403.576.8.81 1.23.168.31.303.662.348 1.01.057.425.016.866-.003 1.3-.075 1.713-.148 3.427-.244 5.14-.038.666-.11 1.333-.21 1.993-.138.919-.317 1.831-.477 2.747-.073.416-.131.835-.217 1.248-.057.279-.118.566-.236.821-.282.611-.867.8-1.447 1.007-.416.15-.807.37-1.21.556-.25.117-.514.21-.75.35-.438.259-.862.542-1.287.822-.125.083-.22.236-.353.278-.778.245-1.55.536-2.347.677l-1.328.022c-.474-.006-.951.028-1.422-.013a11.735 11.735 0 01-1.498-.244 16.853 16.853 0 01-1.584-.427l-2.347-.69zM60.41 16.944c.19 1.058.086 2.13.191 3.2.051.518.168 1.031.248 1.548.151.982.29 1.967.45 2.948.118.73.225 1.466.404 2.182.133.527.342 1.043.576 1.536.292.612.621 1.21.982 1.784.156.248.408.46.66.615.254.158.566.216.843.34.053.023.094.155.08.225-.013.063-.1.137-.169.158-.987.299-1.968.628-2.97.865-.504.12-1.049.068-1.837.106-1.103-.158-2.454-.367-3.81-.539-1.229-.155-2.462-.378-3.693-.38-2.87-.005-5.74.156-8.61.137-.777-.005-1.552-.41-2.326-.639-.032-.01-.074-.113-.063-.125.175-.186.341-.386.543-.538.734-.552 1.429-1 2.166-1.547.307-.279.223-.484.228-.557.082-1.154.044-2.048.164-3.198.135-1.298.34-2.59.511-3.884.132-1.003.25-2.007.389-3.008.137-.988.223-1.99.463-2.953.235-.944.807-1.726 1.624-2.288.987-.68 1.929-1.49 3.271-1.233.06.01.351-.02.205-.107-.063-.037-.128-.076-.198-.094-.615-.152-1.238-.28-1.84-.475-.08-.025-.145-.464-.052-.59.388-.524.866-.763 1.513-.897.465-.348.074-1.392.65-1.299.69.364.697-.548.957-.494.513.107.982.44 1.463.69.217.113.445.224.62.388.166.155.422.449.371.557-.253.547.161.816.379 1.18.153.254.25.541.402.796.044.073.225.148.282.115.816-.462 1.39.214 2.041.45.41.15.874.376 1.12.71.604.82 1.273 1.539 1.406 2.765.043.396.297 1.158.367 1.55m14.092-5.278c.757.093 1.532.119 2.265.305.448.114.83.481 1.246.726.335.196.735.32 1.006.581.467.45.824 1.013 1.284 1.471.762.76.769 1.73.927 2.694.1.61.486 1.171.744 1.754.022.048.056.096.061.146.167 1.643.392 3.284.474 4.931.05.993.046 2.05-.25 2.978-.236.738-.908 1.363-1.469 1.961-.406.434-.938.754-1.434 1.096-.184.128-.417.199-.638.255-1.002.255-2.014.474-3.01.75-.532.147-1.03.511-1.56.552-.86.067-1.736-.05-2.605-.094-.297-.015-.62.027-.885-.076-.615-.24-1.197-.563-1.803-.83-.276-.12-.604-.139-.86-.287a13.365 13.365 0 01-1.577-1.047 7.803 7.803 0 01-1.204-1.176c-.268-.328-.454-.735-.623-1.13a38.664 38.664 0 01-.817-2.1 4.98 4.98 0 01-.227-.928 39.667 39.667 0 01-.294-2.182c-.094-.952-.26-1.916-.19-2.86.06-.788.472-1.543.625-2.332.199-1.026 1.11-1.434 1.683-2.132.397-.482.822-.962 1.314-1.335.351-.266.824-.412 1.265-.508.868-.189 1.752-.304 2.628-.455.038-.006.157-.019.1-.097-.041-.056-.118-.079-.183-.102-.17-.06-.491-.118-.489-.161.017-.263.223-.413.185-.678-.025-.169.204-.306.208-.418.025-.828.92-.851 1.065-.85.485.005.622-.738.81-.805.039-.014.11-.033.12-.018.094.138.213.273.258.428.183.634.339 1.276.52 1.911.014.05.145.092.222.094.367.01.324.005.69.005.004-.012.34-.021.418-.037"/></g></svg>