<svg xmlns="http://www.w3.org/2000/svg" xmlns:xlink="http://www.w3.org/1999/xlink" width="140" height="60"><defs><path id="a" d="M0 59.715h139.65V0H0z"/></defs><g fill="none" fill-rule="evenodd"><path fill="#FEFEFE" d="M8.409 24.652a3.148 3.148 0 00-.909-1.156 4.11 4.11 0 00-1.345-.687 5.714 5.714 0 00-1.65-.232H1.1v7.557h3.71c1.17 0 2.119-.33 2.843-.99.725-.66 1.086-1.612 1.086-2.857 0-.622-.11-1.17-.33-1.635zM9.452 41.07l-6.239-9.81H1.1v9.81H0V21.449h4.534a6.87 6.87 0 012.088.315c.66.211 1.227.523 1.704.936a4.54 4.54 0 011.14 1.526c.285.603.426 1.299.426 2.086 0 .863-.134 1.605-.399 2.228a3.977 3.977 0 01-1.127 1.538 4.72 4.72 0 01-1.718.893 7.686 7.686 0 01-2.17.29l6.292 9.81H9.452z"/><mask id="b" fill="#fff"><use xlink:href="#a"/></mask><path fill="#FEFEFE" d="M13.218 41.07h1.125V29.723h-1.125v11.349zm.576-13.384c-.202 0-.411-.082-.633-.247-.165-.164-.256-.383-.274-.658 0-.494.302-.798.907-.907.458 0 .759.302.906.907 0 .605-.3.905-.906.905zm8.574 13.88l-5.36-11.844h1.209l4.122 9.04 4.15-9.04h1.264zm15.637-10.005c-.863-.622-1.85-.933-2.967-.933-2.347 0-3.886 1.155-4.618 3.463h9.205c-.182-1.045-.722-1.887-1.62-2.53zm-7.751 3.6c0 1.54.413 2.76 1.238 3.657.86.916 2.043 1.374 3.546 1.374.77 0 1.464-.129 2.086-.386.79-.33 1.494-.999 2.119-2.006l1.016.467c-.716 1.356-1.814 2.272-3.3 2.748-.567.183-1.209.276-1.921.276-1.705 0-3.106-.559-4.206-1.677-1.118-1.118-1.676-2.519-1.676-4.204 0-1.705.55-3.106 1.649-4.204 1.117-1.119 2.528-1.677 4.233-1.677 1.685 0 3.077.522 4.176 1.567 1.116 1.043 1.677 2.4 1.677 4.065H30.254zm18.606-3.764a3.994 3.994 0 00-.937-.523 2.875 2.875 0 00-1.042-.191c-.312 0-.606.095-.879.288a2.928 2.928 0 00-.716.716c-.2.282-.361.599-.48.948-.12.347-.178.669-.178.96v7.476h-1.127V29.722h1.127v1.539c.236-.422.547-.807.934-1.156.385-.347.805-.522 1.263-.522.569 0 1.034.064 1.403.193.365.129.778.358 1.236.687l-.605.934zm18.382 8.52c-1.025.751-2.417 1.21-4.175 1.374a13.42 13.42 0 01-.659.04c-.24.01-.486.013-.744.013-2.966 0-5.385-.934-7.253-2.801-1.888-1.886-2.83-4.316-2.83-7.282 0-2.97.933-5.387 2.801-7.257 1.888-1.885 4.316-2.83 7.282-2.83 1.685 0 3.206.247 4.562.742.807.313 1.585.76 2.336 1.348v1.4a9.958 9.958 0 00-2.527-1.538 11.488 11.488 0 00-4.371-.852c-2.601 0-4.745.843-6.43 2.528-1.685 1.686-2.526 3.838-2.526 6.46 0 2.618.831 4.762 2.5 6.43 1.684 1.684 3.837 2.527 6.456 2.527 1.632 0 3.052-.293 4.262-.879.694-.349 1.574-.908 2.636-1.678v1.292l-1.32.963zM79.44 32.03c-.916-.934-2.043-1.403-3.377-1.403-1.285 0-2.393.477-3.328 1.43-.952.954-1.428 2.07-1.428 3.353 0 1.3.467 2.417 1.403 3.353.934.933 2.05 1.4 3.353 1.4 1.316 0 2.434-.457 3.35-1.373.936-.934 1.401-2.061 1.401-3.38 0-1.337-.458-2.464-1.374-3.38m.798 7.529c-1.136 1.136-2.528 1.703-4.175 1.703-1.65 0-3.035-.558-4.151-1.675-1.136-1.135-1.703-2.53-1.703-4.177 0-1.63.567-3.015 1.703-4.15 1.116-1.155 2.5-1.731 4.15-1.731 1.629 0 3.013.569 4.148 1.703 1.138 1.136 1.705 2.528 1.705 4.178 0 1.648-.56 3.032-1.677 4.149m8.878-8.162a4.02 4.02 0 00-.934-.523 2.884 2.884 0 00-1.045-.191c-.311 0-.605.095-.88.288a2.986 2.986 0 00-.714.716 3.66 3.66 0 00-.481.948 3.016 3.016 0 00-.179.96v7.476h-1.125V29.722h1.125v1.539c.24-.422.551-.807.936-1.156.384-.347.805-.522 1.265-.522.565 0 1.034.064 1.399.193.368.129.78.358 1.238.687l-.605.934zm9.814.164c-.863-.622-1.85-.933-2.969-.933-2.346 0-3.886 1.155-4.616 3.463h9.205c-.182-1.045-.723-1.887-1.62-2.53zm-7.751 3.6c0 1.54.413 2.76 1.236 3.657.862.916 2.043 1.374 3.546 1.374.768 0 1.466-.129 2.088-.386.787-.33 1.492-.999 2.115-2.006l1.02.467c-.716 1.356-1.815 2.272-3.3 2.748a6.286 6.286 0 01-1.923.276c-1.703 0-3.106-.559-4.204-1.677-1.119-1.118-1.678-2.519-1.678-4.204 0-1.705.55-3.106 1.649-4.204 1.118-1.119 2.53-1.677 4.233-1.677 1.684 0 3.08.522 4.178 1.567 1.116 1.043 1.674 2.4 1.674 4.065H91.18zM15.751 50.605v1.41c-.982-.484-1.885-.723-2.712-.723-1.059 0-1.95.342-2.677 1.027-.724.683-1.087 1.522-1.087 2.519 0 1.016.372 1.863 1.113 2.54.742.68 1.67 1.02 2.787 1.02.812 0 1.671-.254 2.576-.765v1.424a5.61 5.61 0 01-2.683.658c-1.412 0-2.62-.477-3.622-1.435-1.001-.955-1.502-2.107-1.502-3.456 0-1.326.493-2.46 1.478-3.403.985-.945 2.172-1.417 3.56-1.417.893 0 1.816.2 2.77.6m10.745 2.18l-1.46 3.253h2.934l-1.474-3.253zm.004-2.845l4.304 9.468h-1.306l-1.06-2.333h-3.867l-1.045 2.333h-1.296l4.27-9.468zm12.835 1.439v3.192c.934-.011 1.628-.144 2.079-.397.45-.255.676-.666.676-1.228 0-.426-.172-.79-.512-1.102-.34-.311-1.088-.465-2.243-.465zm-1.231-1.088h1.832c1.034 0 1.871.243 2.504.73.634.486.952 1.12.952 1.896 0 .784-.336 1.439-1.005 1.968-.67.53-1.689.788-3.052.773v3.75h-1.231V50.29zm12.876 9.117h1.231V50.29h-1.23zm8.539-9.117h5.576v1.245H62.92v7.872h-1.231v-7.872H59.52zm15.945 2.494l-1.457 3.253h2.931l-1.474-3.253zm.004-2.845l4.304 9.468H78.47l-1.057-2.333h-3.868l-1.049 2.333H71.2l4.27-9.468zm11.493.351h1.231v7.887h2.97v1.23h-4.201z" mask="url(#b)"/><path fill="#FFF" d="M111.076 2.882c8.659-5.484 20.127-2.91 25.613 5.754 0 0-3.85.352-8.935 5.074-.952.883-1.872 1.714-2.762 2.494-16.206 6.015-20.11 11.42-20.11 11.42.16.295.336.581.515.864l-.075.01c-5.486-8.662-2.91-20.13 5.754-25.616" mask="url(#b)"/><path fill="#FFF" d="M124.991 16.204c1.131-.42 2.319-.841 3.572-1.267 6.576-2.224 8.72-5.441 8.72-5.441 5.006 8.948 1.81 20.259-7.135 25.265-8.656 4.84-19.52 2.01-24.75-6.273.74-.13 7.331-1.533 19.593-12.284" mask="url(#b)"/><path fill="#FEFEFE" d="M124.991 16.204c-12.262 10.75-18.853 12.153-19.594 12.284-.179-.283-.354-.57-.515-.864 0 0 3.903-5.405 20.11-11.42" mask="url(#b)"/></g></svg>