<svg xmlns="http://www.w3.org/2000/svg" xmlns:xlink="http://www.w3.org/1999/xlink" width="93" height="75"><defs><path id="a" d="M.134.273h15.737v22.258H.134z"/><path id="c" d="M.066.326h20.288V24.31H.066z"/></defs><g fill="none" fill-rule="evenodd"><path fill="#FEFEFE" d="M11.566 60.813c-.285.027-.427-.123-.427-.452 0-.15.037-.319.11-.503l.444-1.044a1.42 1.42 0 00.11-.51c0-.332-.147-.486-.442-.456-.2.02-.419.14-.656.359-.238.22-.414.475-.53.768l-.886 2.066a1.33 1.33 0 00-.113.498c0 .326.148.473.443.445l5.318-.522c.285-.027.428.125.428.455 0 .151-.037.32-.111.506l-1.757 4.138a2.05 2.05 0 01-.53.753c-.238.217-.461.336-.673.356L1.659 68.712c-.284.029-.427-.122-.427-.453 0-.15.037-.32.111-.507l.87-2.069c.126-.287.306-.537.538-.754.232-.216.454-.334.665-.354l3.798-.37c.295-.032.444.122.444.453 0 .153-.043.323-.128.51l-.427 1.031c-.084.19-.126.36-.126.514 0 .332.146.484.44.457.21-.023.43-.141.66-.36.232-.215.41-.47.536-.762l.877-2.062c.086-.186.13-.354.13-.505 0-.33-.148-.48-.444-.45l-5.317.52c-.296.03-.443-.12-.443-.451 0-.152.042-.32.126-.508l1.742-4.137c.126-.287.305-.538.537-.755.232-.216.454-.334.665-.354l10.636-1.043c.295-.03.442.121.442.452 0 .153-.042.321-.126.507l-.87 2.069a2.051 2.051 0 01-.531.754c-.238.217-.462.335-.672.356l-3.799.372zm10.764-1.045a1.135 1.135 0 00-.142.505c0 .327.148.476.444.448.21-.021.432-.14.664-.354.232-.215.412-.467.538-.754l.87-2.062a1.38 1.38 0 00.111-.504c0-.33-.141-.482-.425-.454-.21.02-.43.138-.661.354a2.28 2.28 0 00-.535.754l-.863 2.067zm-.805 2.34a2.09 2.09 0 00-.523.752l-.886 2.066a1.368 1.368 0 00-.112.505c0 .33.143.48.428.452.21-.02.434-.139.672-.355.237-.215.414-.466.53-.754l.443-1.032a2.07 2.07 0 01.53-.758c.238-.217.462-.336.673-.357l3.798-.372c.285-.028.428.123.428.454 0 .151-.038.32-.112.507l-.886 2.068c-.116.287-.292.54-.53.754-.237.218-.456.334-.657.355l-10.635 1.041c-.296.03-.443-.12-.443-.45 0-.152.037-.32.111-.505l3.957-9.302a2.05 2.05 0 01.53-.754c.237-.216.461-.334.672-.354l10.636-1.042c.285-.029.427.123.427.453 0 .152-.037.32-.111.506l-1.757 4.138a2.045 2.045 0 01-.53.754c-.237.216-.46.334-.672.355l-5.316.522c-.212.02-.434.138-.665.353zm15.898-3.83c-.295.029-.443-.123-.443-.453 0-.154.037-.323.111-.51l.444-1.038c.073-.187.11-.356.11-.509 0-.33-.142-.483-.427-.455-.21.02-.432.14-.662.36-.232.22-.41.475-.537.768l-3.07 7.226a1.352 1.352 0 00-.115.506c0 .328.143.48.427.451.211-.02.435-.139.673-.353a2.05 2.05 0 00.53-.753l1.316-3.097c.126-.29.306-.545.537-.763.233-.216.454-.335.666-.357l3.796-.372c.295-.029.443.122.443.452 0 .153-.042.322-.127.51l-1.756 4.136c-.116.287-.293.54-.53.755-.238.215-.457.333-.657.353l-10.635 1.042c-.296.03-.443-.12-.443-.45 0-.152.036-.32.11-.509l3.956-9.298c.117-.287.294-.538.53-.754.238-.216.462-.334.673-.356l10.635-1.042c.286-.029.428.123.428.453 0 .152-.037.321-.11.507l-.887 2.07a2.047 2.047 0 01-.53.754c-.238.217-.456.335-.657.354l-3.799.372zm18.454-5.775c.286-.027.428.124.428.454 0 .15-.037.32-.11.506l-3.957 9.301a2.049 2.049 0 01-.531.754c-.237.216-.456.333-.657.352l-10.635 1.043c-.295.029-.443-.123-.443-.452 0-.152.037-.32.111-.506l3.956-9.3c.117-.287.293-.538.53-.754.238-.215.462-.334.673-.354l3.799-.373c.284-.027.427.125.427.458 0 .153-.036.324-.107.512l-3.514 8.258a1.359 1.359 0 00-.113.506c0 .33.142.48.426.453.211-.02.435-.139.673-.355.237-.216.415-.467.53-.753l3.514-8.27a2.05 2.05 0 01.53-.752c.238-.216.462-.335.672-.355l3.798-.373zm13.015-1.275c.284-.03.427.123.427.454 0 .15-.036.32-.111.506l-.886 2.071a2.052 2.052 0 01-.53.755c-.238.216-.457.334-.657.354l-3.799.373c-.295.028-.443-.123-.443-.452 0-.15.037-.32.111-.505l.444-1.034a1.39 1.39 0 00.11-.505c0-.33-.142-.481-.427-.452-.211.02-.432.138-.664.353a2.254 2.254 0 00-.537.755l-3.522 8.256a2.056 2.056 0 01-.53.755c-.236.217-.456.334-.655.354l-3.794.37c-.296.03-.442-.12-.442-.45 0-.151.036-.32.11-.507l3.956-9.3c.117-.287.294-.538.532-.753.236-.216.46-.336.67-.355l10.637-1.043z"/><g transform="translate(76.422 44.816)"><mask id="b" fill="#fff"><use xlink:href="#a"/></mask><path fill="#FEFEFE" d="M15.743.385c-.13-.096-.321-.13-.576-.103L3.54 1.405a1.9 1.9 0 00-.49.123c-.348.136-.57.315-.663.533L1.188 4.888c-.064.15-.031.274.097.37.13.097.321.13.575.103l3.242-.313L.372 16.27a2.788 2.788 0 00-.238 1.137c0 .207.033.375.096.507l2.089 4.434c.063.13.142.192.237.183.18-.018.348-.213.507-.586l7.041-16.737c.114-.259.273-.487.472-.687l2.914-.28c.166-.02.329-.062.49-.124.349-.137.569-.315.662-.535L15.841.754c.062-.148.03-.272-.098-.369" mask="url(#b)"/></g><path fill="#FEFEFE" d="M66.807 62.38c-.296.028-.443-.123-.443-.453 0-.15.036-.319.11-.505l5.506-13.13c.116-.286.293-.538.53-.753.238-.216.456-.335.656-.354l3.8-.373c.295-.028.442.123.442.453 0 .15-.037.32-.11.505L71.792 60.9a2.053 2.053 0 01-.53.754c-.238.215-.456.333-.657.352l-3.798.373zM25.591 23.56c-6.495 8.241-5.08 20.187 3.161 26.683 8.24 6.496 20.186 5.082 26.682-3.16 6.495-8.24 5.081-20.186-3.16-26.682-8.241-6.495-20.186-5.08-26.683 3.16"/><path fill="#FEFEFE" d="M55.154 46.864c-6.435 8.163-18.268 9.564-26.433 3.13-8.163-6.434-9.564-18.269-3.13-26.432 6.435-8.164 18.269-9.565 26.433-3.13 8.163 6.434 9.565 18.268 3.13 26.432M59.512 35.2c-.04-5.574-2.52-11.08-7.238-14.799-8.241-6.495-20.187-5.08-26.682 3.16-6.496 8.24-5.082 20.186 3.16 26.682.24.19.482.37.728.545.08.057.159.11.238.165.17.117.34.233.511.344.093.06.188.117.282.176.163.102.327.2.492.296.096.055.192.111.289.165.171.095.344.187.518.277.09.046.178.093.268.137.212.107.426.206.641.303.051.023.102.048.154.07.267.119.536.23.808.334.07.027.141.05.211.077.202.075.404.148.608.216.096.033.193.061.29.092.18.057.362.112.544.164.103.028.205.057.308.084.182.049.364.093.547.136.1.022.198.047.296.067.205.045.41.085.616.121.076.015.151.03.227.043.283.048.566.09.85.125l.114.012c.245.028.49.053.735.072.092.007.183.012.274.017.194.012.388.022.582.029l.305.006a18.615 18.615 0 001.08-.014c.132-.005.265-.01.397-.018.21-.014.42-.032.631-.052.119-.012.237-.02.356-.033.264-.03.527-.067.789-.108.064-.01.128-.017.191-.027.324-.055.646-.118.967-.188.098-.021.194-.047.292-.07.224-.053.448-.108.67-.169.122-.033.243-.07.363-.106a15.78 15.78 0 00.968-.315 17.808 17.808 0 001.516-.614c.113-.052.227-.102.339-.156.216-.104.431-.215.646-.328.081-.044.164-.084.246-.128.294-.16.584-.329.87-.505.06-.037.116-.078.176-.115.226-.144.449-.29.67-.442.098-.068.194-.14.29-.211.179-.13.356-.26.531-.396.105-.082.208-.167.312-.25a20.16 20.16 0 001.264-1.126c.095-.093.19-.184.282-.279.166-.168.328-.342.488-.518.077-.083.155-.165.23-.25a18.922 18.922 0 004.76-12.697"/><path fill="#FEFEFE" d="M21.518 35.6A18.825 18.825 0 0028.699 50a18.782 18.782 0 0011.692 4.05c5.57-.01 11.083-2.473 14.799-7.188 6.449-8.18 5.043-20.041-3.137-26.49a18.77 18.77 0 00-11.959-4.044c-1.824.04-3.637.344-5.38.9 5.671-1.75 12.078-.778 17.09 3.174 8.105 6.388 9.496 18.137 3.107 26.242-6.388 8.105-18.136 9.496-26.241 3.108-5.546-4.371-7.946-11.251-6.864-17.758a18.98 18.98 0 00-.288 3.606"/><path fill="#FEFEFE" d="M42.506 37.045c-3.395 4.307-3.513 9.876-.266 12.437 3.253 2.562 8.638 1.146 12.034-3.162 3.394-4.307 3.513-9.875.264-12.436-3.25-2.561-8.636-1.147-12.032 3.161m-18.116-.267c.045.066.154.352-.065.242-.22-.11-.22-.616.11-.242m-1.428-1.933c-.022.11.066.287.22.308.154.022.049-.291.022-.352-.088-.197-.22-.065-.242.044m8.983-9.751c-.132.023-.088.067-.33-.022-.24-.087-.065.045-.11.22-.044.175-.087.373 0 .527.088.154.132 0 .154-.088.022-.087.088-.087.242-.02.154.064.176.064.198-.155.021-.22.11-.294.11-.374 0-.088-.132-.11-.264-.088"/><path fill="#BDBDBD" d="M33.989 27.269c.065-.087-.022-.044.021-.264.044-.219-.021-.373.132-.483.154-.11.57-.373.637-.527.065-.154 0-.461.065-.571.067-.11-.065-.286.067-.33.132-.043.197.067.263-.022.066-.087.176-.35.022-.33-.153.023-.285.023-.285.023s-.067-.11.022-.11c.087 0 .175.088.197 0 .022-.087 0-.132-.022-.241-.022-.11-.043-.33-.088-.44-.043-.11-.263-.065-.065-.22.197-.152.022-.306-.044-.262-.067.043-.11.175-.154.241-.044.065-.022.11-.154.11s-.197.044-.285.044c-.088 0-.198.022-.264.088-.065.066-.176.087-.176.351v.395s.132.153.176.22c.044.066.066.373 0 .461 0 0-.79.857-.966.879-.176.02-.33.087-.33-.154 0-.242-.066-.373-.197-.308-.132.066-.286.395-.352.483-.065.089.088.198.176.22.088.022 0 .154-.065.285-.067.133-.132.132-.132.286 0 .154.043.703.065.922.022.22.11.022.198-.044.088-.065-.022-.175.088-.065.11.11.175.11.307.11s.176-.176.22-.264c.044-.087.154-.154.154-.264 0-.11-.045-.11-.088-.241-.044-.132 0-.263.153-.22.154.044.088.155.088.286 0 .131.55.044.616-.044"/><path fill="#FEFEFE" d="M23.71 35.812c0 .088.11.55.242.66.132.109.175.042.175-.154 0-.198-.175-.66-.263-.836-.088-.175-.242-.285-.352-.241-.11.043-.065.176 0 .307.066.132.198.264.198.264m-.22-1.604c0 .506.089.77.264.857.176.088.176-.329.176-.329v-.813c0-.702-.395-1.339-.66-1.536-.263-.198-.263.065-.197.197s.066.021.374.44c.417.724.043.9.043 1.184"/><path fill="#BDBDBD" d="M30.335 31.26l-.037.006-.175.241c-.022.066-.088.088-.22.155-.131.065-.087.197-.087.197l.11.11h.153s.066.044.132.066a.592.592 0 00.153.021h.264c.088 0 .066-.131.066-.131l-.11-.066s-.022-.22.022-.33c.044-.11.11-.087.22-.176.11-.087.176-.131.088-.153-.074-.018-.457.04-.579.06"/><path fill="#000" d="M31.814 28.279c-.132.022-.417.088-.395-.11.021-.198.022-.154.153-.198a.381.381 0 00.264-.33c.022-.175.044-.416.066-.613a.554.554 0 00-.176-.462c-.11-.11-.175-.175-.307-.131-.132.043-.44.154-.571.197-.132.044-.352.198-.55.44-.197.24-.614.219-.812.307-.197.087-.197.307-.264.395-.066.088-.153.088-.263.088-.11 0-.132-.044-.022-.154.11-.11-.154-.176.044-.395.197-.22.33-.176.483-.308.154-.131 0 0 .044-.308.044-.306.132-.306.264-.483.131-.175.285-.328.373-.526.088-.198.021-.44.021-.571 0-.133.045-.066.22-.11.176-.044 0 0 .044-.197.045-.198.11-.045.22-.088.11-.044.132-.177.33-.177.197 0 .241-.087.439.044.197.133.241.176.395.176.154 0 .395.11.46.154.066.044.177.22.287.33.11.11.044.372.241.24.198-.13.352-.263.505-.328.154-.066.308-.155.308-.287 0-.131-.132-.064-.33-.021-.197.044-.197-.021-.11-.11.089-.088.22-.285.352-.46.132-.177.176-.374.373-.396.198-.023.242-.066.285-.198.045-.132-.109-.132-.241-.132s-.22-.11-.417-.153c-.197-.045-.22.044-.351.065-.132.023-.22-.044-.308-.087-.087-.044.044-.154.11-.176.066-.022.154-.022.242-.088.087-.066.066-.286 0-.35-.066-.067-.242-.046-.33-.046-.088 0-.022-.175.044-.175s.198-.066.198-.066v-.44c0-.11-.066-.197.088-.219.153-.022.241.11.285.176.044.066.022.68.022.79 0 .11.088.264.22.308.131.044.153-.066.373-.22s.549-.108.549-.108-.088.087-.22.174c-.132.088-.066.154-.043.22.022.066.043.154.22.176.175.021.46-.022.57-.066.11-.044-.066-.11-.11-.22-.043-.11-.066-.154.022-.197.088-.044.044-.198.044-.264s-.132-.088-.11-.241c.022-.155.154-.177.308-.177s.351 0 .307.133c-.044.13-.131.262-.022.373.11.11.198-.022.308-.022.11 0 .088.044-.044.154-.132.109-.132.131-.088.285.044.154.154.176.198.263.044.089-.044.133-.176.066-.132-.066-.264.044-.373.11-.11.067-.176.11-.22.198-.044.088.022.131.154.286.132.153-.022.241-.022.241s.219.11.461.088c.241-.022.241-.11.395-.11.154 0 .264.088.352.176.088.087.307.11.527.087.22-.022-.066-.066.022-.11.087-.043.197-.043.395-.088.198-.043.198 0 .483 0 .286 0 .22.045.242-.13.022-.177-.066-.154-.154-.375-.088-.219-.286-.131-.286-.131l-.24-.065s-.462-.363-.562-.43c-.084-.057-.465-.136-.673-.073.138-.112.024-.377.081-.52.066-.163.363-.395.363-.395s.164.067.296.133c.131.065.231 0 .165-.099s-.297-.363-.429-.363-.395.165-.395.165-.1-.132-.165-.296c-.066-.165-.79-.33-.988-.33-.197 0-.23.033-.297.23-.066.198-.032.1-.23.231-.198.132-.231.067-.33 0-.098-.066-.098-.264-.098-.264s.527-.395.691-.526c.165-.132.067-.33.067-.528 0-.197-.265-.197-.265-.197s.495 0 .791-.066c.297-.067 1.614-.527 1.845-.56.23-.033.165 0 .362-.033.198-.033.363-.362.66-.593.296-.23.263-.132 0-.33-.264-.197-.89-.428-.791-.527.099-.098.264-.164.296-.395.033-.23-.23 0-.46 0-.231 0-.923.067-.923.067l.46-.396s-.395.033-.69.066c-.298.033-.396.592-.561.79-.165.198-.23-.329-.23-.329s-.494.197-.626.33c-.133.13-.066.23-.066.328 0 .1-.165.1-.165.1l-1.252.592s-.164-.132-.395-.132c-.23 0-.198.297-.33.396-.132.099-1.745.758-1.745.593 0-.165-.33-.066-.33-.066s-.296.462-.66.56c-.36.1-1.152.33-1.416.461-.263.132-1.712 1.186-2.042 1.515-4.316 4.547-4.842 10.708-4.842 10.708s.197.065.362-.067c.164-.131.164-.033.132.067-.033.097-.066.493-.066.624 0 .109-.192.106-.231.084-.031 1.172.1 1.566.198 1.86.099.297.099.1.198.1.098 0 .066.164.066.526 0 .363-.165.593-.231.726-.066.131-.396.033-.396.099 1.153 8.334 6.16 11.88 6.249 11.946.087.066 1.427.352 1.537.33.11-.022.878-1.075.878-1.075s-.593-.616-.768-.836c-.176-.22-.725-.879-.944-1.01-.22-.131-.528-.198-.594-.308-.065-.109-.175-.219-.395-.504-.219-.286-.417-.44-.594-.44-.174 0-.13.044-.262-.132-.132-.175-.33-.483-.308-.593.022-.109.132-.154.132-.242 0-.087-.132-.329-.197-.548-.067-.22-.022-.395-.22-.66-.198-.263-.703-.702-.879-.966-.176-.263-.132-.57-.242-.901-.109-.328-.087-.768-.087-.943 0-.176 0-.066.087-.155.088-.087-.021-.108-.065-.197-.044-.087-.418-.483-.484-.57-.065-.089-.417-.11-.57-.264-.154-.154-.703-1.932-.791-2.13-.088-.198-.11-.264-.176-.374-.066-.109-.351-.131-.351-.131s0-.22.022-.505c.022-.286-.154-.264-.154-.264s-.263-.045-.352-.176c-.087-.131.044-1.274.089-1.493.043-.22.153-.374.285-.703.132-.33.044-.352.044-.66 0-.306.022-.306-.11-.306s-.197-.066-.088-.199c.11-.131.55-.636.682-.79.131-.153.153-.153.153-.285 0-.132-.11-.374-.22-.395-.11-.022-.395.044-.395-.067 0-.109.11-.966.176-1.185.065-.22.725-1.385.9-1.385.176 0 .286.09.286.155 0 .066.087 1.12.11 1.273.021.154.11.066.153.154.044.09.11.614.088.725-.022.11-.681 1.318-.725 1.427-.043.11-.022.264.044.287.066.021.241.065.307-.089s.55-1.053.66-1.053c.109 0 .702-.133.966-.133.263 0 .219-.154.307-.198.088-.044.55-.044.703-.044.154 0 .22.133.33.22.11.088.219.22.307.176.088-.044-.088-.175.022-.22.11-.043.175.045.351.045s.505.154.681.197c.176.044.197.11.197.11s-.197.132-.373.198c-.176.065-.044.197.066.197s.374-.176.484-.197c.11-.023.307.088.482.065.176-.022-.065-.175-.065-.175s-.044-.088.022-.177c.065-.087.043-.175-.066-.175-.11 0-.22-.087-.132-.198.088-.109.285-.374.374-.439.088-.066 0-.066 0-.066s-.067-.109-.067-.175c0-.066-.11-.133-.11-.133l.044-.131s.066.022.133.088c.065.066.109.11.175.197.066.089.044.374.044.374l.154.044c.154.044.088.044.241.11.154.065.088.088.154.176.066.087.066 0 .132 0h.747c.153 0 .153.066.263-.067.11-.131.065-.417.088-.614.022-.198-.22-.308-.154-.418.066-.109.176-.46.352-.812.175-.352.373-.506.461-.637.087-.133 0-.133-.132-.11"/><path fill="#FEFEFE" d="M21.887 34.127v-.016c-.012.006-.009.01 0 .016m17.197.455c.219-.351.35-.571.219-.703-.131-.131-.483-.044-.615.177-.132.218-.088.57-.395.658 0 0 .57.22.79-.132m4.964-11.948c.175-.439-.22-.219-.351 0-.132.22-.309.088-.309.088l.045.22h.395l.22-.308zm-6.457 8.215c.22.131.703 0 .922-.176.22-.176 0-.44-.22-.615-.219-.176 0 0-.482-.044-.483-.044-.527-.22-.527-.22s.044.308-.132.395c-.176.09.044.132.044.132s.088.176.263.264c.176.088-.088.132.132.264"/><path fill="#000" d="M58.498 33.923c-.176-.044-.176-.175-.264-.439-.087-.263-.043-.175-.131-.527-.088-.352-.088-.703-.088-1.538 0-.834.132-1.23.132-1.23s.219.308.351.44c.132.131.484-.176.527-.176-2.065-6.544-6.413-9.575-6.413-9.575l-.044.131c-.044.133-.175-.088-.175-.088l-.44-.307c-.44-.308-.395-.527-.571-.702l-.176-.176h-.131l-.835-.132s-.482-.131-.79-.264c-.308-.131-.616-.307-.88-.439a7.909 7.909 0 01-.483-.264l.089-.132h-.308s-.483-.174-.878-.174c-.396 0-.089.219-.089.219l-.13.263-.132-.043s-.22-.044-.528-.044c-.307 0-.307-.089-1.054-.352-.746-.264-.35-.22-1.23-.439-.878-.22-1.186-.132-1.186-.132s.034-.02.088-.047c.083-.042.218-.102.352-.129.22-.043.483 0 .746-.043.263-.044.263-.132.088-.132-.176 0-.351 0-.615-.044s-.264 0-.483.044c-.22.044-.351.22-.351.22h-1.23c-.396 0-.528 0-.967-.045-.439-.043-.22 0-.483.396-.263.395-.22.043-.22.043s-.746 0-1.054.132c-.307.133.264.307.264.307h.264s.219-.043.35 0c.133.045.133.352.133.352s.22.044.351.132c.131.088.527.044.747.044.22 0 .527 0 .79.044.264.044.264.132.483.263.22.133.177.088.396.176.22.088.307.088.527.263.22.177.22.177.483.177h.132c.132 0 .22.13.22.13s.175.177.307.353c.131.175.22.175.395.306.176.133.22.264.22.264v.527c0 .352-.176.308-.176.308l-.483.176s.044.263.175.352c.132.087.396.219.396.219l.22.043s.263.044.088.309c-.177.264 0 .22 0 .22s.219.439.44.658c.218.22.263.307.263.307l.307.044.176.176s-.264.087-.44.087c-.175 0 0 0 .089.133.087.131.13.131.219.262.087.133.263.264.44.396.175.133.219.133.35.133.133 0 .22-.396.22-.396s.088.175.132.35c.043.177.306.572.306.749 0 .174-.175-.045-.306-.177-.132-.131-.264-.22-.527-.308-.264-.087-.395-.307-.395-.307s-.44-.307-.703-.132c-.263.177 0 0 .087.132.088.132.132.263.352.395.219.133.264.264.351.484 0 0-.307.087-.395.307-.088.22.131.176.131.176s.22.088.352.175c.132.088.087.177 0 .308-.088.132-.175.308-.395.878-.22.571-.088.22-.088.22l-.176-.088s-.22.089-.307.22c-.088.132.088.175.088.175v.704c0 .263-.044.175-.044.175s0 .308-.044.439c-.044.132-.132-.088-.132-.088s-.22-.307-.35-.307h-.573c-.307 0-.219-.22-.219-.22l.308-.043.702-.352-.219-.176-.308-.22s-.264-.087-.44-.087c-.175 0-.307 0-.438-.044a.873.873 0 00-.483 0c-.176.044-.22.132-.22.132s-.264.044-.44.176c-.175.131 0 0-.307.307s-.132.22-.22.439c-.087.22-.044.352-.044.615 0 .264 0 .351-.087.571-.088.22-.088.308-.22.44-.131.13-.176.438-.176.438s-.043.308-.13.484c-.089.176 0 .307 0 .526 0 .22.218.308.218.308l.263.131.045-.395.175-.044s.308.396.528.792c.219.395.176 0 .176 0l.35-.308s.089-.351.089-.527c0-.176-.089-.527-.089-.527s-.483-.879-.35-1.054c.13-.177.22-.22.307-.439.088-.22-.044-.484-.044-.484s.132-.175.263-.044c.132.132.088.659.044.835-.044.176-.044.176-.044.307 0 .132.132.308.132.44s.22.307.22.307l.351-.351c.175-.176.307.439.307.439l-.219.395s.132-.044.263.044c.132.089 0 0-.088.132s-.175.351-.175.351-.176.22-.395.352c-.22.132-.22.22-.396.351-.176.132-.659.308-.79.395-.132.088-.176-.043-.176-.043v-.352c0-.176-.175-.308-.175-.308v.967l-.528.483-.483.659s-.176.132-.307.22c-.132.087-.835.131-1.055.351-.219.22.088.308.088.308s.264.307.308.44c.044.131.175.175.307.438s-.044.263-.044.263h-.439c-.307 0-.439 0-.922.132-.484.132-.396.22-.44.395-.044.177 0 .264 0 .396s-.088.571-.176.923c-.087.35.088.35.176.482s.176.045.396.045h.527c.263 0 .351.043.702.043.352 0 .396-.264.44-.395.043-.132.043-.308.087-.527.045-.22.045-.176.264-.351.22-.177.439-.177.439-.177V37.7s.132-.131.44-.219c.307-.088.702-.044 1.054-.044.351 0 .351.044.57.263.22.22.308.265.528.44.219.176.132.307.132.571 0 .263.13.44.263.307.132-.131.132-.219.263-.263.133-.044.22-.22.177-.351-.044-.132-.352-.088-.484-.132-.132-.045-.307-.352-.307-.352s-.352-.483-.44-.703c-.087-.22 0-.175.132-.262.132-.09 0 0 .22.175s1.932 1.274 2.284 1.494c.351.219.351.131.351.131s-.351-.131-.439-.308c-.087-.175-.132-.22-.132-.395 0-.175-.132-.44-.132-.44h.264l.308.044v-.263c0-.263.22-.132.22-.132s.438-.131.483-.263c.043-.132-.176-.263-.176-.659 0-.395.219-.922.307-1.186.088-.264 0 0 .132.088s.528 0 .747 0c.219 0 .219-.088-.089-.132-.306-.044-.306-.308-.306-.308s.176-.306.395-.351v.308c0 .131.703.57.966.703.264.131.087.131.087.131s-1.976 1.45-2.02 1.582c-.043.131-.176.351-.22.526-.043.177.177.22.177.22l.219.307s.307 0 .615-.087c.307-.088 1.01-.352 1.23-.484.22-.13.22 1.055.044 1.362-.176.308-3.119 1.23-3.383 1.363-.262.131-.043.263-.043.263s-2.68-.352-2.68-.571c0-.22 0-.57-.22-.57-.152 0-1.379.252-2.22.407-.22-.024-.636.011-1.38.163 0 0-.133-.264-.308 0-.176.262-.572 1.405-3.427 3.6-.044.265.088.397.088.397s.044.395-.043.79c-.089.396-.22 1.186.043 1.669.264.484.264.484.703.967.44.483 1.757 1.097 2.064 1.097.308 0 1.187-.218 1.45-.218.263 0 .571-.044.571-.044l1.142-.265s.351-.043.615.132c.264.177.66.308.66.308s.043-.044.394 0c.351.044.528 0 .703.176.175.175.132.22 0 .57-.132.352-.308.439-.22.748.088.308 1.011 1.273.967 1.449-.044.175-.22.879-.22 1.01 0 .132.922 1.01 1.186 1.01.264 0 .264 0 .571-.131.307-.132.396-.351.746-.351 0 0 .352.087.616 0 .263-.088 1.229-.484 1.449-.704.22-.219.22-.308.264-.44.011-.032.018-.062.026-.092.64-.533 1.711-1.427 2.301-2.234.835-1.142.264-.22.396-.396.132-.176.176-.22.176-.395v-.66c0-.306-.088-.615-.088-.746 0-.132.834-1.142 1.054-1.45.22-.307.57-.922.79-1.45.221-.526.879-3.03.879-3.03s-.878.615-1.01.79c-.132.177-.264.265-.351.396-.088.132-1.23.132-1.23.132s-2.065-1.537-2.416-1.8c-.352-.264-.966-1.143-.966-1.143l.351-.088 3.558 2.68s1.757-2.416 1.8-2.548c.044-.132.396-.615.572-.922.175-.308.175-.483.175-.703 0-.22.087-.35.087-.528 0-.175-.174-.306-.174-.306s-.264-.176-.44-.176-.22.087-.351.176c-.133.087-.133.306-.133.306l-.175.44h-.571c-.351 0-.395-.044-.659-.044s-.351-.308-.527-.308c-.175 0-.527-.044-.527-.044l.527-.263.309-.176s.174.044.307.176c.131.132.219 0 .219 0s1.714-.835 1.977-.966c.264-.132 1.01-.746 1.098-.966.088-.22.57-.396.57-.396l.309-.22.218.045.396.088h.483c.22 0 .484.131.484.131s-.045-.922-.133-1.186c-.087-.263 0 0-.175-.044"/><path fill="#000" d="M35.756 29.695c.198-.099.66-.56 1.022-.56.361 0 .56-.032.725-.164.164-.132.23-.198.658-.263.428-.066.132-.133.198-.297.065-.164 0-.264 0-.264s0-.132.033-.264l.066-.262h.164s.132.032.264-.066c.132-.1 0 0 0-.198s-.066-.363.032-.428c.1-.067.165.065.198-.1.033-.164-.098-.493.033-.659.132-.164.033-.098.297-.098s.396-.033.396-.033l-.264-.23s-.055-.099-.363-.187c-.307-.088-.263-.22-.263-.22s0-.132.175-.132c.176 0 .176-.132.176-.307 0-.176-.131-.132-.263-.176-.132-.044-.176-.175-.352-.264-.176-.088-.483.22-.483.22-.22.11-.263 0-.22-.088.044-.087-.263 0-.482-.043-.22-.044-.286 0-.44.066-.154.065-.418.109-.505.044-.088-.067-.308-.044-.374-.044-.065 0-.021.065-.087.241-.067.175-.132.044-.22.088s-.11.242-.066.395c.044.154.066.132.11.198.044.065.022.57-.022.66-.044.087-.264.481-.373.481-.11 0-.198 0-.264.089-.066.088 0 .109.154.198.153.087.044.175-.044.263-.088.088-.439.505-.505.505s-.165-.044-.165-.044-.033-.099-.198-.099c-.164 0-.164.23-.23.461-.23.297-.66 1.022-.692 1.22-.033.198 0 .329-.066.494-.066.163.099.098.099.23 0 .131.066.165.098.33.033.164.066.197.429.065.362-.132.626-.758 1.021-.79.396-.033.396.13.593.032"/><path fill="#FEFEFE" d="M44.266 25.358s.045.307.176.615c.132.308.308.439.308.439s.044.264.307.264c.264 0 .351 0 .483-.044.133-.044 0-.351 0-.351s-.043-.089-.175 0a1.162 1.162 0 01-.308.131l-.176-.219v-.352s0-.22-.131-.22c-.132 0-.176-.219-.176-.219v-.176s-.308-.395-.308.132m-4.304 7.16s-.088.264-.307.307c-.22.043-.176 0-.308.22s.264.22.264.22c-.264.22-.088.263-.088.263l.175.22v.219l.088.264s-.088.175-.263.395c-.176.22.132.175.132.175l-.132.176-.308.307.088.177h.352c.175 0 .263-.132.526-.22.265-.088.265-.044.265-.044l.043.176s.264 0 .396-.132c.131-.132-.132-.176-.132-.176v-.659l-.088-.263-.22-.176-.044-.22-.264-.043-.219-.176s.087-.22.132-.44c.044-.22-.088-.57-.088-.57m1.51-5.328a.875.875 0 01-.016.013s.079.079.016-.012"/><path fill="#FEFEFE" d="M41.72 26.017s-.264.044-.485.044h-.131c-.132 0-.308.043-.308.043l-.088.22.22.176.352.439c.11.137.164.21.192.252.063-.047.291-.226.291-.34 0-.131-.264-.087-.264-.087s-.088-.264-.088-.44c0-.174.088-.263.088-.263l.22-.044zm12.956 21.039s-.308.747-.833 1.274c.087.22.043.483.043.483h-.528l-.13-.79s.965-.835 1.097-1.142c.132-.308.396-.22.351.175"/><path fill="#FFF" d="M42.836 37.304c-3.3 4.187-3.414 9.6-.257 12.088 3.16 2.49 8.395 1.115 11.695-3.072 3.3-4.187 3.415-9.6.256-12.088-3.158-2.49-8.394-1.115-11.694 3.072"/><path fill="#FEFEFE" d="M.296 73.727c.247.117.593.199.98.16.34-.035.655-.226.655-.549 0-.24-.18-.371-.561-.534-.438-.191-.857-.468-.857-1.005 0-.839.727-1.425 1.634-1.515.499-.052.795.03.974.103l-.278.769a1.523 1.523 0 00-.77-.1c-.414.04-.63.267-.63.495 0 .24.254.363.604.523.507.215.821.517.821 1.016 0 .925-.764 1.476-1.683 1.57-.574.052-.993-.054-1.185-.176l.296-.757zm10.46-.772c.265-.027.507-.161.697-.37.327-.361.506-1.065.506-1.546 0-.518-.185-.999-.839-.931-.278.027-.524.17-.715.387-.333.36-.518 1.025-.518 1.524 0 .588.265.997.863.938l.006-.002zm-.13.754c-1.079.11-1.683-.593-1.683-1.562 0-.753.278-1.527.765-2.045.388-.41.919-.685 1.517-.746 1.098-.11 1.678.57 1.678 1.563 0 .758-.266 1.526-.74 2.036-.39.415-.914.69-1.53.754h-.006zm8.826-5.119l.889-.09-.643 3.446 1.598-.163-.148.793-2.485.25zm9.19-.931l-.45 2.439c-.03.144-.05.314-.05.493 0 .338.21.577.605.536.468-.047.77-.388.919-1.172l.456-2.446.889-.091-.45 2.409c-.241 1.282-.79 1.942-1.925 2.058-.857.092-1.382-.305-1.382-1.186 0-.18.025-.385.062-.587l.438-2.362.888-.091zm9.325-.168l-1.098.113.154-.794 3.09-.314-.147.793-1.11.113-.642 3.444-.888.09zm9.066-1.695l-.79 4.236-.888.09.79-4.237zm7.574 2.717a1.1 1.1 0 00.696-.373c.328-.36.506-1.062.506-1.544 0-.518-.184-.998-.838-.933-.278.028-.524.17-.716.388-.333.36-.517 1.027-.517 1.526 0 .587.264.996.862.936h.007zm-.13.753c-1.078.11-1.683-.595-1.683-1.563 0-.752.277-1.526.764-2.044.39-.41.92-.686 1.518-.746 1.098-.111 1.677.571 1.677 1.563 0 .758-.265 1.525-.74 2.037a2.383 2.383 0 01-1.53.75l-.005.003zm8.037-.882l.789-4.238 1.042-.105.549 1.53c.167.512.278.934.376 1.38l.019-.002c.018-.428.08-.89.191-1.512l.283-1.54.833-.084-.788 4.237-.92.093-.58-1.6a12.636 12.636 0 01-.407-1.408l-.018.002a24.94 24.94 0 01-.265 1.68L63.34 68.3l-.826.084zm9.842-1.96c.247.118.593.199.982.16.338-.035.653-.228.653-.548 0-.24-.18-.371-.561-.536-.438-.19-.858-.466-.858-1.005 0-.838.73-1.424 1.635-1.515.499-.051.796.03.974.104l-.277.769a1.541 1.541 0 00-.77-.1c-.414.04-.63.266-.63.496 0 .24.252.362.604.523.507.215.82.516.82 1.016 0 .925-.764 1.477-1.683 1.569-.574.053-.992-.053-1.185-.176l.296-.757z"/><path fill="#000" d="M52.638 36.107c-1.126-.888-3.002-.385-4.192 1.125-1.188 1.508-1.24 3.45-.114 4.338.024.019.052.034.077.053l-2.23 5.568a1.094 1.094 0 002.03.813l2.48-6.189c.663-.243 1.314-.71 1.834-1.37 1.19-1.509 1.241-3.45.115-4.338"/><path fill="#FEFEFE" d="M38.074 24.338s-.558.446-1.56.31c-1.003-.137-1.259-1.06-1.259-1.06"/><g transform="translate(35.19 .03)"><mask id="d" fill="#fff"><use xlink:href="#c"/></mask><path fill="#FEFEFE" d="M10.114 3.853c1.154-.693 2.517-.793 4.166-.306 1.163.342 1.978.982 2.493 1.957 1.471 2.784.072 7.21.058 7.254l-.012.037c-.002.002-.01.04-.01.04l-1.612 6.104a19.303 19.303 0 012.543 1.782l1.879-7.103c.173-.55 1.712-5.717-.261-9.466-.888-1.688-2.32-2.833-4.253-3.403-2.448-.723-4.639-.517-6.51.613-3.302 1.993-4.313 6.197-4.435 6.76L.066 23.56l2.819.75L6.988 8.843l.011-.045.009-.044c.006-.031.742-3.483 3.106-4.901" mask="url(#d)"/></g><path fill="#FEFEFE" d="M38.124 24.121c.005-.008.082-.283.087-.283l.022.09a.707.707 0 01-.11.552c-.211.334-1.124.517-1.985.265-.814-.237-1.083-.933-1.053-1.328.03-.395.311-.365.311-.365l-.13.49s.285.853 1.179.99c.933.146 1.43.03 1.68-.41"/><path fill="#FEFEFE" d="M38.24 23.713s.347.342-.018.934c-.364.593-2.028.57-2.757.068-.73-.501-.872-1.675-.006-1.88l-.204.753s.221.643.917.854c.98.298 1.771.023 1.908-.182l.16-.547z"/></g></svg>