<svg xmlns="http://www.w3.org/2000/svg" width="160" height="35"><path d="M70.806 30.024c0 1.067.067 2.134.097 3.2a.541.541 0 00.398.602c.205.081.4.187.579.316.088.063.17.134.248.21a1.021 1.021 0 01-.3.135c-.451.038-.902.076-1.36.09h-1.87c-.391 0-.752 0-1.18-.045-.113 0-.21-.105-.316-.165.09-.059.182-.112.278-.158.526-.21 1.06-.405 1.578-.63a.752.752 0 00.435-.752c.03-1.348.063-2.693.098-4.036 0-.51 0-1.022.075-1.503a2.037 2.037 0 00-.6-1.54 4.224 4.224 0 01-.557-.925c-.105-.24-.217-.263-.375-.097a1.097 1.097 0 00-.233.406 1.097 1.097 0 01-1.735.473 4.62 4.62 0 00-.88-.571c-.21-.113-.367 0-.412.233-.045.233 0 .308-.038.436-.037.127-.233.263-.285.24-.338-.143-.21.083-.24.24a.526.526 0 01-.211.264c-.128.097-.338.142-.413.27a.593.593 0 01-.654.323h-.353c-.12 0-.398-.097-.353.27 0 .211-.24.241-.353.121a1.18 1.18 0 01-.338-.571c0-.158 0-.24-.203-.278-.578-.105-.683-.3-.51-.88a.398.398 0 000-.165 1.164 1.164 0 00-1.255-.826c-.188.052-.33.255-.503.375a2.584 2.584 0 01-.293.158 1.037 1.037 0 01-.113-.3c0-.346-.143-.519-.503-.489a.751.751 0 01-.616-.248 1.232 1.232 0 00-.308-.165.563.563 0 01-.188-.105c-.233-.286-.45-.586-.683-.872-.053-.068-.158-.173-.21-.158-.346.09-.52-.135-.7-.346a6.012 6.012 0 01-.563-.751.752.752 0 01-.06-.443 1.82 1.82 0 01.158-.451c.128-.308.233-.579-.173-.797-.225-.12-.188-.398-.188-.639a1.45 1.45 0 01.413-1.232c.23-.252.348-.584.331-.924.02-.333.075-.663.165-.985a1.804 1.804 0 00-.06-1.683.88.88 0 01-.067-.631c.113-.361.249-.715.405-1.06.113-.285.428-.075.549-.218.12-.143.075-.428.195-.54.12-.114.36-.069.548-.076.188-.008.338 0 .398-.24a.376.376 0 01.33-.15c.294.104.572.27.857.397.115.06.24.095.368.106h1.12c.15 0 .36.142.36-.128 0-.15.203-.466-.225-.458-.286 0-.143-.263-.158-.406-.015-.143.09-.316-.203-.3-.075 0-.218-.211-.225-.331V9.275a1.368 1.368 0 00-.053-.405c-.06-.18-.067-.294.173-.24.24.052.203-.076.195-.234a6.458 6.458 0 010-.751c0-.06.09-.158.143-.15a.698.698 0 00.751-.677c0-.083.15-.195.248-.21.533-.106.533-.098.631-.64a.752.752 0 00.045-.164c0-.083.496-.346-.082-.24a.443.443 0 01-.083-.256.684.684 0 01.18-.354c.075-.067.226 0 .338-.075.18-.038.35-.115.496-.225a.66.66 0 01.706-.21c.144.023.291.023.436 0 .27 0 .646.06.42-.452-.067-.15.053-.293.233-.285.323 0 .654.06.977.068a.371.371 0 00.263-.113c.05-.09.079-.19.082-.293 0-.173 0-.399.09-.496.09-.098.331 0 .496-.09a.413.413 0 00.226-.248c.165-.624.6-.752 1.119-.384.045 0 .158.068.18.045.023-.022.113-.157.09-.217-.075-.203-.188-.391-.278-.594-.09-.203-.097-.278-.067-.3a.668.668 0 01.36-.098c.098 0 .188.09.286.105.097.015.24 0 .27-.053.188-.345.473-.308.751-.21.278.097.624.36 1.037.293.083 0 .255.248.315.406.06.157.09.518.173.751.083.233.075.481-.255.579-.053 0-.083.12-.128.18.083 0 .218.06.248 0 .353-.406.969-.21 1.337-.586.045-.045.188 0 .286 0 .097 0 .105.105.135.098.548-.166.63.278.75.608.121.331.189.27.4.12a.413.413 0 01.36 0c.343.152.662.355.946.602.248.303.458.636.624.992.082.142.082.278.315.338.233.06.135.383.075.601 0 .098-.12.256-.09.278.13.093.268.174.413.24.163.076.317.169.458.279.196.18.248.15.421-.068s.45-.586.12-.962c0 0 0-.173.09-.21a.255.255 0 01.233 0c.135.112.233.263.36.375.09.063.186.116.286.158a.752.752 0 01.075-.24c.076-.098.173-.218.27-.24a.36.36 0 01.316.135c.113.263.24.24.436.097.195-.143.33-.27.496-.06.165.21 0 .353-.165.466-.166.113-.12.203 0 .323a.398.398 0 010 .616c-.166.15-.06.27.06.361.397.324.552.86.39 1.345 0 .166-.06.286-.27.248-.21-.037-.24.113-.203.24.074.259.17.51.285.752.188.39.188.39-.187.579-.173.082-.383.18-.098.39 0 0 .045.06.038.076-.316.586.255.285.39.345s.458-.24.48-.503c.038-.376.129-.42.46-.21.097.06.232.12.27.21.2.393.536.7.946.864.13.07.238.177.308.308.06.176.1.357.12.541l-.45.075h-.09c-.196 0-.421-.045-.451.218-.03.263.21.233.375.24.422.063.812.261 1.112.564.045 0 .105.098.098.136a4.79 4.79 0 01-.218.841.751.751 0 01-.714.511c-.255 0-.27.18-.143.308.481.489.33 1.053.233 1.609-.037.225-.052.398.256.435.135 0 .263.143.398.166.33.045.428.255.466.533 0 .09.037.24.082.248.376.09.488.369.579.7 0 .097.15.165.232.247.41.388.517 1 .263 1.503a27.974 27.974 0 00-.75 2.187c-.151.443-.249.947-.752 1.157-.684.308-1.397.564-2.103.834-.24.09-.489.158-.751.24a.946.946 0 01-.827-.164c-.255-.158-.435-.519-.826-.294 0 0-.12-.06-.173-.105l-.563-.556c-.158-.158-.286-.346-.586-.195a.293.293 0 01-.413-.263v-.166a1.157 1.157 0 00-1.675 0 .751.751 0 01-1.09.173.586.586 0 00-.75.045c-.354.3-.85.459-.977.985a.188.188 0 01-.083.097 4.156 4.156 0 00-1.442 1.932 2.98 2.98 0 00-.18 1.157v2.157l.045-.075zM68.356 8.23l-.435-.18a.526.526 0 01-.12-.113c.053 0 .113-.09.165-.083a1.5 1.5 0 011.112.436c.063.055.134.1.21.135 0-.037.06-.082.045-.113-.015-.03-.06-.202-.127-.24-.3-.143-.616-.248-.924-.383a3.68 3.68 0 01-.406-.24c.083-.106.156-.22.218-.339a.368.368 0 000-.27c0-.068-.135-.09-.203-.136-.045.075-.098.15-.128.233-.03.083-.127.323-.21.474-.083.15-.203.323-.278.496-.075.173.15.466.27.36.293-.255.556 0 .827-.037l.21.33c.173.286.15.384-.18.451a2.846 2.846 0 01-.699-.052.668.668 0 00-.188.045c0 .052.06.15.098.158.19.044.384.067.579.067.24 0 .405.09.45.316.045.225 0 .24.203.263.203.022.143.12.21.188l.196.21c.067-.09.18-.173.187-.27a1.593 1.593 0 00-1.081-1.639V8.23zm-7.699 9.416c.33-.098.691.315.564.593a.436.436 0 00.18.594c.193.152.402.283.623.39.872.384.857.37 1.465-.345a.489.489 0 000-.699 1.744 1.744 0 01-.368-1.06c0-.187-.083-.24-.27-.247-.316 0-.624-.105-.932-.158-.105 0-.255-.075-.315 0-.276.262-.641.41-1.022.413-.113 0-.24.256-.36.391l.435.128zm11.651-4.652c-.053.278.173.278.338.346.165.067.285.105.406-.09.24-.369.052-.752 0-1.067a.827.827 0 01.142-.82c.226-.248.158-.435-.09-.6l-.225-.136c-.18-.113-.278-.21 0-.293.052 0 .098-.12.12-.188.023-.068-.068-.12-.098-.12a.338.338 0 00-.225.083 1.834 1.834 0 00-.18.345c-.098.203-.098.316.188.316.285 0 .533.285.398.51-.136.226-.368.752-.631.752-.451.12-.158.286-.143.451.015.165 0 .413 0 .579v-.068zm1.773 9.68c0-.64-.308-.895-.751-.625a2.765 2.765 0 00-.692.865c0 .052.113.248.21.345.098.098.166 0 .249-.052.221-.072.437-.16.646-.263a1.64 1.64 0 00.345-.21l-.007-.06zm2.253-9.304l-.503-.413c-.188-.158-.42-.293-.195-.602 0 0-.143-.18-.226-.278-.199.141-.38.305-.54.489 0 .045.157.285.27.413.113.128.315.21.12.421 0 0 .098.143.135.135.293.023.579-.045.932-.105l.007-.06zm-13.911 6.635a4.11 4.11 0 00-.601.384c-.136.12-.158.278.105.33.263.053.413.143.368.444-.045.3.105.158.18.082a.887.887 0 00.233-.338c.045-.135 0-.3.053-.428.097-.226-.083-.3-.346-.406l.008-.068zm9.953-.345c-.21-.526-.15-.631.315-.616a.683.683 0 01.33.067c.286.173.309-.052.316-.218a.406.406 0 00-.608-.36c-.263.17-.514.359-.752.563a1.33 1.33 0 00-.217.36c.103.012.206.03.308.053.104.067.204.14.3.218l.008-.067zm1.637-9.176l.616-.263c.053 0 .12-.045.135-.082.015-.038 0-.098-.052-.143a4.9 4.9 0 01-.353-.466c-.098-.173-.188-.263-.36-.09a.563.563 0 01-.527.248s-.075.067-.112.105c-.038.037.082.105.127.105.466.045.541.346.519.646l.007-.06zm-3.658 9.198c.118-.074.227-.162.323-.263 0 0 0-.18-.09-.248a1.78 1.78 0 00-.368-.375 2.463 2.463 0 00-.474-.196v.55c.152.244.36.448.609.593v-.06zm8.623-8.815c0-.21-.533-.518-.75-.443l-1.27.511c-.045 0-.113.105-.098.143.032.095.075.185.128.27.05-.038.103-.073.158-.105.206-.121.425-.22.653-.293.15 0 .316.045.308-.21a.578.578 0 01.33-.068c.122.047.238.108.346.18.063.021.13.027.195.015zm-13.085 1.06c.234-.047.464-.107.691-.18a.826.826 0 00.278-.24v-.159c-.218.24-.39-.353-.624 0 0 .038-.157 0-.24 0h-.315a1.173 1.173 0 000 .414c-.015.037.127.105.187.158l.023.007zm4.77 13.527l.158.308c.084-.05.162-.111.233-.18.172-.219.323-.444.488-.662.075-.098.225-.203 0-.308-.226-.105-.286-.143-.39.09a3.487 3.487 0 01-.346.489c-.09.052-.09.135-.166.24l.023.023zm-1.502-.85h-.166c.01.082.036.161.075.233.166.203.346.399.526.587.063.017.13.003.18-.038a.631.631 0 00-.645-.804l.03.022zm-4.297-9.724c-.105.076-.226.12-.226.166 0 .045 0 .3.106.353.213.134.443.24.683.316.135.045.323-.038.188-.196a6.01 6.01 0 00-.781-.661l.03.022zm-.264 6.33a4.784 4.784 0 00-.609-.218c-.315-.06-.345 0-.292.3a.15.15 0 010 .083c-.263.579.157.203.27.18a2.08 2.08 0 00.436-.202 2.34 2.34 0 00.172-.173l.023.03zm3.11-2.458c.051.107.117.205.195.294.14.107.288.202.443.285.05.023.104.04.158.053v-.203a5.867 5.867 0 00-.398-.564 1.75 1.75 0 00-.21-.203l-.188.338zm8.713-9.468l-.052-1.015c-.624.421-.624.496.052 1.015zm-9.517 10.971c.148-.057.302-.1.458-.127.233 0 .196-.113.09-.24a1.285 1.285 0 00-.202-.226 2.11 2.11 0 00-.3-.166c0 .106 0 .21-.046.316-.045.105 0 .27 0 .443zm-8.263-.751c-.203-.09-.315-.18-.42-.18-.106 0-.263.127-.256.18.04.195.097.387.173.571l.503-.571zm12.071-1.135c-.067-.105-.127-.315-.24-.353-.113-.038-.323.068-.488.113l.323.353a.3.3 0 00.098.083.526.526 0 00.232.052s.075-.12.075-.248zM29.213 23.5H52.74c.248 0 .33.076.33.331 0 .256-.09.346-.338.324H5.686c-.248 0-.33-.083-.33-.331s.09-.346.33-.323h23.527zm94.43.023h35.531c.15 0 .315.075.315.308 0 .233-.082.324-.308.309-.225-.015-.263 0-.398 0H88.128c-.233 0-.346-.06-.346-.324 0-.263.098-.345.338-.323.24.023.263 0 .398 0h35.133l-.008.03zm28.507 8.304c-.052.353-.127.752-.173 1.195-.03.305-.042.61-.037.917 0 .24-.098.436-.323.45-.225.016-.413-.09-.458-.21-.143-.383-.256-.218-.451-.052a1.134 1.134 0 01-1.224.24 1.09 1.09 0 01-.669-1.044 3.375 3.375 0 01.849-2.503 1.84 1.84 0 011.044-.601 1.134 1.134 0 011.405 1.022c.022.165.022.346.037.586zm-.864.038c0-.384.053-.752-.27-.752-.195-.037-.443.136-.661.218 0 0-.045.038-.06.06a2.526 2.526 0 00-.631 1.819c0 .143.158.285.24.42l.383-.262s.045-.075.06-.113c.128-.256.316-.39.601-.256.286.136.158 0 .173-.135l.165-1zm-2.944-1.909a.616.616 0 00-.218 0 .413.413 0 00-.225.165c0 .06.052.158.075.248.08.175.13.364.142.556-.12 1-.27 2-.413 3.006v.128c-.06.308-.248.496-.48.473a.473.473 0 01-.406-.54c.007-.323.037-.644.09-.962.158-.872.353-1.744.503-2.616.038-.21.136-.48-.24-.586-.255-.067-.27-.278 0-.443a.436.436 0 00.233-.421c0-.218.15-.286.368-.195.218.09.368.127.548.188h.045c.083.097.24.24.226.278-.015.037-.09.24.067.315.158.075.248.218.128.346-.12.128-.255.075-.383.105l-.06-.045zm-5.604 2.78a3.18 3.18 0 01.616-2.006 1.262 1.262 0 011.683-.353c.086.038.177.065.27.082a1.503 1.503 0 00-.098-.443c-.045-.083-.202-.105-.3-.158a2.119 2.119 0 01-1.15-1.367c-.09-.344-.039-.71.143-1.015a1.022 1.022 0 011.706-.15c.361.466.569 1.033.593 1.623 0 .248 0 .443.36.488a.436.436 0 01.248.346c0 .143-.15.376-.263.39-.33.038-.323.234-.36.482a18.14 18.14 0 01-.428 2.254 3.006 3.006 0 01-.676 1.158 1.21 1.21 0 01-2.021-.294 5.15 5.15 0 01-.323-1.037zm.804-.233l.06.038c.03.255.083.506.158.752.172.428.503.473.81.12.135-.155.24-.334.309-.526.125-.358.23-.721.315-1.09.053-.218.128-.48-.278-.428-.067 0-.157-.068-.225-.12-.308-.196-.518-.196-.691.12a8.637 8.637 0 00-.42 1.134h-.038zm1.78-3.667h.06c-.135-.3-.263-.6-.413-.886a.248.248 0 00-.218-.098c-.06 0-.105.128-.128.203a.97.97 0 00.466.962.879.879 0 00.196.06l.037-.24zm-5.341 3.667c-.01.153-.01.306 0 .459a.691.691 0 001.03.571c.103-.052.2-.117.285-.195.203-.18.42-.24.608 0a.428.428 0 01-.06.63c-.409.42-1.01.59-1.577.444a1.413 1.413 0 01-1.127-1.292 2.676 2.676 0 01.608-2.172c.271-.281.596-.506.954-.661.425-.213.94-.108 1.247.255.3.363.35.87.128 1.285a1.69 1.69 0 01-1.562.94 1.93 1.93 0 01-.534-.264zm.256-.518c.45-.075.856-.113 1.051-.526a.413.413 0 000-.353c-.037-.06-.21-.068-.308-.038a1.322 1.322 0 00-.75.752s-.008.135.007.165zm-1.818-1.683a8.33 8.33 0 01-.631 3.208 4.51 4.51 0 01-.368.7.438.438 0 11-.751-.452 6.833 6.833 0 00.901-2.833 4.556 4.556 0 00-.143-1.999c-.285-.849-.871-1.037-1.585-.51a5.53 5.53 0 00-.428.375.872.872 0 00-.278.85 7.412 7.412 0 01-.33 3.546c-.12.314-.29.605-.504.865a.901.901 0 01-1.014.338.91.91 0 01-.608-.88 4 4 0 01.21-1.863c.278-.752.624-1.503.977-2.202.127-.263.323-.473.142-.804a1.202 1.202 0 00-.878-.752 1.247 1.247 0 00-1.052.339.752.752 0 00-.098.51 9.48 9.48 0 01-.323 4.081c-.15.412-.36.8-.623 1.15a1.127 1.127 0 01-1.277.466 1.217 1.217 0 01-.85-1.12 4.766 4.766 0 01.219-2.036 7.719 7.719 0 011.637-3.006.376.376 0 00.083-.466 1.337 1.337 0 00-.864-.864c-.255-.076-.413-.226-.36-.511.052-.286.277-.369.593-.309.524.108.973.444 1.224.917.233.391.233.391.639.226a1.923 1.923 0 012.539.751c.12.18.188.21.345.045a3.26 3.26 0 01.624-.48 1.675 1.675 0 012.576.879c.176.598.307 1.208.391 1.826l-.135.015zm-7.28 0v-.752a.752.752 0 00-.067-.203.796.796 0 00-.18.15 7.02 7.02 0 00-1.112 2.698c-.064.416-.064.84 0 1.255.053.323.286.376.504.128.18-.21.325-.449.428-.706a6.578 6.578 0 00.428-2.6v.03zm3.133.188a6.186 6.186 0 00-.796 2.66c.016.149.051.296.105.436.11-.11.207-.234.286-.369a5.855 5.855 0 00.405-2.758v.03zm-38.678-8.733a9.514 9.514 0 01-3.463-.473 6.199 6.199 0 01-4.169-4.712c-.075-.3-.12-.601-.18-.902-.06-.3.038-.413.33-.435l2.142-.188.961-.09c.233 0 .338.06.39.3.062.3.15.595.264.88a3.426 3.426 0 003.004 2.254 5.834 5.834 0 002.517-.203 2.487 2.487 0 001.825-1.849 1.563 1.563 0 00-.804-1.863c-.617-.308-1.26-.56-1.923-.752-1.344-.406-2.704-.751-4.041-1.165a6.01 6.01 0 01-2.847-1.833A5.097 5.097 0 0191.636 2.7a8.53 8.53 0 013.004-.631c1.36-.091 2.726.059 4.034.443a5.515 5.515 0 013.891 5.065c0 .24 0 .353-.293.36-1.111.046-2.253.098-3.335.136-.098 0-.218-.135-.285-.24a1.098 1.098 0 01-.09-.339 2.532 2.532 0 00-2.171-2.021 5.737 5.737 0 00-2.78.143 3.44 3.44 0 00-.834.39 1.368 1.368 0 00-.045 2.353 4.22 4.22 0 001.27.623c1.262.376 2.539.684 3.793 1.067.845.236 1.669.54 2.464.91a5.102 5.102 0 012.915 4.155 5.673 5.673 0 01-4.718 6.388c-.924.188-1.878.248-2.817.368l-.045-.113zm10.832-7.334v-3.472c0-.315-.067-.458-.413-.428-.345.03-.646 0-.969 0-.203 0-.293-.075-.293-.286V7.983c0-.233.113-.3.323-.3h.924c.308 0 .443-.068.428-.407V5.383a.519.519 0 01.308-.526c1.007-.571 1.998-1.158 3.005-1.744.406-.233.42-.225.42.233v3.87c0 .451 0 .451.459.451h1.622c.27 0 .398.053.391.36v2.158c0 .263-.075.368-.346.36h-1.757c-.248 0-.368.045-.368.331v6.643c.005.147.022.292.052.436a.872.872 0 001.097.751c.33-.058.657-.139.976-.24.21-.068.323-.068.346.195.075.787.163 1.57.263 2.352 0 .21-.075.293-.256.339a9.206 9.206 0 01-1.57.368 7.78 7.78 0 01-2.253-.083c-1.502-.353-2.208-1.135-2.321-2.878-.098-1.443-.09-2.9-.135-4.351l.067.015zm7.79.075a7.577 7.577 0 01.886-3.637 6.108 6.108 0 013.546-3.104 7.509 7.509 0 015.574.09 6.658 6.658 0 014.146 5.614 7.405 7.405 0 01-.623 4.329 6.685 6.685 0 01-6.213 3.997 7.877 7.877 0 01-3.455-.69 6.23 6.23 0 01-3.756-5.164c-.037-.473-.037-.939-.105-1.435zm3.756.053a5.669 5.669 0 00.54 2.435 3.132 3.132 0 005.845-.624 6.18 6.18 0 00.045-3.502 3.155 3.155 0 00-6.175.053 15.787 15.787 0 00-.24 1.63l-.015.008zm13.258-.001V8.134c0-.458 0-.466.45-.466h2.547c.45 0 .45 0 .45.474v.924c.013.121.033.242.061.36.083-.074.173-.15.248-.232a5.4 5.4 0 012.456-1.639 5.587 5.587 0 014.027.233 3.637 3.637 0 012.185 3.074c.076.669.11 1.341.106 2.014v8.048c0 .511 0 .511-.489.519h-2.696c-.474 0-.481 0-.481-.496v-4.704c0-1.143-.015-2.285-.045-3.427a5.067 5.067 0 00-.105-1 1.984 1.984 0 00-2.321-1.593 2.66 2.66 0 00-2.54 2.75c-.082 2.18-.075 4.367-.105 6.546v1.586c0 .233-.06.353-.323.345h-3.08c-.352 0-.322-.203-.322-.428-.015-2.16-.023-4.316-.023-6.47zm23.37.993h-4.087c-.444 0-.466.037-.398.48a3.345 3.345 0 001.059 2.202 2.672 2.672 0 002.584.564 2.036 2.036 0 001.382-1.42c.113-.338.278-.399.608-.33.932.187 1.87.33 2.802.488.413.067.42.075.27.465a5.724 5.724 0 01-5.475 3.765 8.95 8.95 0 01-2.78-.308 5.62 5.62 0 01-3.838-3.907 9.465 9.465 0 01.06-6.08 5.74 5.74 0 014.928-4.133c2.328-.293 4.431.278 5.956 2.254a6.607 6.607 0 011.277 3.134c.12.804.128 1.63.203 2.442 0 .293-.09.376-.375.376-1.39 0-2.78.008-4.177.008zm-1.759-2.255h2.006c.623 0 .638 0 .556-.639a2.578 2.578 0 00-2.69-2.464 2.667 2.667 0 00-2.56 2.758c0 .27.074.36.345.353.788-.015 1.57 0 2.343 0v-.008zM33.555 15.543h-4.086c-.421 0-.451.037-.391.458a3.39 3.39 0 001.044 2.21c.699.635 1.68.858 2.584.586a2.111 2.111 0 001.405-1.406c.173-.436.173-.428.623-.353l2.81.474c.375.06.398.09.263.443a5.732 5.732 0 01-5.401 3.802 9.07 9.07 0 01-2.862-.308 5.62 5.62 0 01-3.831-3.915 9.457 9.457 0 01.082-6.124 5.732 5.732 0 014.928-4.081c2.329-.286 4.432.293 5.95 2.254a6.645 6.645 0 011.269 3.142c.12.751.143 1.57.188 2.36 0 .435 0 .435-.429.443l-4.146.015zm-1.75-2.255h1.975c.691 0 .706 0 .609-.669a2.584 2.584 0 00-2.682-2.434 2.675 2.675 0 00-2.569 2.705c0 .3.06.413.383.406.759-.015 1.517 0 2.284 0v-.008zm-12.5-3.825l.751-.984a3.072 3.072 0 013.47-1.03c.35.112.69.245 1.022.399a.3.3 0 01.188.443c-.323.88-.638 1.758-.946 2.645-.09.256-.18.263-.406.143a2.628 2.628 0 00-1.84-.398 1.608 1.608 0 00-1.27.909 6.074 6.074 0 00-.518 1.706c-.128 1.18-.165 2.367-.188 3.554v4.178c0 .324-.083.436-.413.429H16.3c-.428 0-.428 0-.435-.451V8.028c0-.27.097-.353.368-.353h2.727c.263 0 .368.075.36.345-.03.436-.015.895-.015 1.443zm-9.78 4.118v7.35c0 .51 0 .51-.503.51H6.077c-.45 0-.45 0-.45-.465V6.457a2.518 2.518 0 010-.353c.044-.33-.083-.428-.414-.42H.706c-.751 0-.676.082-.683-.685-.008-.766 0-1.375 0-2.066 0-.458 0-.466.458-.466h14.16c.465 0 .465 0 .465.45v2.376c0 .315-.105.398-.406.398H9.998c-.458 0-.458 0-.458.458-.01 2.475-.015 4.952-.015 7.432zm38.738 1.962h-4.086c-.429 0-.466.045-.406.443.06.827.418 1.603 1.006 2.187a2.688 2.688 0 002.615.631 2.104 2.104 0 001.412-1.398c.173-.436.173-.428.66-.345l2.765.466c.39.067.406.082.27.435a5.732 5.732 0 01-5.423 3.825 9.063 9.063 0 01-2.87-.308 5.688 5.688 0 01-3.898-4.125 9.54 9.54 0 010-5.546 5.815 5.815 0 014.935-4.426c2.637-.384 5.258.48 6.595 3.058.46.903.746 1.885.842 2.893.067.594.06 1.203.105 1.796 0 .331-.09.429-.42.421-1.345-.015-2.727-.007-4.102-.007zm-1.765-2.255h1.975c.684 0 .706 0 .609-.676a2.584 2.584 0 00-2.682-2.435 2.675 2.675 0 00-2.569 2.705c0 .301.068.414.383.406.759-.007 1.517.008 2.276.008l.008-.008z" fill="#FFF"/></svg>