<svg version="1.0" xmlns="http://www.w3.org/2000/svg" width="666.667" height="666.667" viewBox="0 0 500 500"><path d="M0 250v250h500V0H0v250zm228.9-101.5c14.7 3.5 29.8 14.7 37.1 27.4 1.9 3.3 3.7 6.1 4 6.1.3 0 2.1-2.3 4-5.1 5.7-8.5 16.9-18.2 26.2-22.8 12-5.9 19.7-7.4 34.3-6.8 26.3 1.1 44.4 12.1 54.4 33.1 7.8 16.3 7.5 12.1 7.9 96.8l.3 75.8h-53l-.3-68.3c-.3-67.4-.3-68.3-2.5-73.5-3.1-7.5-6.3-11.3-12.4-14.7-4.6-2.5-6.8-3-14.4-3.3-7.5-.3-10 0-14.9 1.8-10.5 4-18.7 14.6-21.5 27.8-.7 3.6-1.1 25.7-1.1 67.7V353h-53.9l-.3-69.3-.3-69.2-2.3-5c-2.8-6-7.3-10.9-12.7-13.8-3.4-1.9-5.7-2.2-14.6-2.2-9.7 0-11 .2-16.4 3-10.3 5.3-17.1 15.9-19.5 30.7-.6 3.8-1 30.2-1 66V353h-53V152h51v13.5c0 7.4.4 13.5.9 13.5.4 0 2-1.8 3.4-3.9 5.7-8.5 17-18.1 26.5-22.4 12.2-5.4 31.1-7.2 44.1-4.2z"/></svg>