<svg xmlns="http://www.w3.org/2000/svg" width="80" height="66" viewBox="0 0 80 66">
    <g fill="#FFF" fill-rule="nonzero">
        <path d="M50.253 18.415c.226 0 .414.189.414.415-.263 4.878-4.245 8.773-9.165 8.773-4.883 0-8.902-3.895-9.128-8.735 0-.227.188-.416.414-.416h3.53c.226 0 .376.152.413.378.188 2.496 2.292 4.462 4.808 4.462 2.517 0 4.62-1.966 4.808-4.462 0-.176 1.302-.315 3.906-.415zM41.09 0c.225 0 .413.19.413.416v4.537a.418.418 0 0 1-.413.416c-6.912.227-12.508 5.975-12.508 13.046 0 7.07 5.596 12.78 12.508 13.007.225 0 .413.189.413.416v4.537a.418.418 0 0 1-.413.416c-9.879-.227-17.842-8.394-17.842-18.376C23.247 8.395 31.21.227 41.09 0zM7.223 42.742c2.025 0 3.477.641 4.844 1.886a.373.373 0 0 1 .06.518c-.011.012-.024.037-.048.05l-1.22 1.269a.324.324 0 0 1-.452.049l-.048-.05a4.702 4.702 0 0 0-3.087-1.195c-2.562 0-4.466 2.17-4.466 4.709 0 2.539 1.916 4.671 4.478 4.671 1.196 0 2.22-.468 3.062-1.146a.358.358 0 0 1 .5 0l1.245 1.294c.159.148.122.407-.024.542a6.804 6.804 0 0 1-4.868 1.96C3.22 57.3 0 54.045 0 50.027c0-4.018 3.245-7.285 7.223-7.285zM13.53 56.572l6.223-13.608a.375.375 0 0 1 .342-.222h.195a.345.345 0 0 1 .342.222l6.161 13.608a.351.351 0 0 1-.146.48c-.061.037-.122.05-.195.037h-1.745c-.305 0-.44-.123-.586-.406l-.976-2.182h-5.978l-.976 2.182a.61.61 0 0 1-.586.406h-1.757a.347.347 0 0 1-.378-.32.532.532 0 0 1 .06-.197zm8.651-4.314l-2.013-4.45h-.06l-1.965 4.45h4.038zM29.136 43.322c0-.21.17-.383.378-.383h5.722c2.404 0 4.368 1.948 4.368 4.351 0 1.862-1.22 3.378-2.964 4.08l2.733 5.14c.11.173.06.42-.122.53a.453.453 0 0 1-.22.062h-2.099a.32.32 0 0 1-.317-.185l-2.66-5.362h-2.22v5.152c-.012.21-.171.382-.378.382h-1.843a.382.382 0 0 1-.378-.382V43.322zm5.88 6.064c1.062 0 1.977-.925 1.977-2.059 0-1.072-.927-1.96-1.976-1.96h-3.258v4.019h3.258zM42.947 43.322c0-.21.171-.383.379-.383h8.15c.207 0 .378.173.378.383v1.664c0 .21-.17.382-.378.382h-5.93v3.315h4.942a.39.39 0 0 1 .378.382v1.677c0 .21-.171.382-.378.382h-4.942v3.537h5.93c.207 0 .378.173.378.382v1.664c0 .21-.17.382-.378.382h-8.15a.382.382 0 0 1-.379-.382V43.322zM54.929 43.322c.012-.21.17-.383.378-.383h1.903c.208 0 .379.173.379.383v8.43c0 1.714 1.159 2.91 2.903 2.91 1.745 0 2.929-1.196 2.929-2.897v-8.443c0-.21.17-.383.378-.383h1.903a.39.39 0 0 1 .378.383V51.9c0 3.07-2.415 5.399-5.588 5.399-3.147 0-5.563-2.33-5.563-5.399v-8.578zM69.924 43.322c0-.21.17-.383.378-.383H75c2.465 0 4.478 2.022 4.478 4.475 0 2.502-1.989 4.523-4.465 4.548h-2.49v4.745c-.012.21-.17.382-.378.382h-1.842a.382.382 0 0 1-.378-.382V43.322zm5.002 6.162c1.123 0 1.977-.912 1.977-2.107 0-1.11-.854-1.96-1.977-1.96h-2.403v4.067h2.403z"/>
        <g>
            <path d="M.06 61.854c0-.043.043-.086.085-.086h1.04c.554 0 1.01.46 1.01 1.02 0 .561-.456 1.021-1.01 1.021H.53v1.079c0 .043-.043.086-.086.086H.145c-.042 0-.085-.043-.085-.086v-3.034zm1.11 1.524c.313 0 .57-.273.555-.59a.543.543 0 0 0-.54-.546H.53v1.136h.64zM3.262 64.873l1.395-3.091c.014-.029.043-.043.071-.058h.043c.028 0 .057.03.071.058l1.395 3.091a.113.113 0 0 1-.029.115c-.014 0-.028.015-.042.015H5.88a.107.107 0 0 1-.1-.072l-.284-.633H4.002l-.284.633a.107.107 0 0 1-.1.072h-.285c-.042 0-.085-.03-.085-.072 0-.029 0-.043.014-.058zm2.064-.977L4.77 62.63h-.029l-.555 1.266h1.139zM8.172 62.199h-.74c-.042 0-.085-.043-.085-.086v-.26c0-.042.043-.085.085-.085h1.964c.043 0 .086.043.086.086v.259c0 .043-.043.086-.086.086h-.74v2.703c0 .043-.042.086-.085.086h-.299c-.043 0-.085-.043-.085-.086L8.172 62.2zM11.147 61.854c0-.043.043-.086.085-.086h.3c.042 0 .085.043.085.086v3.048c0 .043-.043.086-.086.086h-.299c-.042 0-.085-.043-.085-.086v-3.048zM13.595 61.854c0-.043.043-.086.085-.086h1.822c.043 0 .086.043.086.086v.259c0 .043-.043.086-.086.086h-1.437v.935h1.21c.042 0 .085.043.085.086v.259c0 .043-.043.086-.086.086h-1.21v.992h1.438c.043 0 .086.043.086.086v.26c0 .042-.043.085-.086.085H13.68c-.042 0-.085-.043-.085-.086v-3.048zM17.352 61.81c0-.042.043-.086.086-.086h.042c.057-.014.114.015.143.072l1.907 2.243h.014v-2.17c0-.044.043-.087.085-.087h.285c.043 0 .086.043.086.086v3.092c0 .043-.043.086-.086.086h-.043c-.056 0-.1-.015-.128-.058l-1.921-2.315h-.014v2.243c0 .043-.043.087-.086.087h-.284c-.043 0-.086-.044-.086-.087v-3.105zM22.49 62.199h-.74c-.042 0-.085-.043-.085-.086v-.26c0-.042.043-.085.085-.085h1.964c.043 0 .086.043.086.086v.259c0 .043-.043.086-.086.086h-.74v2.703c0 .043-.042.086-.085.086h-.299c-.043 0-.085-.043-.085-.086V62.2h-.015zM29.151 61.724c.413 0 .797.144 1.096.431.028.03.043.087.014.115l-.014.015-.2.201c-.028.043-.07.043-.113 0a1.308 1.308 0 0 0-.783-.316 1.186 1.186 0 0 0-1.139 1.236c.029.633.527 1.136 1.14 1.15.284 0 .568-.115.782-.301a.086.086 0 0 1 .114 0l.213.2a.088.088 0 0 1 0 .116 1.6 1.6 0 0 1-1.11.446c-.91.057-1.68-.647-1.736-1.553a1.66 1.66 0 0 1 1.537-1.754.31.31 0 0 0 .2.014zM31.628 64.873l1.394-3.091c.015-.029.043-.043.086-.058h.042c.029 0 .057.03.072.058l1.394 3.091c.029.043.015.087-.028.115-.014.015-.029.015-.043.015h-.284a.107.107 0 0 1-.1-.072l-.285-.633h-1.48l-.285.633a.107.107 0 0 1-.1.072h-.284c-.043 0-.085-.03-.085-.072-.029-.029-.029-.043-.014-.058zm2.063-.977l-.555-1.266h-.028l-.555 1.266h1.138zM36.196 61.854c0-.044.043-.087.086-.087h1.238c.54-.014.982.432.996.978v.014c-.014.417-.285.791-.669.935l.626 1.165c.029.043.015.1-.028.115-.014.014-.029.014-.057.014h-.342c-.042 0-.085-.014-.1-.058l-.597-1.193h-.683v1.179c0 .043-.043.086-.086.086h-.298c-.043 0-.086-.043-.086-.086v-3.062zm1.281 1.48a.562.562 0 0 0 .555-.575.565.565 0 0 0-.555-.546h-.811v1.121h.811zM40.31 61.854c0-.043.042-.086.085-.086h1.821c.043 0 .086.043.086.086v.259c0 .043-.043.086-.086.086h-1.451v.935h1.21c.042 0 .085.043.085.086v.259c0 .043-.043.086-.086.086h-1.21v.992h1.438c.043 0 .085.043.085.086v.26c0 .042-.042.085-.085.085H40.38c-.042 0-.085-.043-.085-.086l.014-3.048zM46.13 64.528l.114-.187c.029-.057.086-.072.143-.043 0 0 .014 0 .014.015.213.172.384.316.726.316.313 0 .512-.187.512-.431 0-.274-.242-.446-.683-.647-.441-.202-.825-.446-.825-.978 0-.36.27-.849.996-.849.299 0 .598.101.84.274.056.028.056.1.028.158l-.114.172c-.028.058-.085.087-.142.058 0 0-.014 0-.014-.015a1.036 1.036 0 0 0-.612-.23c-.385 0-.513.245-.513.417 0 .26.2.417.584.576.526.215.982.474.982 1.035 0 .474-.427.862-1.01.862-.357 0-.712-.129-.983-.359-.057-.029-.1-.072-.042-.144zM51.34 61.724c.91 0 1.636.734 1.65 1.654 0 .92-.725 1.653-1.636 1.668-.911 0-1.637-.733-1.651-1.654 0-.92.726-1.668 1.636-1.668-.014 0 0 0 0 0zm0 2.862a1.211 1.211 0 0 0 1.223-1.194 1.203 1.203 0 0 0-1.18-1.236 1.211 1.211 0 0 0-1.225 1.193v.029c0 .661.527 1.208 1.181 1.208zM54.741 61.854c0-.043.043-.086.085-.086h.3c.042 0 .085.043.085.086v2.703h1.238c.043 0 .085.043.085.086v.26c0 .042-.042.085-.085.085h-1.623c-.042 0-.085-.043-.085-.086v-3.048zM58.043 61.854c0-.043.043-.086.085-.086h.3c.042 0 .085.043.085.086v1.941c-.014.431.299.79.726.805a.758.758 0 0 0 .797-.733v-2.013c0-.043.042-.086.085-.086h.313c.043 0 .086.043.086.086v1.97c0 .704-.527 1.207-1.239 1.207-.711 0-1.238-.503-1.238-1.207v-1.97zM62.996 62.199h-.74c-.043 0-.086-.043-.086-.086v-.26c0-.042.043-.085.086-.085h1.95c.042 0 .085.043.085.086v.259c0 .043-.043.086-.085.086h-.74v2.703c0 .043-.043.086-.086.086h-.299c-.043 0-.085-.043-.085-.086V62.2zM65.97 61.854c0-.043.043-.086.086-.086h.299c.043 0 .085.043.085.086v3.048c0 .043-.042.086-.085.086h-.3c-.042 0-.084-.043-.084-.086v-3.048zM69.842 61.724c.91 0 1.636.734 1.636 1.654a1.636 1.636 0 1 1-3.273 0c0-.906.726-1.654 1.637-1.654zm0 2.862a1.19 1.19 0 0 0 1.21-1.194 1.191 1.191 0 0 0-1.182-1.222 1.19 1.19 0 0 0-1.21 1.194v.028c0 .647.527 1.194 1.182 1.194zM73.258 61.81c0-.042.042-.086.085-.086h.028c.057-.014.114.015.143.072l1.907 2.243h.014v-2.17c0-.044.043-.087.086-.087h.284c.043 0 .086.043.086.086v3.092c0 .043-.043.086-.086.086h-.042c-.057 0-.1-.015-.129-.058l-1.921-2.315h-.014v2.243c0 .043-.043.087-.086.087h-.284c-.043 0-.086-.044-.086-.087l.015-3.105zM77.698 64.528l.114-.187c.028-.057.085-.072.142-.043 0 0 .014 0 .014.015.214.172.385.316.726.316.313 0 .513-.187.513-.431 0-.274-.242-.446-.684-.647-.44-.202-.825-.446-.825-.978 0-.36.27-.849.996-.849.3 0 .598.101.84.274.057.028.057.1.028.158l-.113.172c-.029.058-.086.087-.143.058 0 0-.014 0-.014-.015a1.036 1.036 0 0 0-.612-.23c-.384 0-.512.245-.512.417 0 .26.199.417.583.576.527.215.982.474.982 1.035 0 .474-.427.862-1.01.862-.356 0-.712-.129-.982-.359-.057-.029-.1-.072-.043-.144z"/>
        </g>
    </g>
</svg>
