<svg xmlns="http://www.w3.org/2000/svg" width="160" height="21" viewBox="0 0 160 21">
    <g fill="#FFF" fill-rule="nonzero">
        <path d="M15.714 0C7.05 0 0 7.033 0 15.678c0 .722.586 1.307 1.31 1.307h9.338a5.233 5.233 0 0 0 10.133 0h9.338c.723 0 1.31-.585 1.31-1.307C31.429 7.033 24.379 0 15.714 0zM2.684 14.372c.66-6.593 6.252-11.759 13.03-11.759 6.78 0 12.371 5.166 13.03 11.759H2.685z"/>
        <path d="M14.291 17.872a2.61 2.61 0 0 1-.775-3.614c.786-1.211 6.127-5.112 6.127-5.112s-.944 6.74-1.73 7.952a2.623 2.623 0 0 1-3.622.774z"/>
        <path d="M6.483 12.048a.657.657 0 0 1-1.177-.582c2.268-4.568 5.743-6.893 10.346-6.893 3.633 0 6.68 1.581 9.092 4.704a.654.654 0 0 1-.119.919.658.658 0 0 1-.92-.12c-2.171-2.808-4.839-4.193-8.053-4.193-4.085 0-7.115 2.027-9.169 6.165zM46.24 12.423l.604.356c-1.332 2.01-2.985 2.597-4.655 2.597-2.612 0-5.046-1.423-5.046-4.82 0-3.256 2.22-5.284 5.508-5.284 3.483 0 4.282 2.26 4.122 4.767H40.59c.089 2.65 1.297 3.504 2.86 3.504.889 0 1.973-.266 2.79-1.12zm-3.855-6.226c-1.031 0-1.653 1.192-1.777 2.882h3.127c.053-2.01-.462-2.882-1.35-2.882zm14.268 5.372h.533l-.213 3.593h-9.026v-.373l4.868-8.307H51.43c-1.563 0-2.22.854-2.754 2.277h-.533V5.486h8.707v.373l-4.869 8.307h1.688c1.564 0 2.274-.854 2.985-2.597zm10.84 3.807c-2.487 0-4.957-1.423-4.957-4.839 0-3.326 2.363-5.265 5.49-5.265 2.381 0 3.66 1.139 3.66 2.313 0 .836-.657 1.76-2.007 1.814l-.267-.73c-.675-1.85-1.066-2.472-1.759-2.472-1.12 0-1.563 1.601-1.563 3.38 0 3.024 1.279 3.966 2.736 3.966.817 0 1.688-.302 2.487-1.12l.605.356c-1.315 1.956-2.755 2.597-4.425 2.597zm15.673-2.1l.213.499c-.604.925-1.76 1.6-2.879 1.6-1.066 0-1.617-.622-1.812-1.547-.586.96-1.546 1.548-2.985 1.548-1.741 0-2.967-.872-2.967-2.455 0-2.028 1.972-2.917 4.637-2.917a9 9 0 0 1 1.208.071V8.296c0-1.476-.568-2.027-1.261-2.027-.782 0-1.333.675-2.221 1.85l-.675.889c-.836-.196-1.28-.818-1.28-1.459 0-1.28 1.777-2.277 4.584-2.277 3.27 0 4.194 1.352 4.194 3.771v3.558c0 .569.177.89.568.89.231 0 .498-.108.676-.214zm-5.935.463c.96 0 1.35-.783 1.35-2.597V11a7.18 7.18 0 0 0-.87-.071c-1.262 0-1.6.605-1.6 1.458 0 .943.427 1.352 1.12 1.352zm24.61-.32c0 .854.177 1.067 1.244 1.245v.498h-5.65v-.498c.852-.178 1.065-.391 1.065-1.245V8.972c0-1.405-.355-2.028-1.315-2.028-1.297 0-1.972 1.174-1.972 3.095v3.38c0 .854.284 1.067 1.137 1.245v.498h-5.543v-.498c.853-.178 1.066-.391 1.066-1.245V8.972c0-1.405-.356-2.028-1.315-2.028-1.297 0-1.972 1.174-1.972 3.095v3.38c0 .854.284 1.067 1.137 1.245v.498H84v-.498c1.066-.178 1.244-.391 1.244-1.245V8.225c0-.854-.355-1.6-1.244-1.779v-.498l4.034-.604h.462v1.92h.07c.676-1.244 1.884-1.992 3.555-1.992 1.74 0 2.647.819 2.95 2.206.656-1.37 1.918-2.206 3.677-2.206 2.257 0 3.092 1.352 3.092 3.558v4.589zm9.666-8.147c2.168 0 4.016 1.69 4.016 4.75 0 3.361-2.22 5.354-5.313 5.354a6.364 6.364 0 0 1-1.759-.232v1.904c0 .853.285 1.067 1.137 1.245v.498h-5.72v-.498c1.065-.178 1.243-.392 1.243-1.245V8.225c0-.854-.356-1.6-1.244-1.779v-.498l4.033-.604h.462v1.814h.072c.621-1.174 1.67-1.886 3.073-1.886zm-1.385 9.143c1.172 0 1.954-.925 1.954-3.789 0-2.49-.622-3.682-1.777-3.682-1.155 0-1.848 1.157-1.848 3.095v3.718c.551.462 1.137.658 1.67.658zm17.218-1.138l.213.498c-.604.925-1.76 1.6-2.879 1.6-1.066 0-1.616-.622-1.812-1.547-.586.96-1.546 1.548-2.985 1.548-1.741 0-2.967-.872-2.967-2.455 0-2.028 1.972-2.917 4.637-2.917a9 9 0 0 1 1.209.071V8.296c0-1.476-.57-2.027-1.262-2.027-.782 0-1.333.675-2.221 1.85l-.675.889c-.835-.196-1.28-.818-1.28-1.459 0-1.28 1.777-2.277 4.585-2.277 3.269 0 4.193 1.352 4.193 3.771v3.558c0 .569.178.89.569.89.23 0 .497-.108.675-.214zm-5.935.462c.96 0 1.35-.783 1.35-2.597V11a7.18 7.18 0 0 0-.87-.071c-1.262 0-1.6.605-1.6 1.458 0 .943.427 1.352 1.12 1.352zm9.951-9.285c-1.066 0-1.83-.64-1.83-1.725 0-.996.764-1.779 1.83-1.779s1.83.623 1.83 1.708c0 1.014-.764 1.796-1.83 1.796zm-2.825 10.708v-.498c1.066-.178 1.244-.391 1.244-1.245V8.225c0-.854-.356-1.6-1.244-1.779v-.498l4.033-.604h.551v8.075c0 .854.284 1.067 1.137 1.245v.498h-5.721zm17.68-8.787h-.71c-.41 0-.782.036-1.12.178.426.48.675 1.103.675 1.832 0 2.152-2.061 3.415-4.762 3.415-.462 0-.942-.035-1.332-.106l-.285.16c-.39.213-.586.409-.586.604 0 .214.195.32.8.356l3.482.178c2.203.107 3.465.89 3.465 2.42 0 2.134-2.47 3.592-6.432 3.592-2.239 0-3.803-.462-3.803-1.743 0-.694.445-1.21 1.493-1.21.195 0 .426.018.746.072-.018.16-.035.302-.035.426 0 .872.888 1.423 2.54 1.423 1.795 0 2.879-.64 2.879-1.511 0-.57-.444-.854-1.564-.908l-3.624-.177c-1.795-.09-2.47-.765-2.47-1.726 0-1.067.835-1.69 1.954-2.134l.32-.125c-1.155-.391-2.203-1.21-2.203-2.739 0-2.134 2.043-3.38 4.886-3.38 1.137 0 2.132.196 2.914.587.32-.658.87-1.262 1.706-1.262 1.03 0 1.315.853 1.066 1.778zm-5.846 4.536c1.066 0 1.493-.943 1.493-2.348 0-1.476-.462-2.383-1.528-2.383s-1.493.871-1.493 2.276c0 1.477.462 2.455 1.528 2.455zm18.391 2.508c0 .854.178 1.067 1.244 1.245v.498h-5.65v-.498c.853-.178 1.066-.391 1.066-1.245V8.972c0-1.405-.462-2.028-1.422-2.028-1.297 0-1.972 1.174-1.972 3.095v3.38c0 .854.284 1.067 1.137 1.245v.498h-5.721v-.498c1.066-.178 1.244-.391 1.244-1.245V8.225c0-.854-.356-1.6-1.244-1.779v-.498l4.033-.604h.462v1.92h.071c.675-1.244 1.884-1.992 3.554-1.992 2.256 0 3.198 1.352 3.198 3.558v4.589z"/>
    </g>
</svg>
