<svg xmlns="http://www.w3.org/2000/svg" width="149" height="35" viewBox="0 0 149 35">
    <g fill="#FFF" fill-rule="nonzero">
        <path d="M13.094 26.667H0v-.074l1.922-2.644c.193-.276.29-.614.276-.957V4.508a1.554 1.554 0 0 0-.276-.957L0 .901V.834h19.167v9.441h-.065l-5.413-8.119a1.073 1.073 0 0 0-.947-.57h-2.128c-.281 0-.449.035-.508.109a1.127 1.127 0 0 0-.087.57v11.213h1.261c.331-.005.646-.15.872-.405l3.702-4.12h.07v9.812h-.07l-3.702-4.114c-.226-.254-.541-.4-.872-.404h-1.26v8.546c.004.331.13.648.35.883l2.707 2.9.017.092zM29.241 0v23.898c-.013.329.082.652.268.913l1.324 1.782v.074H20.85v-.074l1.272-1.782c.186-.26.283-.58.273-.907V3.89a1.498 1.498 0 0 0-.273-.908l-1.288-1.821v-.068L29.241 0zM49.963 17.488H39.278c.075 2.03.58 3.505 1.515 4.424a4.901 4.901 0 0 0 3.604 1.379 6.752 6.752 0 0 0 3.046-.727 5.158 5.158 0 0 0 2.235-2.14l.073.04c-.995 4.692-3.834 7.036-8.517 7.032a9.963 9.963 0 0 1-6.773-2.417c-1.863-1.615-2.794-3.972-2.794-7.072 0-3.222.901-5.641 2.704-7.256 1.804-1.615 4.184-2.421 7.143-2.417 1.022-.01 2.04.122 3.029.392a8.71 8.71 0 0 1 2.682 1.28 5.933 5.933 0 0 1 2.034 2.608c.52 1.295.772 2.688.738 4.09.002.261-.01.523-.034.784zm-8.584-8.41c-.743 0-1.285.53-1.62 1.598-.336 1.067-.48 3.092-.48 6.103h4.073c.023-.385.034-.962.034-1.73a18.942 18.942 0 0 0-.308-3.889 3.52 3.52 0 0 0-.704-1.73 1.397 1.397 0 0 0-.995-.352zM59.241 8.585v15.33a1.44 1.44 0 0 0 .273.904l1.32 1.775v.073h-9.985v-.073l1.272-1.77a1.44 1.44 0 0 0 .273-.904V11.377a1.452 1.452 0 0 0-.273-.904l-1.288-1.815v-.073h8.408zm-3.42-1.59a3.238 3.238 0 0 1-2.24-.82 2.78 2.78 0 0 1-.914-2.19c-.036-.875.3-1.72.915-2.298a3.381 3.381 0 0 1 4.493 0c.603.585.933 1.427.898 2.298.032.839-.3 1.647-.898 2.19a3.223 3.223 0 0 1-2.255.82zM72.059 24.462a1.92 1.92 0 0 0-.675-1.45 13.466 13.466 0 0 0-2.618-1.617l-2.382-1.27c-2.25-1.19-3.376-3.04-3.376-5.55-.054-1.783.687-3.483 1.984-4.55 1.319-1.128 3.216-1.692 5.69-1.692 2.18.02 4.349.359 6.45 1.005l-2.262 5.81h-.068l-2.869-5.55c-.183-.323-.35-.497-.523-.52a3.243 3.243 0 0 0-.524-.04 2.928 2.928 0 0 0-1.858.577c-.478.39-.745 1.02-.707 1.675-.005.713.28 1.39.775 1.848a10.22 10.22 0 0 0 2.617 1.657l2.094 1.005a8.181 8.181 0 0 1 2.743 2.015 4.94 4.94 0 0 1 .943 3.205c.071 1.902-.752 3.71-2.178 4.781-1.452 1.132-3.473 1.698-6.062 1.698a18.785 18.785 0 0 1-6.753-1.19l2.125-6.074h.068l3.178 6.126a.74.74 0 0 0 .523.41c.212.027.426.038.64.035a3.58 3.58 0 0 0 2.182-.612c.54-.371.86-1.03.843-1.732zM99.137 23.898c-.013.328.09.65.29.908l1.406 1.782v.073h-10.69v-.073l1.372-1.777c.199-.26.302-.58.291-.907 0-.147.017-1.196.05-3.147.034-1.951.053-3.291.057-4.02a17.851 17.851 0 0 0-.146-2.527 3.61 3.61 0 0 0-.739-1.725 1.999 1.999 0 0 0-1.68-.767 2.692 2.692 0 0 0-2.06 1.02v11.166c-.014.327.09.65.29.907l1.412 1.782v.074H78.35v-.074l1.355-1.782c.197-.26.298-.58.286-.907V3.89a1.428 1.428 0 0 0-.286-.908l-1.372-1.821v-.068L87.293 0v12.186c1.086-2.632 3.074-3.947 5.964-3.947a5.21 5.21 0 0 1 4.48 2.052c1.023 1.369 1.536 3.316 1.54 5.842 0 .97 0 2.385-.056 4.252a163.685 163.685 0 0 0-.084 3.513zM110.908 8.585v15.33a1.47 1.47 0 0 0 .268.904l1.324 1.775v.073h-9.984v-.073l1.271-1.77c.187-.258.283-.578.274-.904V11.377a1.488 1.488 0 0 0-.274-.904L102.5 8.658v-.073h8.408zm-3.426-1.59a3.238 3.238 0 0 1-2.239-.82 2.78 2.78 0 0 1-.914-2.19c-.037-.875.3-1.72.914-2.298a3.381 3.381 0 0 1 4.493 0 3.01 3.01 0 0 1 .899 2.298 2.8 2.8 0 0 1-.9 2.19 3.223 3.223 0 0 1-2.253.82zM113.578 14.561c0-2.035.76-3.53 2.279-4.488 1.519-.956 3.607-1.435 6.265-1.435a13.517 13.517 0 0 1 5.474.924c.245.116.524.033.843-.253l3.987-3.476.074.039v5.285h-3.492a4.508 4.508 0 0 1 1.766 3.69c0 3.666-2.848 5.5-8.544 5.5-1.17.015-2.34-.08-3.491-.286-.344.191-.56.54-.57.924 0 .99 1.345 1.49 4.039 1.49h3.673c4.386 0 6.58 1.536 6.58 4.609 0 2.295-1.055 4.187-3.162 5.675-2.108 1.489-4.813 2.235-8.117 2.238a15.372 15.372 0 0 1-5.274-.83c-1.519-.557-2.278-1.355-2.278-2.392a2.251 2.251 0 0 1 1.008-1.81 6.68 6.68 0 0 1 3.178-1.067 6.527 6.527 0 0 1-3.303-1.54 3.565 3.565 0 0 1-1.18-2.678 3.84 3.84 0 0 1 1.345-2.931 7.989 7.989 0 0 1 3.65-1.754c-3.166-.756-4.75-2.567-4.75-5.434zm6.266 14.58a13.285 13.285 0 0 1-1.612-.177 2.143 2.143 0 0 0-1.065 1.777c0 1.017.57 1.842 1.669 2.48a7.832 7.832 0 0 0 3.93.946 8.081 8.081 0 0 0 3.725-.814c.954-.382 1.582-1.274 1.6-2.271a1.502 1.502 0 0 0-.609-1.315 4.595 4.595 0 0 0-2.33-.456l-5.308-.17zm.478-14.723c0 2.013.16 3.393.479 4.152.319.76.786 1.133 1.395 1.133.61 0 1.14-.374 1.419-1.133.279-.759.455-2.128.455-4.113 0-1.986-.154-3.35-.455-4.081-.124-.666-.724-1.15-1.424-1.15s-1.3.484-1.424 1.15c-.312.733-.467 2.08-.467 4.042h.022zM142.887 24.458a1.923 1.923 0 0 0-.676-1.451 13.376 13.376 0 0 0-2.617-1.619l-2.377-1.272c-2.25-1.19-3.376-3.043-3.376-5.556-.051-1.776.686-3.468 1.974-4.533 1.319-1.129 3.215-1.694 5.69-1.694 2.18.02 4.349.359 6.449 1.006l-2.262 5.817h-.068l-2.868-5.557c-.183-.323-.35-.497-.524-.52a3.239 3.239 0 0 0-.523-.04 2.926 2.926 0 0 0-1.858.578c-.482.387-.751 1.02-.712 1.676-.003.715.283 1.393.78 1.85a10.27 10.27 0 0 0 2.617 1.66l2.094 1.006a8.063 8.063 0 0 1 2.748 1.994c.673.898 1.012 2.046.948 3.21.071 1.903-.752 3.713-2.178 4.786-1.455 1.133-3.476 1.7-6.062 1.7a18.74 18.74 0 0 1-6.753-1.191l2.147-6.065h.068l3.172 6.117a.745.745 0 0 0 .523.41c.212.027.426.038.639.035a3.549 3.549 0 0 0 2.178-.613c.535-.374.85-1.034.827-1.734z"/>
    </g>
</svg>
