<svg xmlns="http://www.w3.org/2000/svg" xmlns:xlink="http://www.w3.org/1999/xlink" width="145" height="70" viewBox="0 0 145 70">
    <defs>
        <path id="a" d="M.549.74h21.438v15.593H.549z"/>
        <path id="c" d="M.744.773h21.439v15.56H.744z"/>
    </defs>
    <g fill="none" fill-rule="evenodd">
        <path fill="#FFF" d="M11.639 69.718c-.991 0-1.983-.09-2.964-.181-.678-.062-1.352-.125-2.015-.153-3.501-.148-6.374-3.52-6.602-6.435-.39-4.96 1.184-7.276 5.616-8.259 2.51-.557 5.163-.4 7.73-.25.89.052 1.778.105 2.658.127.658.017 1.24.33 1.753.605.193.104.387.21.581.293.396.17.58.626.41 1.02a.78.78 0 0 1-1.024.41 9.059 9.059 0 0 1-.707-.353c-.378-.203-.767-.413-1.053-.42-.897-.023-1.803-.076-2.71-.13-2.46-.145-5.003-.293-7.3.216-3.661.812-4.73 2.421-4.4 6.62.17 2.175 2.49 4.891 5.114 5.002.69.029 1.388.093 2.092.158 2.642.24 5.135.472 7.352-1.083l.243-.17c.722-.501 1.468-1.02 1.801-1.631.35-.642.526-1.526.473-2.332-.381-.105-1.135-.222-1.798-.247-1.508-.059-3.052-.047-4.546-.035-.618.004-1.237.01-1.855.01a.78.78 0 1 1 0-1.557c.615 0 1.23-.004 1.844-.008 1.51-.013 3.073-.024 4.617.036 3.074.117 3.202.96 3.244 1.237.184 1.22-.05 2.614-.61 3.64-.509.933-1.449 1.587-2.279 2.164l-.237.165c-1.747 1.225-3.585 1.541-5.428 1.541M63.508 69.539c-.697 0-1.51-.098-2.057-.652-.6-.606-.646-1.514-.619-2.237.122-3.271.122-6.587 0-9.856-.027-.725.019-1.634.62-2.241.604-.61 1.53-.664 2.264-.647 3.052.08 6.164.064 9.173.05 1.223-.006 2.445-.012 3.669-.012a.778.778 0 1 1 0 1.555c-1.221 0-2.441.007-3.662.012-3.02.015-6.145.03-9.22-.05-.75-.02-1.02.09-1.114.185-.094.094-.199.36-.172 1.09.124 3.308.124 6.662 0 9.971-.027.729.078.994.171 1.088.094.095.363.21 1.116.186 3.222-.078 6.496-.063 9.66-.049 1.269.005 2.537.011 3.805.011a.778.778 0 1 1 0 1.556c-1.27 0-2.541-.007-3.811-.011-3.155-.014-6.417-.03-9.617.049a8.876 8.876 0 0 1-.206.002"/>
        <g transform="translate(20.269 53.457)">
            <mask id="b" fill="#fff">
                <use xlink:href="#a"/>
            </mask>
            <path fill="#FFF" d="M21.208 16.333a.78.78 0 0 1-.649-.346l-2.424-3.623a1887.74 1887.74 0 0 1-5.758-8.633c-.355-.537-.717-1.083-.94-1.336-.248.273-.656.883-.97 1.352A454.381 454.381 0 0 0 6.62 9.623c-1.06 1.635-2.118 3.27-3.194 4.893-.31.467-.707.824-1.092 1.169-.154.138-.308.276-.453.42a.78.78 0 0 1-1.103 0 .776.776 0 0 1 0-1.1c.164-.163.339-.32.513-.476.326-.293.635-.57.834-.87 1.073-1.62 2.129-3.25 3.185-4.88a448.788 448.788 0 0 1 3.862-5.897c.925-1.38 1.434-2.142 2.27-2.142h.003c.823.002 1.293.712 2.228 2.125 1.913 2.891 3.836 5.763 5.759 8.634l2.425 3.625a.777.777 0 0 1-.648 1.21" mask="url(#b)"/>
        </g>
        <g transform="translate(103.683 53.457)">
            <mask id="d" fill="#fff">
                <use xlink:href="#c"/>
            </mask>
            <path fill="#FFF" d="M21.404 16.333a.779.779 0 0 1-.625-.31c-.447-.595-.9-1.185-1.354-1.774-1.019-1.323-2.072-2.692-3.033-4.103-.92-1.353-1.789-2.763-2.628-4.128-.592-.96-1.183-1.92-1.796-2.868-.352-.544-.548-.733-.636-.797-.096.073-.328.303-.727 1.004-1.696 2.979-3.636 5.87-5.512 8.666-.686 1.024-1.374 2.049-2.05 3.078-.206.315-.473.554-.709.764-.088.08-.176.158-.26.24a.78.78 0 0 1-1.101 0 .776.776 0 0 1 0-1.1c.102-.102.21-.2.32-.297.18-.161.35-.314.445-.46.68-1.034 1.37-2.062 2.06-3.09 1.86-2.773 3.784-5.64 5.452-8.57C9.778 1.661 10.39.8 11.29.774c.9-.027 1.465.723 1.988 1.533.62.956 1.217 1.926 1.814 2.897.831 1.35 1.69 2.745 2.59 4.069.935 1.373 1.975 2.723 2.98 4.03.457.593.915 1.187 1.364 1.786a.776.776 0 0 1-.622 1.244" mask="url(#d)"/>
        </g>
        <path fill="#FFF" d="M86.804 69.758a.78.78 0 0 1-.702-.439c-.446-.92-.855-1.77-1.241-2.573-.822-1.706-1.538-3.196-2.283-4.671-.861-1.704-1.749-3.395-2.637-5.086l-1.152-2.2a.78.78 0 0 1 1.384-.718l1.15 2.196c.89 1.698 1.782 3.396 2.646 5.108.75 1.484 1.471 2.982 2.298 4.698.152.319.31.644.47.979l4.59-11.453a.783.783 0 0 1 1.014-.433c.4.16.594.612.434 1.01L87.528 69.27a.78.78 0 0 1-.697.488h-.027M49.37 69.79h-.017a.778.778 0 0 1-.763-.794l.293-13.708c.01-.43.37-.76.796-.761a.78.78 0 0 1 .763.794l-.293 13.708a.78.78 0 0 1-.78.761"/>
        <path fill="#FFF" d="M98.18 69.588h-.017a.779.779 0 0 1-.7-.475l-5.837-13.798a.777.777 0 0 1 .415-1.019.781.781 0 0 1 1.02.415l5.163 12.202 5.987-12.526a.78.78 0 0 1 1.039-.368c.388.185.553.65.368 1.037l-6.734 14.09a.779.779 0 0 1-.703.442M75.388 62.499H62.233a.778.778 0 1 1 0-1.556h13.155a.778.778 0 1 1 0 1.556M120.993 65.124h-11.694a.778.778 0 1 1 0-1.556h11.694a.778.778 0 1 1 0 1.556M37.676 65.124H25.982a.778.778 0 1 1 0-1.556h11.694a.778.778 0 1 1 0 1.556M133.856 65.124a.779.779 0 0 1-.577-.255 86.286 86.286 0 0 1-.908-1.016c-.643-.724-1.304-1.473-1.995-2.151a427.972 427.972 0 0 0-4.968-4.776l-2.031-1.934a.777.777 0 0 1-.024-1.1.78.78 0 0 1 1.103-.024l2.027 1.932c1.642 1.562 3.34 3.176 4.986 4.793.73.716 1.41 1.486 2.07 2.23.297.335.593.669.894 1a.778.778 0 0 1-.577 1.3"/>
        <path fill="#FFF" d="M134.149 69.79l-.045-.001a.778.778 0 0 1-.734-.82c.027-.504-.006-1.069-.041-1.666-.087-1.447-.176-2.94.634-3.93 2.026-2.478 4.371-4.736 6.64-6.92.886-.853 1.772-1.706 2.641-2.574a.781.781 0 0 1 1.102 0 .777.777 0 0 1 0 1.1c-.875.874-1.768 1.734-2.661 2.594-2.235 2.152-4.546 4.377-6.515 6.784-.424.519-.35 1.758-.285 2.853.036.616.075 1.252.041 1.846a.779.779 0 0 1-.777.734M57.847 55.5H40.892a.779.779 0 1 1 0-1.556h16.955a.779.779 0 1 1 0 1.555M95.9.345C97.663.067 99.215 0 101.002 0c1.54.406 3.083.805 4.622 1.218.497.133.993.275 1.527.427a1.435 1.435 0 0 1 1.04 1.442 1.437 1.437 0 0 1-1.713 1.344l-5.811-1.134c-.85-.166-1.664.45-1.715 1.312l-.02 42.371c0 .774-.61 1.407-1.384 1.434-4.1.147-14.361.155-19.747-.02a1.431 1.431 0 0 1-1.386-1.42l-.297-32.08a1.435 1.435 0 0 0-1.149-1.391l-2.932-.6a1.437 1.437 0 0 0-1.726 1.404V46.93c0 .784-.632 1.422-1.418 1.433-3.51.048-10.583.085-14.044.015a1.433 1.433 0 0 1-1.401-1.299 23.454 23.454 0 0 1-.121-1.998l-.176-22.424a1.435 1.435 0 0 0-1.26-1.412l-2.708-.337a1.437 1.437 0 0 0-1.616 1.424V46.95c0 .777-.618 1.415-1.397 1.433-2.288.056-5.544.071-8.135.002a1.43 1.43 0 0 1-1.39-1.378c-.186-4.935-.42-20.181-.115-25.1a1.44 1.44 0 0 1 1.014-1.279c4.437-1.424 8.75-3.87 13.82-2.883.87.17 1.68-.509 1.685-1.394l.005-.326a1.44 1.44 0 0 1 .951-1.322c1.618-.588 3.459-1.156 4.976-1.7 2.887-1.032 5.813-1.96 8.692-3.012 1.521-.556 3.164-.603 4.746-.252.66.146 1.342.236 2.06.327.787.1 1.508-.45 1.61-1.236l.084-.653c.068-.525.437-.984.953-1.162L95.901.345z"/>
    </g>
</svg>
