<svg xmlns="http://www.w3.org/2000/svg" width="188" height="54" viewBox="0 0 188 54">
    <g fill="none" fill-rule="evenodd" transform="translate(1 1)">
        <rect width="186" height="52" stroke="#BDBDBD" stroke-linecap="round" stroke-width=".5" rx="4"/>
        <path stroke="#FFF" stroke-dasharray="2,3" stroke-linecap="round" d="M9 5h168a4 4 0 0 1 4 4v34a4 4 0 0 1-4 4H9a4 4 0 0 1-4-4V9a4 4 0 0 1 4-4z"/>
        <path fill="#FFF" d="M88.392 35.926v-.017c1.546 0 3.092.01 4.638-.003 1.172-.01 1.427-.283 1.455-1.476.006-.23 0-.46 0-.69-.002-.656.119-1.413-.717-1.647-.795-.221-1.607-.325-2.277.426-.503.564-2.904.81-3.54.429-.311-.186-.448-.49-.475-.824a12.71 12.71 0 0 1-.05-1.477c.076-2.266.134-4.532-.005-6.797-.037-.598.155-1.066.607-1.485.725-.673.45-1.547.243-2.309-.189-.69-.883-.5-1.435-.53-1.05-.058-2.097.166-3.149-.008-.574-.096-.966.167-1.073.754-.15.816-.316 1.633.544 2.225.49.337.49.89.489 1.429-.007 2.368-.019 4.737-.002 7.105.006.846-.072 1.574-.806 2.2-.653.557-.402 1.417-.198 2.136.203.718.852.566 1.409.562 1.447-.01 2.894-.003 4.342-.003zM74.033 35.892v.022c1.382 0 2.763-.01 4.145.003 1.772.016 1.878-.082 1.89-1.897 0-.132-.007-.264.002-.395.062-.914-.361-1.34-1.277-1.334-.692.006-1.314.054-1.963.451-.998.61-2.23.592-3.236.154-.84-.365-.589-1.45-.575-2.243.024-1.362.522-1.63 1.795-1.074 1.985.868 2.806.368 2.837-1.729.006-.395.008-.79 0-1.184-.012-.712-.344-1.093-1.092-1.094-.698-.001-1.348.059-1.987.43-.82.476-1.414.15-1.571-.766-.131-.761.04-1.508.168-2.251.072-.418.415-.6.794-.623 1.08-.066 2.152-.118 3.163.442 1.703.944 2.928.24 2.932-1.647 0-.099.005-.198.002-.296-.032-1.044-.332-1.38-1.385-1.327-2.96.151-5.916.096-8.875-.02-.576-.023-1.345-.13-1.505.6-.173.794-.43 1.728.4 2.377.56.439.678.993.672 1.654a310.57 310.57 0 0 0-.007 6.703c.01.887-.088 1.633-.834 2.29-.65.571-.535 1.46-.281 2.225.234.706.91.517 1.446.524 1.447.016 2.894.005 4.342.005zM161.456 19.494c-1.35 0-2.7.003-4.05-.002-.44 0-.857.019-1.106.475-.41.75-.16 2.042.555 2.546.45.318.65.712.649 1.248-.007 2.633-.004 5.267-.01 7.9 0 .437-.025.949-.467 1.123-1.164.457-.875 1.402-.836 2.26.03.678.403.94 1.107.94 2.504 0 4.814 0 7.4.033 2.105.027 4.275-1.968 4.267-4.074-.011-2.992-.013-5.984-.032-8.976-.01-1.411-2.001-3.419-3.427-3.444-1.35-.024-2.7-.005-4.05-.005v-.024zM122.654 35.93l.001-.026c.525.03 1.056.022 1.573.101.874.134 1.216-.277 1.25-1.085.032-.726-.003-1.432-.226-2.142-.293-.936.08-1.53 1.037-1.571 1.245-.054 2.5-.134 3.74.087.992.177 1.292.682.858 1.618-.34.733-.284 1.474-.25 2.224.028.586.359.919.962.874 1.216-.091 2.428-.137 3.646-.033.505.043.963-.18 1.04-.709.128-.863.353-1.789-.61-2.398-.258-.163-.364-.45-.498-.718-1.264-2.53-2.174-5.208-3.242-7.819-.314-.768-.429-1.436.17-2.196.493-.628.264-1.489-.03-2.165-.273-.626-.957-.382-1.508-.38-1.808.005-3.618.034-5.423-.05-.827-.037-1.18.242-1.187 1.025-.005.62-.102 1.261.275 1.822.436.646.351 1.273.053 1.959-.734 1.683-1.412 3.392-2.12 5.085-.555 1.33-.805 2.833-2.096 3.836-.637.494-.348 1.428-.15 2.145.167.61.768.506 1.254.514.494.008.987.002 1.48.002zM42.88 19.52c-.824 0-1.647.019-2.47-.003-1.855-.05-1.98.29-1.798 2.222.023.246.176.493.313.712.372.59.355 1.2.074 1.792-.928 1.955-1.708 3.968-2.502 5.98-.418 1.06-.666 2.247-1.746 3.016-.64.455-.446 1.344-.267 2.041.182.706.841.614 1.395.638.854.038 1.709.098 2.563.103 1.68.01 2.24-.763 1.746-2.389-.076-.25-.227-.475-.32-.72-.36-.957.073-1.662 1.094-1.706a47.352 47.352 0 0 1 3.35-.032c1.205.035 1.668.738 1.206 1.846-.254.609-.257 1.215-.24 1.838.023.769.454 1.15 1.196 1.143 1.15-.01 2.3-.065 3.45-.09.644-.014.961-.356 1.029-.967.086-.773.099-1.518-.644-2.04-.333-.234-.486-.6-.64-.973-1.03-2.52-2.078-5.033-3.12-7.548-.3-.725-.473-1.41.147-2.108.6-.677.405-1.508.124-2.243-.25-.655-.925-.502-1.472-.51-.823-.01-1.646-.002-2.469-.001zM24.81 35.908h4.936c2.709 0 2.709 0 2.6-2.764-.096-2.399-.096-2.389-2.503-2.44-.665-.014-1.235.044-1.555.752-.23.51-.721.64-1.241.647-.724.01-1.448.018-2.172.01-1.095-.01-1.502-.397-1.505-1.485-.007-3.357.01-6.713.001-10.07-.002-.681.153-1.222.832-1.528.395-.179.555-.54.555-.971 0-.625-.007-1.251.012-1.876.022-.741-.311-1.09-1.062-1.084-1.283.01-2.566.009-3.85-.015-2.906-.054-2.898-.06-2.842 2.796.01.55.142.977.715 1.145.626.183.775.678.777 1.231.015 3.488.02 6.976.018 10.463 0 .602-.21 1.088-.857 1.291-.518.163-.682.57-.668 1.082.013.493.025.987.012 1.48-.024.954.413 1.36 1.38 1.346 2.138-.034 4.278-.01 6.417-.01zM54.08 30.75c.001.922.08 1.688-.706 2.406-.672.614-.407 1.557-.151 2.334.24.727 1.092.45 1.45.45 1.821 0 5.03.024 6.5.024 1.489 0 2.39-.373 3.345-1.357.85-.877 1.14-2.529 1.118-2.986.013-.488.013-.535.012-.883-.001-1.013.053-1.81-.623-2.555-.302-.333-.537-.825-.212-1.166 1.006-1.058.796-2.362.903-3.62.118-1.384-1.787-3.858-3.18-3.84-.949.013-1.84.013-2.832.047-1.615.056-3.374 0-4.84 0-1.465 0-2.093.461-1.76 2.052.069.334.228.615.464.854.42.428.552.96.555 1.537l-.043 6.703zM110.111 35.971v-.044c2.173 0 4.346-.017 6.518.009.836.01 1.231-.314 1.176-1.167a18.382 18.382 0 0 1-.037-1.58c.061-2.866.24-2.386-2.466-2.493-.71-.028-1.29.081-1.653.786-.253.49-.74.614-1.265.61-.724-.007-1.448-.024-2.172-.006-.967.024-1.353-.438-1.348-1.388.017-3.39.001-6.781-.003-10.172 0-.43-.062-.947.31-1.2 1.285-.875.846-2.167.868-3.334.013-.692-.484-.986-1.125-.964-1.81.063-3.618.09-5.427-.024-.514-.033-.937.157-.973.74a40.336 40.336 0 0 0-.056 2.366c0 .383.143.754.508.897.881.346.978 1.058.976 1.855-.01 3.16-.018 6.32-.005 9.48.003.759-.246 1.3-.908 1.728-.677.437-.809 3.087-.252 3.67.23.242.514.237.819.236 2.171-.01 4.343-.005 6.515-.005zM150.712 19.514c-.428 0-1.546-.023-1.293-.008.252.015-1.199-.195-1.43.529-.23.724-.41 1.576.146 2.17 1.264 1.354.892 2.937.773 4.477-.047.606-.493.765-.97.288-.231-.23-.461-.49-.599-.78-.863-1.818-2.154-3.379-3.065-5.168-.687-1.35-1.154-1.361-2.67-1.452-.572-.034-1.574-.05-1.574-.05s-1.327-.17-1.531.546c-.216.755-.473 1.658.334 2.276.568.435.717.973.715 1.634-.01 2.403-.013 4.806.007 7.208.007.792-.116 1.42-.835 1.964-.728.551-.378 1.483-.27 2.223.1.687.794.54 1.306.55 1.184.025 2.369.016 3.55.067.555.023.93-.166 1.007-.705.128-.895.414-1.846-.612-2.48-.295-.183-.394-.52-.39-.867.011-.888.02-1.777.048-2.664.01-.33.044-.706.423-.817.446-.131.636.236.823.548.779 1.297 1.672 2.541 2.303 3.907 1.082 2.34 1.44 3.01 5.337 3.01.23 0 1.237.105 1.426-.584.204-.744.397-1.598-.306-2.212-.506-.442-.634-.95-.63-1.573.011-2.337.011-4.674-.007-7.011-.007-.874.066-1.664.713-2.375.519-.57.487-1.37.197-2.06-.28-.66-.94-.612-1.544-.599-.46.01-.921.002-1.382.002v.006z"/>
        <path fill="#000" d="M57.901 30.814c.007-1.81.205-2.031 1.825-2.025 1.605.005 2.203.605 2.183 2.191-.019 1.53-.624 2.115-2.19 2.112-1.579-.002-1.825-.311-1.818-2.278M59.688 22.39c1.617.036 2.151.427 2.208 1.565.067 1.319-.628 2.027-1.956 1.992-1.855-.049-2.472-.928-1.946-2.74.282-.97 1.062-.796 1.694-.817M42.62 28.907c-1.353 0-1.67-.456-1.174-1.695.17-.427.347-.851.535-1.27.134-.3.27-.651.653-.662.43-.011.592.363.745.69.165.357.299.728.455 1.09.609 1.405.319 1.848-1.215 1.847M128.11 28.912c-1.475.008-1.747-.378-1.241-1.75.158-.428.28-.87.454-1.292.143-.349.393-.623.813-.588.38.031.54.332.652.65.151.431.267.876.439 1.298.515 1.267.25 1.674-1.118 1.682M161.101 27.69c0-1.281-.013-2.563.003-3.844.015-1.146.457-1.552 1.573-1.493 2.174.116 2.51.476 2.51 2.699.002 1.906-.035 3.812.011 5.717.058 2.407-1.486 2.576-3.346 2.197-.613-.125-.753-.662-.751-1.235.005-1.347.001-2.694 0-4.04"/>
    </g>
</svg>
