<svg width="174" height="32" fill="none" xmlns="http://www.w3.org/2000/svg"><path d="M138.332 28.18h12.784v-1.938h-12.784v1.938zM.279 12.446h7.88v-2.091h-5.58V.243H.28v12.202zM8.677 12.446h2.37l.663-2.684h4.358l.663 2.684h2.37L15.894.244h-4.01L8.677 12.446zm3.574-4.81l1.481-5.945h.314l1.482 5.944H12.25zM20.349 12.446h2.3v-4.95h.315l4.044 4.95h3.033l-5.264-6.188 5.09-6.014H26.92L22.964 5.09h-.314V.244h-2.301v12.202zM31.048 12.446h7.949v-2.091h-5.648V7.338h5.055V5.247h-5.055V2.336h5.543V.244h-7.844v12.202zM41.463 12.446h3.975l1.569-10.842h.313l1.57 10.842h3.974L54.467.244h-2.283l-1.186 10.599h-.313L49.15.244h-3.975l-1.534 10.599h-.314L42.143.244h-2.284l1.604 12.202zM60.575 12.69c3.068 0 5.02-1.743 5.02-4.88V4.88c0-3.137-1.952-4.88-5.02-4.88-3.068 0-5.02 1.743-5.02 4.88v2.93c0 3.137 1.952 4.88 5.02 4.88zm0-2.056c-1.709 0-2.72-1.081-2.72-2.755V4.811c0-1.673 1.011-2.754 2.72-2.754 1.708 0 2.72 1.08 2.72 2.754V7.88c0 1.674-1.012 2.755-2.72 2.755zM72.142 12.69c3.068 0 5.02-1.743 5.02-4.88V4.88c0-3.137-1.952-4.88-5.02-4.88-3.068 0-5.02 1.743-5.02 4.88v2.93c0 3.137 1.952 4.88 5.02 4.88zm0-2.056c-1.709 0-2.72-1.081-2.72-2.755V4.811c0-1.673 1.011-2.754 2.72-2.754 1.708 0 2.72 1.08 2.72 2.754V7.88c0 1.674-1.012 2.755-2.72 2.755zM78.227 12.446h5.02c3.278 0 5.021-1.673 5.021-4.95V5.195c0-3.277-1.743-4.951-5.02-4.951h-5.02v2.022h1.603v8.158h-1.604v2.022zm3.905-2.091v-8.02h1.15c1.848 0 2.685 1.012 2.685 2.79v2.44c0 1.779-.837 2.79-2.684 2.79h-1.151zM94.186 12.446h2.3V.244h-2.3v12.202zM98.569 12.446h2.266V1.813h.314l2.423 10.633h4.375V.244h-2.266v10.633h-.314L102.944.245h-4.375v12.202zM114.27 12.69c2.824 0 4.619-1.534 4.619-3.765s-1.725-3.138-4.323-3.695l-.401-.088c-1.464-.313-2.144-.75-2.144-1.656 0-.906.645-1.464 2.04-1.464 1.394 0 2.248.558 2.248 1.952v.523h2.267v-.523c0-2.65-1.901-3.974-4.515-3.974-2.615 0-4.306 1.325-4.306 3.556s1.482 3.086 4.009 3.643l.401.088c1.569.348 2.458.697 2.458 1.708 0 .976-.784 1.673-2.353 1.673-1.569 0-2.528-.732-2.528-2.196v-.488h-2.266v.488c0 2.65 1.97 4.218 4.794 4.218zM122.825 12.446h2.301V2.336h3.556V.244h-9.413v2.092h3.556v10.11zM130.036 12.446h2.301V.244h-2.301v12.202zM137.243 12.446h2.301V2.336h3.556V.244h-9.413v2.092h3.556v10.11zM149.161 12.69c2.998 0 4.776-1.743 4.776-4.532V.244h-2.301v7.984c0 1.499-.872 2.405-2.475 2.405-1.604 0-2.476-.906-2.476-2.405V.244h-2.301v7.914c0 2.79 1.778 4.532 4.777 4.532zM158.777 12.446h2.301V2.336h3.556V.244h-9.413v2.092h3.556v10.11zM165.988 12.446h7.949v-2.091h-5.648V7.338h5.055V5.247h-5.055V2.336h5.543V.244h-7.844v12.202zM5.02 31.817c3.068 0 5.02-1.743 5.02-4.88v-2.93c0-3.137-1.952-4.88-5.02-4.88-3.068 0-5.02 1.743-5.02 4.88v2.93c0 3.137 1.952 4.88 5.02 4.88zm0-2.057c-1.708 0-2.719-1.08-2.719-2.754v-3.068c0-1.674 1.011-2.754 2.72-2.754 1.708 0 2.719 1.08 2.719 2.754v3.068c0 1.673-1.011 2.754-2.72 2.754zM11.846 31.573h2.301V26.5h4.95V24.41h-4.95v-2.947h5.369v-2.091h-7.67v12.202zM27.454 31.573h2.301v-10.11h3.556V19.37h-9.413v2.091h3.556v10.111zM34.665 31.573h7.949v-2.092h-5.648v-3.016h5.055v-2.091h-5.055v-2.912h5.543v-2.091h-7.844v12.202zM48.741 31.817c2.998 0 4.707-1.743 4.707-4.602v-.244H51.18v.314c0 1.43-.801 2.475-2.44 2.475-1.639 0-2.615-1.08-2.615-2.789v-2.998c0-1.709.976-2.79 2.615-2.79 1.639 0 2.44 1.047 2.44 2.476v.174h2.267v-.104c0-2.86-1.709-4.602-4.707-4.602-3.033 0-4.916 1.743-4.916 4.88v2.93c0 3.137 1.883 4.88 4.916 4.88zM55.11 31.573h2.3V26.5h4.533v5.073h2.3V19.371h-2.3v5.038H57.41V19.37h-2.302v12.202zM66.336 31.573h2.266V20.94h.314l2.423 10.633h4.376V19.371h-2.267v10.633h-.313L70.71 19.371h-4.375v12.202zM82.543 31.817c3.067 0 5.02-1.743 5.02-4.88v-2.93c0-3.137-1.953-4.88-5.02-4.88-3.069 0-5.02 1.743-5.02 4.88v2.93c0 3.137 1.952 4.88 5.02 4.88zm0-2.057c-1.709 0-2.72-1.08-2.72-2.754v-3.068c0-1.674 1.011-2.754 2.72-2.754 1.708 0 2.719 1.08 2.719 2.754v3.068c0 1.673-1.011 2.754-2.72 2.754zM89.368 31.573h7.88v-2.092h-5.579v-10.11h-2.3v12.202zM102.919 31.817c3.068 0 5.02-1.743 5.02-4.88v-2.93c0-3.137-1.952-4.88-5.02-4.88-3.068 0-5.02 1.743-5.02 4.88v2.93c0 3.137 1.952 4.88 5.02 4.88zm0-2.057c-1.708 0-2.719-1.08-2.719-2.754v-3.068c0-1.674 1.011-2.754 2.719-2.754s2.719 1.08 2.719 2.754v3.068c0 1.673-1.011 2.754-2.719 2.754zM113.963 31.817c1.883 0 2.441-.82 2.685-1.412h.313v1.168h2.127v-6.24h-5.16v1.952h2.894v.174c0 1.36-.732 2.336-2.406 2.336-1.673 0-2.649-1.116-2.649-2.824v-2.998c0-1.709.976-2.79 2.614-2.79 1.639 0 2.441 1.012 2.441 2.302v.14h2.266v-.07c0-2.72-1.708-4.428-4.707-4.428-3.033 0-4.915 1.743-4.915 4.88v2.93c0 3.137 1.987 4.88 4.497 4.88zM123.615 31.573h2.301v-4.201l4.149-8.001h-2.562l-2.58 5.23h-.314l-2.58-5.23h-2.563l4.149 8v4.202z" fill="#fff"/></svg>