<svg xmlns="http://www.w3.org/2000/svg" width="128" height="30" viewBox="0 0 128 30">
    <g fill="#FFF" fill-rule="nonzero">
        <path d="M4.855 16.64V3.048H0V.279h13.002v2.768H8.158V16.64H4.855zm10.279 0V.28h12.132v2.768h-8.828v3.627h8.214v2.757h-8.215v4.453h9.141v2.757H15.134zm30 0H41.54l-1.428-3.716h-6.54l-1.351 3.717h-3.504L35.089.279h3.494l6.55 16.362zm-6.083-6.473l-2.254-6.071-2.21 6.071h4.464zm7.79 6.474V.279h4.945l2.968 11.16L57.69.28h4.955v16.362h-3.07V3.76l-3.247 12.88h-3.18L49.91 3.76v12.88h-3.07zm29.554-6.016l3.203 1.016c-.49 1.785-1.307 3.112-2.45 3.978-1.142.867-2.59 1.3-4.347 1.3-2.172 0-3.958-.742-5.357-2.226s-2.098-3.514-2.098-6.088c0-2.723.703-4.838 2.11-6.345C68.861.753 70.71 0 73.001 0c2.002 0 3.627.592 4.877 1.775.745.699 1.303 1.703 1.675 3.013l-3.27.781c-.194-.848-.598-1.518-1.211-2.009-.614-.49-1.36-.736-2.238-.736-1.213 0-2.197.435-2.952 1.305C69.128 5 68.75 6.41 68.75 8.36c0 2.069.372 3.542 1.116 4.42.744.878 1.711 1.317 2.902 1.317.878 0 1.633-.279 2.265-.837.633-.558 1.087-1.436 1.362-2.634zm20.793 6.016h-3.594l-1.429-3.717h-6.54l-1.35 3.717H80.77L87.143.279h3.493l6.552 16.362zm-6.083-6.474L88.85 4.096l-2.21 6.071h4.465zm7.846 6.474V.279h6.953c1.749 0 3.019.147 3.811.44.793.295 1.427.817 1.903 1.569.476.751.715 1.61.715 2.578 0 1.228-.361 2.242-1.083 3.041-.722.8-1.8 1.304-3.237 1.513.715.416 1.304.874 1.77 1.372.464.499 1.091 1.384 1.88 2.657l1.998 3.192h-3.951l-2.389-3.56c-.848-1.273-1.428-2.075-1.74-2.406-.313-.33-.644-.558-.994-.68-.35-.123-.904-.185-1.663-.185h-.67v6.83h-3.303zm3.303-9.442h2.445c1.584 0 2.574-.067 2.968-.201a1.78 1.78 0 0 0 .927-.692c.223-.328.335-.737.335-1.228 0-.55-.147-.995-.441-1.334-.294-.338-.709-.552-1.245-.641-.268-.038-1.071-.056-2.41-.056h-2.579v4.152zm13.192 9.442V.279h12.132v2.768h-8.828v3.627h8.214v2.757h-8.214v4.453h9.14v2.757h-12.444zM29.57 28.07v-1.722l-1.498-2.37h.968l.963 1.62.943-1.62h.951l-1.504 2.375v1.716h-.823zm2.57-2.02c0-.418.062-.767.187-1.05.093-.208.22-.395.38-.56.162-.166.338-.29.53-.37.254-.107.548-.161.881-.161.603 0 1.085.187 1.447.56.362.375.543.895.543 1.56 0 .66-.18 1.178-.539 1.55-.359.373-.839.56-1.44.56-.608 0-1.091-.186-1.45-.557-.36-.37-.539-.882-.539-1.533zm.851-.029c0 .463.107.814.32 1.053.215.24.486.359.816.359.329 0 .6-.119.81-.356.211-.237.317-.593.317-1.067 0-.469-.103-.818-.308-1.05-.206-.23-.479-.345-.82-.345-.34 0-.614.117-.822.35-.209.234-.313.586-.313 1.056zm3.756-2.042h.826v2.215c0 .352.01.58.03.684.036.167.12.302.253.403.133.101.315.152.545.152.235 0 .411-.048.53-.144a.568.568 0 0 0 .215-.353c.024-.14.036-.37.036-.694v-2.263h.826v2.148c0 .491-.022.838-.067 1.041a1.152 1.152 0 0 1-.247.513c-.12.14-.28.251-.48.334-.202.083-.464.124-.788.124-.39 0-.687-.045-.888-.135a1.27 1.27 0 0 1-.479-.352 1.127 1.127 0 0 1-.231-.453c-.054-.235-.081-.58-.081-1.038v-2.182zm6.406 2.288c.176.104.322.217.437.34.116.125.273.346.47.664l.5.798h-.989l-.597-.89c-.212-.318-.357-.518-.435-.601a.634.634 0 0 0-.248-.17 1.361 1.361 0 0 0-.416-.046h-.167v1.707h-.826v-4.09h1.738c.437 0 .755.037.953.11a.94.94 0 0 1 .476.392c.119.188.178.403.178.645 0 .306-.09.56-.27.76-.181.2-.45.326-.81.378l.006.003zm-1.445-.558h.61c.397 0 .644-.017.743-.05a.445.445 0 0 0 .231-.174.533.533 0 0 0 .084-.306.49.49 0 0 0-.11-.334.506.506 0 0 0-.311-.16 6.954 6.954 0 0 0-.603-.014h-.644v1.038zm5.806 2.36v-3.398H46.3v-.692h3.25v.692h-1.21v3.398h-.826zm2.57 0v-4.09h3.033v.692H50.91v.907h2.053v.689H50.91v1.113h2.285v.69h-3.111zm7.5 0h-.899l-.357-.929h-1.635l-.338.93h-.876l1.594-4.091h.873l1.638 4.09zm-1.52-1.618l-.565-1.518-.552 1.518h1.116zm1.947 1.618v-4.09h1.236l.742 2.79.734-2.79h1.238v4.09h-.767v-3.22l-.812 3.22h-.795l-.81-3.22v3.22h-.766zm6.434 1.203v-5.363h.622v5.363h-.622zm4.082-1.203v-1.721l-1.499-2.37h.969l.962 1.62.943-1.62h.952l-1.504 2.375v1.716h-.823zm2.57-2.02c0-.417.062-.766.186-1.049.093-.208.22-.395.381-.56.161-.166.337-.29.53-.37.254-.107.548-.161.88-.161.603 0 1.086.187 1.447.56.362.375.543.895.543 1.56 0 .66-.18 1.178-.538 1.55-.36.373-.84.56-1.44.56-.608 0-1.092-.186-1.451-.557-.359-.37-.538-.882-.538-1.533zm.85-.028c0 .463.108.814.321 1.053.214.24.486.359.815.359.33 0 .6-.119.81-.356.212-.237.317-.593.317-1.067 0-.469-.102-.818-.308-1.05-.205-.23-.478-.345-.819-.345-.34 0-.615.117-.823.35-.208.234-.312.586-.312 1.056zm3.756-2.042h.826v2.215c0 .352.01.58.03.684.036.167.12.302.253.403.133.101.315.152.546.152.234 0 .41-.048.53-.144a.568.568 0 0 0 .215-.353c.024-.14.036-.37.036-.694v-2.263h.826v2.148c0 .491-.022.838-.067 1.041a1.152 1.152 0 0 1-.247.513c-.12.14-.28.251-.481.334-.201.083-.464.124-.787.124-.39 0-.687-.045-.889-.135a1.27 1.27 0 0 1-.478-.352 1.127 1.127 0 0 1-.232-.453c-.054-.235-.08-.58-.08-1.038v-2.182zm6.406 2.288c.176.104.322.217.437.34.116.125.273.346.47.664l.5.798h-.988l-.597-.89c-.212-.318-.357-.518-.435-.601a.634.634 0 0 0-.249-.17 1.361 1.361 0 0 0-.416-.046h-.167v1.707h-.826v-4.09h1.738c.438 0 .755.037.953.11a.94.94 0 0 1 .476.392c.12.188.179.403.179.645 0 .306-.09.56-.271.76-.18.2-.45.326-.81.378l.006.003zm-1.445-.558h.611c.396 0 .644-.017.742-.05a.445.445 0 0 0 .232-.174.533.533 0 0 0 .084-.306.49.49 0 0 0-.11-.334.506.506 0 0 0-.312-.16 6.954 6.954 0 0 0-.602-.014h-.645v1.038zm7.503.856l.8.254c-.122.447-.326.778-.612.995-.285.217-.648.325-1.087.325-.543 0-.99-.186-1.339-.557-.35-.37-.524-.878-.524-1.522 0-.68.175-1.21.527-1.586.351-.377.814-.565 1.387-.565.5 0 .906.148 1.219.444.186.175.325.426.418.753l-.817.195a.867.867 0 0 0-.303-.502.867.867 0 0 0-.56-.184.93.93 0 0 0-.737.326c-.189.218-.283.57-.283 1.058 0 .517.093.885.279 1.105.186.22.427.329.725.329.22 0 .408-.07.566-.21.159-.139.272-.358.34-.658zm5.198 1.504h-.898l-.358-.929h-1.635l-.337.93h-.876l1.593-4.091h.873l1.638 4.09zm-1.52-1.618l-.564-1.518-.553 1.518h1.116zm4.232-.184c.176.104.322.217.437.34.116.125.273.346.47.664l.5.798h-.988l-.598-.89c-.212-.318-.357-.518-.435-.601a.634.634 0 0 0-.248-.17 1.361 1.361 0 0 0-.416-.046h-.167v1.707h-.826v-4.09h1.738c.437 0 .755.037.953.11a.94.94 0 0 1 .476.392c.119.188.178.403.178.645 0 .306-.09.56-.27.76-.18.2-.45.326-.81.378l.006.003zm-1.445-.558h.61c.397 0 .644-.017.743-.05a.445.445 0 0 0 .232-.174.533.533 0 0 0 .083-.306.49.49 0 0 0-.11-.334.506.506 0 0 0-.311-.16 6.954 6.954 0 0 0-.603-.014h-.644v1.038zm3.298 2.36v-4.09h3.033v.692h-2.207v.907h2.053v.689h-2.053v1.113h2.285v.69H97.93z"/>
    </g>
</svg>
